solid airfoil
 facet normal -0.989211 0.146495 0
  outer loop
   vertex -0.0001746 0.493821 0.009
   vertex 3.031e-17 0.495 0.009
   vertex -0.0001746 0.493821 -0.009
  endloop
 endfacet
 facet normal -0.989211 0.146495 1.12887e-19
  outer loop
   vertex -0.0001746 0.493821 -0.009
   vertex 3.031e-17 0.495 0.009
   vertex 3.031e-17 0.495 -0.009
  endloop
 endfacet
 facet normal -0.989244 0.146272 0
  outer loop
   vertex -0.000486 0.491715 0.009
   vertex -0.0001746 0.493821 0.009
   vertex -0.000486 0.491715 -0.009
  endloop
 endfacet
 facet normal -0.989244 0.146272 1.09777e-18
  outer loop
   vertex -0.000486 0.491715 -0.009
   vertex -0.0001746 0.493821 0.009
   vertex -0.0001746 0.493821 -0.009
  endloop
 endfacet
 facet normal -0.989246 0.146262 0
  outer loop
   vertex -0.0009504 0.488574 0.009
   vertex -0.000486 0.491715 0.009
   vertex -0.0009504 0.488574 -0.009
  endloop
 endfacet
 facet normal -0.989246 0.146262 -4.69339e-19
  outer loop
   vertex -0.0009504 0.488574 -0.009
   vertex -0.000486 0.491715 0.009
   vertex -0.000486 0.491715 -0.009
  endloop
 endfacet
 facet normal -0.989185 0.146671 0
  outer loop
   vertex -0.0015696 0.484398 0.009
   vertex -0.0009504 0.488574 0.009
   vertex -0.0015696 0.484398 -0.009
  endloop
 endfacet
 facet normal -0.989185 0.146671 3.67601e-19
  outer loop
   vertex -0.0015696 0.484398 -0.009
   vertex -0.0009504 0.488574 0.009
   vertex -0.0009504 0.488574 -0.009
  endloop
 endfacet
 facet normal -0.989236 0.146332 0
  outer loop
   vertex -0.0023391 0.479196 0.009
   vertex -0.0015696 0.484398 0.009
   vertex -0.0023391 0.479196 -0.009
  endloop
 endfacet
 facet normal -0.989236 0.146332 2.49797e-20
  outer loop
   vertex -0.0023391 0.479196 -0.009
   vertex -0.0015696 0.484398 0.009
   vertex -0.0015696 0.484398 -0.009
  endloop
 endfacet
 facet normal -0.989218 0.146451 0
  outer loop
   vertex -0.0032598 0.472977 0.009
   vertex -0.0023391 0.479196 0.009
   vertex -0.0032598 0.472977 -0.009
  endloop
 endfacet
 facet normal -0.989218 0.146451 -2.44282e-18
  outer loop
   vertex -0.0032598 0.472977 -0.009
   vertex -0.0023391 0.479196 0.009
   vertex -0.0023391 0.479196 -0.009
  endloop
 endfacet
 facet normal -0.987213 0.159406 0
  outer loop
   vertex -0.0044253 0.465759 0.009
   vertex -0.0032598 0.472977 0.009
   vertex -0.0044253 0.465759 -0.009
  endloop
 endfacet
 facet normal -0.987213 0.159406 2.25094e-18
  outer loop
   vertex -0.0044253 0.465759 -0.009
   vertex -0.0032598 0.472977 0.009
   vertex -0.0032598 0.472977 -0.009
  endloop
 endfacet
 facet normal -0.984292 0.176546 0
  outer loop
   vertex -0.0058959 0.45756 0.009
   vertex -0.0044253 0.465759 0.009
   vertex -0.0058959 0.45756 -0.009
  endloop
 endfacet
 facet normal -0.984292 0.176546 -5.4617e-18
  outer loop
   vertex -0.0058959 0.45756 -0.009
   vertex -0.0044253 0.465759 0.009
   vertex -0.0044253 0.465759 -0.009
  endloop
 endfacet
 facet normal -0.978864 0.204514 0
  outer loop
   vertex -0.007812 0.448389 0.009
   vertex -0.0058959 0.45756 0.009
   vertex -0.007812 0.448389 -0.009
  endloop
 endfacet
 facet normal -0.978864 0.204514 1.09038e-18
  outer loop
   vertex -0.007812 0.448389 -0.009
   vertex -0.0058959 0.45756 0.009
   vertex -0.0058959 0.45756 -0.009
  endloop
 endfacet
 facet normal -0.974135 0.225968 0
  outer loop
   vertex -0.0101565 0.438282 0.009
   vertex -0.007812 0.448389 0.009
   vertex -0.0101565 0.438282 -0.009
  endloop
 endfacet
 facet normal -0.974135 0.225968 -5.95987e-19
  outer loop
   vertex -0.0101565 0.438282 -0.009
   vertex -0.007812 0.448389 0.009
   vertex -0.007812 0.448389 -0.009
  endloop
 endfacet
 facet normal -0.969289 0.245922 0
  outer loop
   vertex -0.0129537 0.427257 0.009
   vertex -0.0101565 0.438282 0.009
   vertex -0.0129537 0.427257 -0.009
  endloop
 endfacet
 facet normal -0.969289 0.245922 -1.12974e-18
  outer loop
   vertex -0.0129537 0.427257 -0.009
   vertex -0.0101565 0.438282 0.009
   vertex -0.0101565 0.438282 -0.009
  endloop
 endfacet
 facet normal -0.965407 0.260748 0
  outer loop
   vertex -0.0161721 0.415341 0.009
   vertex -0.0129537 0.427257 0.009
   vertex -0.0161721 0.415341 -0.009
  endloop
 endfacet
 facet normal -0.965407 0.260748 0
  outer loop
   vertex -0.0161721 0.415341 -0.009
   vertex -0.0129537 0.427257 0.009
   vertex -0.0129537 0.427257 -0.009
  endloop
 endfacet
 facet normal -0.962982 0.269566 0
  outer loop
   vertex -0.0197496 0.402561 0.009
   vertex -0.0161721 0.415341 0.009
   vertex -0.0197496 0.402561 -0.009
  endloop
 endfacet
 facet normal -0.962982 0.269566 -1.37301e-17
  outer loop
   vertex -0.0197496 0.402561 -0.009
   vertex -0.0161721 0.415341 0.009
   vertex -0.0161721 0.415341 -0.009
  endloop
 endfacet
 facet normal -0.961739 0.273966 0
  outer loop
   vertex -0.0236286 0.388944 0.009
   vertex -0.0197496 0.402561 0.009
   vertex -0.0236286 0.388944 -0.009
  endloop
 endfacet
 facet normal -0.961739 0.273966 -7.04831e-18
  outer loop
   vertex -0.0236286 0.388944 -0.009
   vertex -0.0197496 0.402561 0.009
   vertex -0.0197496 0.402561 -0.009
  endloop
 endfacet
 facet normal -0.960792 0.277269 0
  outer loop
   vertex -0.027792 0.374517 0.009
   vertex -0.0236286 0.388944 0.009
   vertex -0.027792 0.374517 -0.009
  endloop
 endfacet
 facet normal -0.960792 0.277269 6.28216e-18
  outer loop
   vertex -0.027792 0.374517 -0.009
   vertex -0.0236286 0.388944 0.009
   vertex -0.0236286 0.388944 -0.009
  endloop
 endfacet
 facet normal -0.959899 0.280345 0
  outer loop
   vertex -0.0322263 0.359334 0.009
   vertex -0.027792 0.374517 0.009
   vertex -0.0322263 0.359334 -0.009
  endloop
 endfacet
 facet normal -0.959899 0.280345 -1.35515e-17
  outer loop
   vertex -0.0322263 0.359334 -0.009
   vertex -0.027792 0.374517 0.009
   vertex -0.027792 0.374517 -0.009
  endloop
 endfacet
 facet normal -0.959657 0.281175 0
  outer loop
   vertex -0.0368937 0.343404 0.009
   vertex -0.0322263 0.359334 0.009
   vertex -0.0368937 0.343404 -0.009
  endloop
 endfacet
 facet normal -0.959657 0.281175 2.14018e-17
  outer loop
   vertex -0.0368937 0.343404 -0.009
   vertex -0.0322263 0.359334 0.009
   vertex -0.0322263 0.359334 -0.009
  endloop
 endfacet
 facet normal -0.960224 0.279229 0
  outer loop
   vertex -0.0417276 0.326781 0.009
   vertex -0.0368937 0.343404 0.009
   vertex -0.0417276 0.326781 -0.009
  endloop
 endfacet
 facet normal -0.960224 0.279229 -1.29522e-17
  outer loop
   vertex -0.0417276 0.326781 -0.009
   vertex -0.0368937 0.343404 0.009
   vertex -0.0368937 0.343404 -0.009
  endloop
 endfacet
 facet normal -0.961771 0.273854 0
  outer loop
   vertex -0.0466479 0.309501 0.009
   vertex -0.0417276 0.326781 0.009
   vertex -0.0466479 0.309501 -0.009
  endloop
 endfacet
 facet normal -0.961771 0.273854 -1.63576e-17
  outer loop
   vertex -0.0466479 0.309501 -0.009
   vertex -0.0417276 0.326781 0.009
   vertex -0.0417276 0.326781 -0.009
  endloop
 endfacet
 facet normal -0.964354 0.264615 0
  outer loop
   vertex -0.0515574 0.291609 0.009
   vertex -0.0466479 0.309501 0.009
   vertex -0.0515574 0.291609 -0.009
  endloop
 endfacet
 facet normal -0.964354 0.264615 -1.15304e-17
  outer loop
   vertex -0.0515574 0.291609 -0.009
   vertex -0.0466479 0.309501 0.009
   vertex -0.0466479 0.309501 -0.009
  endloop
 endfacet
 facet normal -0.967694 0.252128 0
  outer loop
   vertex -0.0563715 0.273132 0.009
   vertex -0.0515574 0.291609 0.009
   vertex -0.0563715 0.273132 -0.009
  endloop
 endfacet
 facet normal -0.967694 0.252128 1.14731e-18
  outer loop
   vertex -0.0563715 0.273132 -0.009
   vertex -0.0515574 0.291609 0.009
   vertex -0.0515574 0.291609 -0.009
  endloop
 endfacet
 facet normal -0.971289 0.237902 0
  outer loop
   vertex -0.0610272 0.254124 0.009
   vertex -0.0563715 0.273132 0.009
   vertex -0.0610272 0.254124 -0.009
  endloop
 endfacet
 facet normal -0.971289 0.237902 1.18174e-17
  outer loop
   vertex -0.0610272 0.254124 -0.009
   vertex -0.0563715 0.273132 0.009
   vertex -0.0563715 0.273132 -0.009
  endloop
 endfacet
 facet normal -0.976104 0.217302 0
  outer loop
   vertex -0.065367 0.23463 0.009
   vertex -0.0610272 0.254124 0.009
   vertex -0.065367 0.23463 -0.009
  endloop
 endfacet
 facet normal -0.976104 0.217302 -1.1191e-17
  outer loop
   vertex -0.065367 0.23463 -0.009
   vertex -0.0610272 0.254124 0.009
   vertex -0.0610272 0.254124 -0.009
  endloop
 endfacet
 facet normal -0.980401 0.19701 0
  outer loop
   vertex -0.0693729 0.214695 0.009
   vertex -0.065367 0.23463 0.009
   vertex -0.0693729 0.214695 -0.009
  endloop
 endfacet
 facet normal -0.980401 0.19701 -5.62637e-18
  outer loop
   vertex -0.0693729 0.214695 -0.009
   vertex -0.065367 0.23463 0.009
   vertex -0.065367 0.23463 -0.009
  endloop
 endfacet
 facet normal -0.985464 0.169884 0
  outer loop
   vertex -0.0728793 0.194355 0.009
   vertex -0.0693729 0.214695 0.009
   vertex -0.0728793 0.194355 -0.009
  endloop
 endfacet
 facet normal -0.985464 0.169884 -3.53453e-18
  outer loop
   vertex -0.0728793 0.194355 -0.009
   vertex -0.0693729 0.214695 0.009
   vertex -0.0693729 0.214695 -0.009
  endloop
 endfacet
 facet normal -0.990039 0.140794 0
  outer loop
   vertex -0.0758205 0.173673 0.009
   vertex -0.0728793 0.194355 0.009
   vertex -0.0758205 0.173673 -0.009
  endloop
 endfacet
 facet normal -0.990039 0.140794 -6.95585e-18
  outer loop
   vertex -0.0758205 0.173673 -0.009
   vertex -0.0728793 0.194355 0.009
   vertex -0.0728793 0.194355 -0.009
  endloop
 endfacet
 facet normal -0.994944 0.100434 0
  outer loop
   vertex -0.0779382 0.152694 0.009
   vertex -0.0758205 0.173673 0.009
   vertex -0.0779382 0.152694 -0.009
  endloop
 endfacet
 facet normal -0.994944 0.100434 5.89806e-18
  outer loop
   vertex -0.0779382 0.152694 -0.009
   vertex -0.0758205 0.173673 0.009
   vertex -0.0758205 0.173673 -0.009
  endloop
 endfacet
 facet normal -0.997678 0.0681042 0
  outer loop
   vertex -0.0793881 0.131454 0.009
   vertex -0.0779382 0.152694 0.009
   vertex -0.0793881 0.131454 -0.009
  endloop
 endfacet
 facet normal -0.997678 0.0681042 6.64025e-18
  outer loop
   vertex -0.0793881 0.131454 -0.009
   vertex -0.0779382 0.152694 0.009
   vertex -0.0779382 0.152694 -0.009
  endloop
 endfacet
 facet normal -0.999083 0.0428238 0
  outer loop
   vertex -0.080307 0.110016 0.009
   vertex -0.0793881 0.131454 0.009
   vertex -0.080307 0.110016 -0.009
  endloop
 endfacet
 facet normal -0.999083 0.0428238 -2.69867e-19
  outer loop
   vertex -0.080307 0.110016 -0.009
   vertex -0.0793881 0.131454 0.009
   vertex -0.0793881 0.131454 -0.009
  endloop
 endfacet
 facet normal -0.999704 0.0243463 0
  outer loop
   vertex -0.0808326 0.088434 0.009
   vertex -0.080307 0.110016 0.009
   vertex -0.0808326 0.088434 -0.009
  endloop
 endfacet
 facet normal -0.999704 0.0243463 1.65138e-18
  outer loop
   vertex -0.0808326 0.088434 -0.009
   vertex -0.080307 0.110016 0.009
   vertex -0.080307 0.110016 -0.009
  endloop
 endfacet
 facet normal -0.999963 0.00854747 0
  outer loop
   vertex -0.081018 0.066744 0.009
   vertex -0.0808326 0.088434 0.009
   vertex -0.081018 0.066744 -0.009
  endloop
 endfacet
 facet normal -0.999963 0.00854747 -1.02753e-18
  outer loop
   vertex -0.081018 0.066744 -0.009
   vertex -0.0808326 0.088434 0.009
   vertex -0.0808326 0.088434 -0.009
  endloop
 endfacet
 facet normal -0.999976 -0.00699492 -0
  outer loop
   vertex -0.0808659 0.045 0.009
   vertex -0.081018 0.066744 0.009
   vertex -0.0808659 0.045 -0.009
  endloop
 endfacet
 facet normal -0.999976 -0.00699492 -2.59592e-19
  outer loop
   vertex -0.0808659 0.045 -0.009
   vertex -0.081018 0.066744 0.009
   vertex -0.081018 0.066744 -0.009
  endloop
 endfacet
 facet normal -0.999808 -0.0195741 -0
  outer loop
   vertex -0.0804402 0.023256 0.009
   vertex -0.0808659 0.045 0.009
   vertex -0.0804402 0.023256 -0.009
  endloop
 endfacet
 facet normal -0.999808 -0.0195741 0
  outer loop
   vertex -0.0804402 0.023256 -0.009
   vertex -0.0808659 0.045 0.009
   vertex -0.0808659 0.045 -0.009
  endloop
 endfacet
 facet normal -0.999471 -0.032514 -0
  outer loop
   vertex -0.0797346 0.001566 0.009
   vertex -0.0804402 0.023256 0.009
   vertex -0.0797346 0.001566 -0.009
  endloop
 endfacet
 facet normal -0.999471 -0.032514 -3.3693e-18
  outer loop
   vertex -0.0797346 0.001566 -0.009
   vertex -0.0804402 0.023256 0.009
   vertex -0.0804402 0.023256 -0.009
  endloop
 endfacet
 facet normal -0.999061 -0.0433286 -0
  outer loop
   vertex -0.0787986 -0.020016 0.009
   vertex -0.0797346 0.001566 0.009
   vertex -0.0787986 -0.020016 -0.009
  endloop
 endfacet
 facet normal -0.999061 -0.0433286 -2.80143e-18
  outer loop
   vertex -0.0787986 -0.020016 -0.009
   vertex -0.0797346 0.001566 0.009
   vertex -0.0797346 0.001566 -0.009
  endloop
 endfacet
 facet normal -0.99847 -0.0552888 -0
  outer loop
   vertex -0.0776115 -0.041454 0.009
   vertex -0.0787986 -0.020016 0.009
   vertex -0.0776115 -0.041454 -0.009
  endloop
 endfacet
 facet normal -0.99847 -0.0552888 -1.07128e-18
  outer loop
   vertex -0.0776115 -0.041454 -0.009
   vertex -0.0787986 -0.020016 0.009
   vertex -0.0787986 -0.020016 -0.009
  endloop
 endfacet
 facet normal -0.997875 -0.0651581 -0
  outer loop
   vertex -0.0762246 -0.062694 0.009
   vertex -0.0776115 -0.041454 0.009
   vertex -0.0762246 -0.062694 -0.009
  endloop
 endfacet
 facet normal -0.997875 -0.0651581 -2.97265e-18
  outer loop
   vertex -0.0762246 -0.062694 -0.009
   vertex -0.0776115 -0.041454 0.009
   vertex -0.0776115 -0.041454 -0.009
  endloop
 endfacet
 facet normal -0.997113 -0.0759276 -0
  outer loop
   vertex -0.0746271 -0.083673 0.009
   vertex -0.0762246 -0.062694 0.009
   vertex -0.0746271 -0.083673 -0.009
  endloop
 endfacet
 facet normal -0.997113 -0.0759276 4.16302e-18
  outer loop
   vertex -0.0746271 -0.083673 -0.009
   vertex -0.0762246 -0.062694 0.009
   vertex -0.0762246 -0.062694 -0.009
  endloop
 endfacet
 facet normal -0.996357 -0.0852842 -0
  outer loop
   vertex -0.0728568 -0.104355 0.009
   vertex -0.0746271 -0.083673 0.009
   vertex -0.0728568 -0.104355 -0.009
  endloop
 endfacet
 facet normal -0.996357 -0.0852842 -4.88746e-18
  outer loop
   vertex -0.0728568 -0.104355 -0.009
   vertex -0.0746271 -0.083673 0.009
   vertex -0.0746271 -0.083673 -0.009
  endloop
 endfacet
 facet normal -0.995493 -0.0948362 -0
  outer loop
   vertex -0.0709191 -0.124695 0.009
   vertex -0.0728568 -0.104355 0.009
   vertex -0.0709191 -0.124695 -0.009
  endloop
 endfacet
 facet normal -0.995493 -0.0948362 4.95147e-18
  outer loop
   vertex -0.0709191 -0.124695 -0.009
   vertex -0.0728568 -0.104355 0.009
   vertex -0.0728568 -0.104355 -0.009
  endloop
 endfacet
 facet normal -0.994513 -0.104615 -0
  outer loop
   vertex -0.0688221 -0.14463 0.009
   vertex -0.0709191 -0.124695 0.009
   vertex -0.0688221 -0.14463 -0.009
  endloop
 endfacet
 facet normal -0.994513 -0.104615 -4.70095e-18
  outer loop
   vertex -0.0688221 -0.14463 -0.009
   vertex -0.0709191 -0.124695 0.009
   vertex -0.0709191 -0.124695 -0.009
  endloop
 endfacet
 facet normal -0.99354 -0.113482 -0
  outer loop
   vertex -0.0665955 -0.164124 0.009
   vertex -0.0688221 -0.14463 0.009
   vertex -0.0665955 -0.164124 -0.009
  endloop
 endfacet
 facet normal -0.99354 -0.113482 6.26662e-19
  outer loop
   vertex -0.0665955 -0.164124 -0.009
   vertex -0.0688221 -0.14463 0.009
   vertex -0.0688221 -0.14463 -0.009
  endloop
 endfacet
 facet normal -0.992289 -0.123942 -0
  outer loop
   vertex -0.0642213 -0.183132 0.009
   vertex -0.0665955 -0.164124 0.009
   vertex -0.0642213 -0.183132 -0.009
  endloop
 endfacet
 facet normal -0.992289 -0.123942 -2.8772e-18
  outer loop
   vertex -0.0642213 -0.183132 -0.009
   vertex -0.0665955 -0.164124 0.009
   vertex -0.0665955 -0.164124 -0.009
  endloop
 endfacet
 facet normal -0.991046 -0.133523 -0
  outer loop
   vertex -0.0617319 -0.201609 0.009
   vertex -0.0642213 -0.183132 0.009
   vertex -0.0617319 -0.201609 -0.009
  endloop
 endfacet
 facet normal -0.991046 -0.133523 -9.0406e-18
  outer loop
   vertex -0.0617319 -0.201609 -0.009
   vertex -0.0642213 -0.183132 0.009
   vertex -0.0642213 -0.183132 -0.009
  endloop
 endfacet
 facet normal -0.989704 -0.143129 -0
  outer loop
   vertex -0.0591444 -0.219501 0.009
   vertex -0.0617319 -0.201609 0.009
   vertex -0.0591444 -0.219501 -0.009
  endloop
 endfacet
 facet normal -0.989704 -0.143129 -3.5168e-18
  outer loop
   vertex -0.0591444 -0.219501 -0.009
   vertex -0.0617319 -0.201609 0.009
   vertex -0.0617319 -0.201609 -0.009
  endloop
 endfacet
 facet normal -0.988161 -0.153422 -0
  outer loop
   vertex -0.0564615 -0.236781 0.009
   vertex -0.0591444 -0.219501 0.009
   vertex -0.0564615 -0.236781 -0.009
  endloop
 endfacet
 facet normal -0.988161 -0.153422 -7.29674e-18
  outer loop
   vertex -0.0564615 -0.236781 -0.009
   vertex -0.0591444 -0.219501 0.009
   vertex -0.0591444 -0.219501 -0.009
  endloop
 endfacet
 facet normal -0.986206 -0.165524 -0
  outer loop
   vertex -0.0536715 -0.253404 0.009
   vertex -0.0564615 -0.236781 0.009
   vertex -0.0536715 -0.253404 -0.009
  endloop
 endfacet
 facet normal -0.986206 -0.165524 -6.37802e-18
  outer loop
   vertex -0.0536715 -0.253404 -0.009
   vertex -0.0564615 -0.236781 0.009
   vertex -0.0564615 -0.236781 -0.009
  endloop
 endfacet
 facet normal -0.984212 -0.176991 -0
  outer loop
   vertex -0.0508068 -0.269334 0.009
   vertex -0.0536715 -0.253404 0.009
   vertex -0.0508068 -0.269334 -0.009
  endloop
 endfacet
 facet normal -0.984212 -0.176991 9.7408e-18
  outer loop
   vertex -0.0508068 -0.269334 -0.009
   vertex -0.0536715 -0.253404 0.009
   vertex -0.0536715 -0.253404 -0.009
  endloop
 endfacet
 facet normal -0.981858 -0.18962 -0
  outer loop
   vertex -0.0478746 -0.284517 0.009
   vertex -0.0508068 -0.269334 0.009
   vertex -0.0478746 -0.284517 -0.009
  endloop
 endfacet
 facet normal -0.981858 -0.18962 -7.3849e-18
  outer loop
   vertex -0.0478746 -0.284517 -0.009
   vertex -0.0508068 -0.269334 0.009
   vertex -0.0508068 -0.269334 -0.009
  endloop
 endfacet
 facet normal -0.979231 -0.202749 -0
  outer loop
   vertex -0.0448875 -0.298944 0.009
   vertex -0.0478746 -0.284517 0.009
   vertex -0.0448875 -0.298944 -0.009
  endloop
 endfacet
 facet normal -0.979231 -0.202749 8.94621e-18
  outer loop
   vertex -0.0448875 -0.298944 -0.009
   vertex -0.0478746 -0.284517 0.009
   vertex -0.0478746 -0.284517 -0.009
  endloop
 endfacet
 facet normal -0.97619 -0.216917 -0
  outer loop
   vertex -0.0418617 -0.312561 0.009
   vertex -0.0448875 -0.298944 0.009
   vertex -0.0418617 -0.312561 -0.009
  endloop
 endfacet
 facet normal -0.97619 -0.216917 -4.24982e-18
  outer loop
   vertex -0.0418617 -0.312561 -0.009
   vertex -0.0448875 -0.298944 0.009
   vertex -0.0448875 -0.298944 -0.009
  endloop
 endfacet
 facet normal -0.972813 -0.231593 -0
  outer loop
   vertex -0.0388188 -0.325343 0.009
   vertex -0.0418617 -0.312561 0.009
   vertex -0.0388188 -0.325343 -0.009
  endloop
 endfacet
 facet normal -0.972813 -0.231593 0
  outer loop
   vertex -0.0388188 -0.325343 -0.009
   vertex -0.0418617 -0.312561 0.009
   vertex -0.0418617 -0.312561 -0.009
  endloop
 endfacet
 facet normal -0.968934 -0.247319 -0
  outer loop
   vertex -0.0357768 -0.337261 0.009
   vertex -0.0388188 -0.325343 0.009
   vertex -0.0357768 -0.337261 -0.009
  endloop
 endfacet
 facet normal -0.968934 -0.247319 -4.19025e-19
  outer loop
   vertex -0.0357768 -0.337261 -0.009
   vertex -0.0388188 -0.325343 0.009
   vertex -0.0388188 -0.325343 -0.009
  endloop
 endfacet
 facet normal -0.964221 -0.265101 -0
  outer loop
   vertex -0.0327456 -0.348286 0.009
   vertex -0.0357768 -0.337261 0.009
   vertex -0.0327456 -0.348286 -0.009
  endloop
 endfacet
 facet normal -0.964221 -0.265101 -4.36672e-18
  outer loop
   vertex -0.0327456 -0.348286 -0.009
   vertex -0.0357768 -0.337261 0.009
   vertex -0.0357768 -0.337261 -0.009
  endloop
 endfacet
 facet normal -0.958241 -0.285962 -0
  outer loop
   vertex -0.0297297 -0.358392 0.009
   vertex -0.0327456 -0.348286 0.009
   vertex -0.0297297 -0.358392 -0.009
  endloop
 endfacet
 facet normal -0.958241 -0.285962 7.74398e-18
  outer loop
   vertex -0.0297297 -0.358392 -0.009
   vertex -0.0327456 -0.348286 0.009
   vertex -0.0327456 -0.348286 -0.009
  endloop
 endfacet
 facet normal -0.950635 -0.310312 -0
  outer loop
   vertex -0.0267381 -0.367556 0.009
   vertex -0.0297297 -0.358392 0.009
   vertex -0.0267381 -0.367556 -0.009
  endloop
 endfacet
 facet normal -0.950635 -0.310312 8.99478e-18
  outer loop
   vertex -0.0267381 -0.367556 -0.009
   vertex -0.0297297 -0.358392 0.009
   vertex -0.0297297 -0.358392 -0.009
  endloop
 endfacet
 facet normal -0.941128 -0.33805 -0
  outer loop
   vertex -0.0237924 -0.375757 0.009
   vertex -0.0267381 -0.367556 0.009
   vertex -0.0237924 -0.375757 -0.009
  endloop
 endfacet
 facet normal -0.941128 -0.33805 9.09552e-19
  outer loop
   vertex -0.0237924 -0.375757 -0.009
   vertex -0.0267381 -0.367556 0.009
   vertex -0.0267381 -0.367556 -0.009
  endloop
 endfacet
 facet normal -0.926311 -0.376761 -0
  outer loop
   vertex -0.0208566 -0.382975 0.009
   vertex -0.0237924 -0.375757 0.009
   vertex -0.0208566 -0.382975 -0.009
  endloop
 endfacet
 facet normal -0.926311 -0.376761 8.39172e-19
  outer loop
   vertex -0.0208566 -0.382975 -0.009
   vertex -0.0237924 -0.375757 0.009
   vertex -0.0237924 -0.375757 -0.009
  endloop
 endfacet
 facet normal -0.905462 -0.424427 -0
  outer loop
   vertex -0.0179415 -0.389194 0.009
   vertex -0.0208566 -0.382975 0.009
   vertex -0.0179415 -0.389194 -0.009
  endloop
 endfacet
 facet normal -0.905462 -0.424427 2.86115e-18
  outer loop
   vertex -0.0179415 -0.389194 -0.009
   vertex -0.0208566 -0.382975 0.009
   vertex -0.0208566 -0.382975 -0.009
  endloop
 endfacet
 facet normal -0.863741 -0.503936 -0
  outer loop
   vertex -0.0149049 -0.394399 0.009
   vertex -0.0179415 -0.389194 0.009
   vertex -0.0149049 -0.394399 -0.009
  endloop
 endfacet
 facet normal -0.863741 -0.503936 -8.54747e-18
  outer loop
   vertex -0.0149049 -0.394399 -0.009
   vertex -0.0179415 -0.389194 0.009
   vertex -0.0179415 -0.389194 -0.009
  endloop
 endfacet
 facet normal -0.794008 -0.607907 -0
  outer loop
   vertex -0.0117063 -0.398577 0.009
   vertex -0.0149049 -0.394399 0.009
   vertex -0.0117063 -0.398577 -0.009
  endloop
 endfacet
 facet normal -0.794008 -0.607907 4.09403e-18
  outer loop
   vertex -0.0117063 -0.398577 -0.009
   vertex -0.0149049 -0.394399 0.009
   vertex -0.0149049 -0.394399 -0.009
  endloop
 endfacet
 facet normal -0.686069 -0.727536 -0
  outer loop
   vertex -0.0083745 -0.401719 0.009
   vertex -0.0117063 -0.398577 0.009
   vertex -0.0083745 -0.401719 -0.009
  endloop
 endfacet
 facet normal -0.686069 -0.727536 -2.89919e-18
  outer loop
   vertex -0.0083745 -0.401719 -0.009
   vertex -0.0117063 -0.398577 0.009
   vertex -0.0117063 -0.398577 -0.009
  endloop
 endfacet
 facet normal -0.525114 -0.851032 -0
  outer loop
   vertex -0.0049716 -0.403818 0.009
   vertex -0.0083745 -0.401719 0.009
   vertex -0.0049716 -0.403818 -0.009
  endloop
 endfacet
 facet normal -0.525114 -0.851032 5.20764e-18
  outer loop
   vertex -0.0049716 -0.403818 -0.009
   vertex -0.0083745 -0.401719 0.009
   vertex -0.0083745 -0.401719 -0.009
  endloop
 endfacet
 facet normal -0.231247 -0.972895 -0
  outer loop
   vertex -2.47991e-17 -0.405 0.009
   vertex -0.0049716 -0.403818 0.009
   vertex -2.47991e-17 -0.405 -0.009
  endloop
 endfacet
 facet normal -0.231247 -0.972895 1.50799e-18
  outer loop
   vertex -2.47991e-17 -0.405 -0.009
   vertex -0.0049716 -0.403818 0.009
   vertex -0.0049716 -0.403818 -0.009
  endloop
 endfacet
 facet normal 0.231247 -0.972895 0
  outer loop
   vertex 0.0049716 -0.403818 0.009
   vertex -2.47991e-17 -0.405 0.009
   vertex 0.0049716 -0.403818 -0.009
  endloop
 endfacet
 facet normal 0.231247 -0.972895 -1.50799e-18
  outer loop
   vertex 0.0049716 -0.403818 -0.009
   vertex -2.47991e-17 -0.405 0.009
   vertex -2.47991e-17 -0.405 -0.009
  endloop
 endfacet
 facet normal 0.525114 -0.851032 0
  outer loop
   vertex 0.0083745 -0.401719 0.009
   vertex 0.0049716 -0.403818 0.009
   vertex 0.0083745 -0.401719 -0.009
  endloop
 endfacet
 facet normal 0.525114 -0.851032 -5.20764e-18
  outer loop
   vertex 0.0083745 -0.401719 -0.009
   vertex 0.0049716 -0.403818 0.009
   vertex 0.0049716 -0.403818 -0.009
  endloop
 endfacet
 facet normal 0.686069 -0.727536 0
  outer loop
   vertex 0.0117063 -0.398577 0.009
   vertex 0.0083745 -0.401719 0.009
   vertex 0.0117063 -0.398577 -0.009
  endloop
 endfacet
 facet normal 0.686069 -0.727536 2.89919e-18
  outer loop
   vertex 0.0117063 -0.398577 -0.009
   vertex 0.0083745 -0.401719 0.009
   vertex 0.0083745 -0.401719 -0.009
  endloop
 endfacet
 facet normal 0.794008 -0.607907 0
  outer loop
   vertex 0.0149049 -0.394399 0.009
   vertex 0.0117063 -0.398577 0.009
   vertex 0.0149049 -0.394399 -0.009
  endloop
 endfacet
 facet normal 0.794008 -0.607907 -4.09403e-18
  outer loop
   vertex 0.0149049 -0.394399 -0.009
   vertex 0.0117063 -0.398577 0.009
   vertex 0.0117063 -0.398577 -0.009
  endloop
 endfacet
 facet normal 0.863741 -0.503936 0
  outer loop
   vertex 0.0179415 -0.389194 0.009
   vertex 0.0149049 -0.394399 0.009
   vertex 0.0179415 -0.389194 -0.009
  endloop
 endfacet
 facet normal 0.863741 -0.503936 -1.92312e-18
  outer loop
   vertex 0.0179415 -0.389194 -0.009
   vertex 0.0149049 -0.394399 0.009
   vertex 0.0149049 -0.394399 -0.009
  endloop
 endfacet
 facet normal 0.905462 -0.424427 0
  outer loop
   vertex 0.0208566 -0.382975 0.009
   vertex 0.0179415 -0.389194 0.009
   vertex 0.0208566 -0.382975 -0.009
  endloop
 endfacet
 facet normal 0.905462 -0.424427 -2.86115e-18
  outer loop
   vertex 0.0208566 -0.382975 -0.009
   vertex 0.0179415 -0.389194 0.009
   vertex 0.0179415 -0.389194 -0.009
  endloop
 endfacet
 facet normal 0.926311 -0.376761 0
  outer loop
   vertex 0.0237924 -0.375757 0.009
   vertex 0.0208566 -0.382975 0.009
   vertex 0.0237924 -0.375757 -0.009
  endloop
 endfacet
 facet normal 0.926311 -0.376761 8.61149e-18
  outer loop
   vertex 0.0237924 -0.375757 -0.009
   vertex 0.0208566 -0.382975 0.009
   vertex 0.0208566 -0.382975 -0.009
  endloop
 endfacet
 facet normal 0.941128 -0.33805 0
  outer loop
   vertex 0.0267381 -0.367556 0.009
   vertex 0.0237924 -0.375757 0.009
   vertex 0.0267381 -0.367556 -0.009
  endloop
 endfacet
 facet normal 0.941128 -0.33805 -9.09552e-19
  outer loop
   vertex 0.0267381 -0.367556 -0.009
   vertex 0.0237924 -0.375757 0.009
   vertex 0.0237924 -0.375757 -0.009
  endloop
 endfacet
 facet normal 0.950635 -0.310312 0
  outer loop
   vertex 0.0297297 -0.358392 0.009
   vertex 0.0267381 -0.367556 0.009
   vertex 0.0297297 -0.358392 -0.009
  endloop
 endfacet
 facet normal 0.950635 -0.310312 3.01968e-18
  outer loop
   vertex 0.0297297 -0.358392 -0.009
   vertex 0.0267381 -0.367556 0.009
   vertex 0.0267381 -0.367556 -0.009
  endloop
 endfacet
 facet normal 0.958241 -0.285962 0
  outer loop
   vertex 0.0327456 -0.348286 0.009
   vertex 0.0297297 -0.358392 0.009
   vertex 0.0327456 -0.348286 -0.009
  endloop
 endfacet
 facet normal 0.958241 -0.285962 4.70091e-18
  outer loop
   vertex 0.0327456 -0.348286 -0.009
   vertex 0.0297297 -0.358392 0.009
   vertex 0.0297297 -0.358392 -0.009
  endloop
 endfacet
 facet normal 0.964221 -0.265101 0
  outer loop
   vertex 0.0357768 -0.337261 0.009
   vertex 0.0327456 -0.348286 0.009
   vertex 0.0357768 -0.337261 -0.009
  endloop
 endfacet
 facet normal 0.964221 -0.265101 4.36672e-18
  outer loop
   vertex 0.0357768 -0.337261 -0.009
   vertex 0.0327456 -0.348286 0.009
   vertex 0.0327456 -0.348286 -0.009
  endloop
 endfacet
 facet normal 0.968934 -0.247319 0
  outer loop
   vertex 0.0388188 -0.325343 0.009
   vertex 0.0357768 -0.337261 0.009
   vertex 0.0388188 -0.325343 -0.009
  endloop
 endfacet
 facet normal 0.968934 -0.247319 6.65746e-18
  outer loop
   vertex 0.0388188 -0.325343 -0.009
   vertex 0.0357768 -0.337261 0.009
   vertex 0.0357768 -0.337261 -0.009
  endloop
 endfacet
 facet normal 0.972813 -0.231593 0
  outer loop
   vertex 0.0418617 -0.312561 0.009
   vertex 0.0388188 -0.325343 0.009
   vertex 0.0418617 -0.312561 -0.009
  endloop
 endfacet
 facet normal 0.972813 -0.231593 0
  outer loop
   vertex 0.0418617 -0.312561 -0.009
   vertex 0.0388188 -0.325343 0.009
   vertex 0.0388188 -0.325343 -0.009
  endloop
 endfacet
 facet normal 0.97619 -0.216917 0
  outer loop
   vertex 0.0448875 -0.298944 0.009
   vertex 0.0418617 -0.312561 0.009
   vertex 0.0448875 -0.298944 -0.009
  endloop
 endfacet
 facet normal 0.97619 -0.216917 4.24982e-18
  outer loop
   vertex 0.0448875 -0.298944 -0.009
   vertex 0.0418617 -0.312561 0.009
   vertex 0.0418617 -0.312561 -0.009
  endloop
 endfacet
 facet normal 0.979231 -0.202749 0
  outer loop
   vertex 0.0478746 -0.284517 0.009
   vertex 0.0448875 -0.298944 0.009
   vertex 0.0478746 -0.284517 -0.009
  endloop
 endfacet
 facet normal 0.979231 -0.202749 -3.15236e-18
  outer loop
   vertex 0.0478746 -0.284517 -0.009
   vertex 0.0448875 -0.298944 0.009
   vertex 0.0448875 -0.298944 -0.009
  endloop
 endfacet
 facet normal 0.981858 -0.18962 0
  outer loop
   vertex 0.0508068 -0.269334 0.009
   vertex 0.0478746 -0.284517 0.009
   vertex 0.0508068 -0.269334 -0.009
  endloop
 endfacet
 facet normal 0.981858 -0.18962 -3.634e-18
  outer loop
   vertex 0.0508068 -0.269334 -0.009
   vertex 0.0478746 -0.284517 0.009
   vertex 0.0478746 -0.284517 -0.009
  endloop
 endfacet
 facet normal 0.984212 -0.176991 0
  outer loop
   vertex 0.0536715 -0.253404 0.009
   vertex 0.0508068 -0.269334 0.009
   vertex 0.0536715 -0.253404 -0.009
  endloop
 endfacet
 facet normal 0.984212 -0.176991 4.78776e-18
  outer loop
   vertex 0.0536715 -0.253404 -0.009
   vertex 0.0508068 -0.269334 0.009
   vertex 0.0508068 -0.269334 -0.009
  endloop
 endfacet
 facet normal 0.986206 -0.165524 0
  outer loop
   vertex 0.0564615 -0.236781 0.009
   vertex 0.0536715 -0.253404 0.009
   vertex 0.0564615 -0.236781 -0.009
  endloop
 endfacet
 facet normal 0.986206 -0.165524 6.37802e-18
  outer loop
   vertex 0.0564615 -0.236781 -0.009
   vertex 0.0536715 -0.253404 0.009
   vertex 0.0536715 -0.253404 -0.009
  endloop
 endfacet
 facet normal 0.988161 -0.153422 0
  outer loop
   vertex 0.0591444 -0.219501 0.009
   vertex 0.0564615 -0.236781 0.009
   vertex 0.0591444 -0.219501 -0.009
  endloop
 endfacet
 facet normal 0.988161 -0.153422 7.29674e-18
  outer loop
   vertex 0.0591444 -0.219501 -0.009
   vertex 0.0564615 -0.236781 0.009
   vertex 0.0564615 -0.236781 -0.009
  endloop
 endfacet
 facet normal 0.989704 -0.143129 0
  outer loop
   vertex 0.0617319 -0.201609 0.009
   vertex 0.0591444 -0.219501 0.009
   vertex 0.0617319 -0.201609 -0.009
  endloop
 endfacet
 facet normal 0.989704 -0.143129 -3.17614e-18
  outer loop
   vertex 0.0617319 -0.201609 -0.009
   vertex 0.0591444 -0.219501 0.009
   vertex 0.0591444 -0.219501 -0.009
  endloop
 endfacet
 facet normal 0.991046 -0.133523 0
  outer loop
   vertex 0.0642213 -0.183132 0.009
   vertex 0.0617319 -0.201609 0.009
   vertex 0.0642213 -0.183132 -0.009
  endloop
 endfacet
 facet normal 0.991046 -0.133523 9.0406e-18
  outer loop
   vertex 0.0642213 -0.183132 -0.009
   vertex 0.0617319 -0.201609 0.009
   vertex 0.0617319 -0.201609 -0.009
  endloop
 endfacet
 facet normal 0.992289 -0.123942 0
  outer loop
   vertex 0.0665955 -0.164124 0.009
   vertex 0.0642213 -0.183132 0.009
   vertex 0.0665955 -0.164124 -0.009
  endloop
 endfacet
 facet normal 0.992289 -0.123942 2.8772e-18
  outer loop
   vertex 0.0665955 -0.164124 -0.009
   vertex 0.0642213 -0.183132 0.009
   vertex 0.0642213 -0.183132 -0.009
  endloop
 endfacet
 facet normal 0.99354 -0.113482 0
  outer loop
   vertex 0.0688221 -0.14463 0.009
   vertex 0.0665955 -0.164124 0.009
   vertex 0.0688221 -0.14463 -0.009
  endloop
 endfacet
 facet normal 0.99354 -0.113482 -6.26662e-19
  outer loop
   vertex 0.0688221 -0.14463 -0.009
   vertex 0.0665955 -0.164124 0.009
   vertex 0.0665955 -0.164124 -0.009
  endloop
 endfacet
 facet normal 0.994513 -0.104615 0
  outer loop
   vertex 0.0709191 -0.124695 0.009
   vertex 0.0688221 -0.14463 0.009
   vertex 0.0709191 -0.124695 -0.009
  endloop
 endfacet
 facet normal 0.994513 -0.104615 1.44998e-18
  outer loop
   vertex 0.0709191 -0.124695 -0.009
   vertex 0.0688221 -0.14463 0.009
   vertex 0.0688221 -0.14463 -0.009
  endloop
 endfacet
 facet normal 0.995493 -0.0948362 0
  outer loop
   vertex 0.0728568 -0.104355 0.009
   vertex 0.0709191 -0.124695 0.009
   vertex 0.0728568 -0.104355 -0.009
  endloop
 endfacet
 facet normal 0.995493 -0.0948362 1.38097e-18
  outer loop
   vertex 0.0728568 -0.104355 -0.009
   vertex 0.0709191 -0.124695 0.009
   vertex 0.0709191 -0.124695 -0.009
  endloop
 endfacet
 facet normal 0.996357 -0.0852842 0
  outer loop
   vertex 0.0746271 -0.083673 0.009
   vertex 0.0728568 -0.104355 0.009
   vertex 0.0746271 -0.083673 -0.009
  endloop
 endfacet
 facet normal 0.996357 -0.0852842 -3.0869e-19
  outer loop
   vertex 0.0746271 -0.083673 -0.009
   vertex 0.0728568 -0.104355 0.009
   vertex 0.0728568 -0.104355 -0.009
  endloop
 endfacet
 facet normal 0.997113 -0.0759276 0
  outer loop
   vertex 0.0762246 -0.062694 0.009
   vertex 0.0746271 -0.083673 0.009
   vertex 0.0762246 -0.062694 -0.009
  endloop
 endfacet
 facet normal 0.997113 -0.0759276 -4.16302e-18
  outer loop
   vertex 0.0762246 -0.062694 -0.009
   vertex 0.0746271 -0.083673 0.009
   vertex 0.0746271 -0.083673 -0.009
  endloop
 endfacet
 facet normal 0.997875 -0.0651581 0
  outer loop
   vertex 0.0776115 -0.041454 0.009
   vertex 0.0762246 -0.062694 0.009
   vertex 0.0776115 -0.041454 -0.009
  endloop
 endfacet
 facet normal 0.997875 -0.0651581 -3.04741e-18
  outer loop
   vertex 0.0776115 -0.041454 -0.009
   vertex 0.0762246 -0.062694 0.009
   vertex 0.0762246 -0.062694 -0.009
  endloop
 endfacet
 facet normal 0.99847 -0.0552888 0
  outer loop
   vertex 0.0787986 -0.020016 0.009
   vertex 0.0776115 -0.041454 0.009
   vertex 0.0787986 -0.020016 -0.009
  endloop
 endfacet
 facet normal 0.99847 -0.0552888 1.07128e-18
  outer loop
   vertex 0.0787986 -0.020016 -0.009
   vertex 0.0776115 -0.041454 0.009
   vertex 0.0776115 -0.041454 -0.009
  endloop
 endfacet
 facet normal 0.999061 -0.0433286 0
  outer loop
   vertex 0.0797346 0.001566 0.009
   vertex 0.0787986 -0.020016 0.009
   vertex 0.0797346 0.001566 -0.009
  endloop
 endfacet
 facet normal 0.999061 -0.0433286 2.07753e-18
  outer loop
   vertex 0.0797346 0.001566 -0.009
   vertex 0.0787986 -0.020016 0.009
   vertex 0.0787986 -0.020016 -0.009
  endloop
 endfacet
 facet normal 0.999471 -0.032514 0
  outer loop
   vertex 0.0804402 0.023256 0.009
   vertex 0.0797346 0.001566 0.009
   vertex 0.0804402 0.023256 -0.009
  endloop
 endfacet
 facet normal 0.999471 -0.032514 -4.91077e-19
  outer loop
   vertex 0.0804402 0.023256 -0.009
   vertex 0.0797346 0.001566 0.009
   vertex 0.0797346 0.001566 -0.009
  endloop
 endfacet
 facet normal 0.999808 -0.0195741 0
  outer loop
   vertex 0.0808659 0.045 0.009
   vertex 0.0804402 0.023256 0.009
   vertex 0.0808659 0.045 -0.009
  endloop
 endfacet
 facet normal 0.999808 -0.0195741 0
  outer loop
   vertex 0.0808659 0.045 -0.009
   vertex 0.0804402 0.023256 0.009
   vertex 0.0804402 0.023256 -0.009
  endloop
 endfacet
 facet normal 0.999976 -0.00699492 0
  outer loop
   vertex 0.081018 0.066744 0.009
   vertex 0.0808659 0.045 0.009
   vertex 0.081018 0.066744 -0.009
  endloop
 endfacet
 facet normal 0.999976 -0.00699492 2.42341e-19
  outer loop
   vertex 0.081018 0.066744 -0.009
   vertex 0.0808659 0.045 0.009
   vertex 0.0808659 0.045 -0.009
  endloop
 endfacet
 facet normal 0.999963 0.00854747 0
  outer loop
   vertex 0.0808326 0.088434 0.009
   vertex 0.081018 0.066744 0.009
   vertex 0.0808326 0.088434 -0.009
  endloop
 endfacet
 facet normal 0.999963 0.00854747 1.02753e-18
  outer loop
   vertex 0.0808326 0.088434 -0.009
   vertex 0.081018 0.066744 0.009
   vertex 0.081018 0.066744 -0.009
  endloop
 endfacet
 facet normal 0.999704 0.0243463 0
  outer loop
   vertex 0.080307 0.110016 0.009
   vertex 0.0808326 0.088434 0.009
   vertex 0.080307 0.110016 -0.009
  endloop
 endfacet
 facet normal 0.999704 0.0243463 1.8358e-18
  outer loop
   vertex 0.080307 0.110016 -0.009
   vertex 0.0808326 0.088434 0.009
   vertex 0.0808326 0.088434 -0.009
  endloop
 endfacet
 facet normal 0.999083 0.0428238 0
  outer loop
   vertex 0.0793881 0.131454 0.009
   vertex 0.080307 0.110016 0.009
   vertex 0.0793881 0.131454 -0.009
  endloop
 endfacet
 facet normal 0.999083 0.0428238 -1.39697e-18
  outer loop
   vertex 0.0793881 0.131454 -0.009
   vertex 0.080307 0.110016 0.009
   vertex 0.080307 0.110016 -0.009
  endloop
 endfacet
 facet normal 0.997678 0.0681042 0
  outer loop
   vertex 0.0779382 0.152694 0.009
   vertex 0.0793881 0.131454 0.009
   vertex 0.0779382 0.152694 -0.009
  endloop
 endfacet
 facet normal 0.997678 0.0681042 -6.64025e-18
  outer loop
   vertex 0.0779382 0.152694 -0.009
   vertex 0.0793881 0.131454 0.009
   vertex 0.0793881 0.131454 -0.009
  endloop
 endfacet
 facet normal 0.994944 0.100434 0
  outer loop
   vertex 0.0758205 0.173673 0.009
   vertex 0.0779382 0.152694 0.009
   vertex 0.0758205 0.173673 -0.009
  endloop
 endfacet
 facet normal 0.994944 0.100434 -5.89806e-18
  outer loop
   vertex 0.0758205 0.173673 -0.009
   vertex 0.0779382 0.152694 0.009
   vertex 0.0779382 0.152694 -0.009
  endloop
 endfacet
 facet normal 0.990039 0.140794 0
  outer loop
   vertex 0.0728793 0.194355 0.009
   vertex 0.0758205 0.173673 0.009
   vertex 0.0728793 0.194355 -0.009
  endloop
 endfacet
 facet normal 0.990039 0.140794 6.95585e-18
  outer loop
   vertex 0.0728793 0.194355 -0.009
   vertex 0.0758205 0.173673 0.009
   vertex 0.0758205 0.173673 -0.009
  endloop
 endfacet
 facet normal 0.985464 0.169884 0
  outer loop
   vertex 0.0693729 0.214695 0.009
   vertex 0.0728793 0.194355 0.009
   vertex 0.0693729 0.214695 -0.009
  endloop
 endfacet
 facet normal 0.985464 0.169884 3.53453e-18
  outer loop
   vertex 0.0693729 0.214695 -0.009
   vertex 0.0728793 0.194355 0.009
   vertex 0.0728793 0.194355 -0.009
  endloop
 endfacet
 facet normal 0.980401 0.19701 0
  outer loop
   vertex 0.065367 0.23463 0.009
   vertex 0.0693729 0.214695 0.009
   vertex 0.065367 0.23463 -0.009
  endloop
 endfacet
 facet normal 0.980401 0.19701 5.62637e-18
  outer loop
   vertex 0.065367 0.23463 -0.009
   vertex 0.0693729 0.214695 0.009
   vertex 0.0693729 0.214695 -0.009
  endloop
 endfacet
 facet normal 0.976104 0.217302 0
  outer loop
   vertex 0.0610272 0.254124 0.009
   vertex 0.065367 0.23463 0.009
   vertex 0.0610272 0.254124 -0.009
  endloop
 endfacet
 facet normal 0.976104 0.217302 1.1191e-17
  outer loop
   vertex 0.0610272 0.254124 -0.009
   vertex 0.065367 0.23463 0.009
   vertex 0.065367 0.23463 -0.009
  endloop
 endfacet
 facet normal 0.971289 0.237902 0
  outer loop
   vertex 0.0563715 0.273132 0.009
   vertex 0.0610272 0.254124 0.009
   vertex 0.0563715 0.273132 -0.009
  endloop
 endfacet
 facet normal 0.971289 0.237902 -1.5105e-18
  outer loop
   vertex 0.0563715 0.273132 -0.009
   vertex 0.0610272 0.254124 0.009
   vertex 0.0610272 0.254124 -0.009
  endloop
 endfacet
 facet normal 0.967694 0.252128 0
  outer loop
   vertex 0.0515574 0.291609 0.009
   vertex 0.0563715 0.273132 0.009
   vertex 0.0515574 0.291609 -0.009
  endloop
 endfacet
 facet normal 0.967694 0.252128 -4.28477e-18
  outer loop
   vertex 0.0515574 0.291609 -0.009
   vertex 0.0563715 0.273132 0.009
   vertex 0.0563715 0.273132 -0.009
  endloop
 endfacet
 facet normal 0.964354 0.264615 0
  outer loop
   vertex 0.0466479 0.309501 0.009
   vertex 0.0515574 0.291609 0.009
   vertex 0.0466479 0.309501 -0.009
  endloop
 endfacet
 facet normal 0.964354 0.264615 1.15304e-17
  outer loop
   vertex 0.0466479 0.309501 -0.009
   vertex 0.0515574 0.291609 0.009
   vertex 0.0515574 0.291609 -0.009
  endloop
 endfacet
 facet normal 0.961771 0.273854 0
  outer loop
   vertex 0.0417276 0.326781 0.009
   vertex 0.0466479 0.309501 0.009
   vertex 0.0417276 0.326781 -0.009
  endloop
 endfacet
 facet normal 0.961771 0.273854 9.96157e-18
  outer loop
   vertex 0.0417276 0.326781 -0.009
   vertex 0.0466479 0.309501 0.009
   vertex 0.0466479 0.309501 -0.009
  endloop
 endfacet
 facet normal 0.960224 0.279229 0
  outer loop
   vertex 0.0368937 0.343404 0.009
   vertex 0.0417276 0.326781 0.009
   vertex 0.0368937 0.343404 -0.009
  endloop
 endfacet
 facet normal 0.960224 0.279229 1.29522e-17
  outer loop
   vertex 0.0368937 0.343404 -0.009
   vertex 0.0417276 0.326781 0.009
   vertex 0.0417276 0.326781 -0.009
  endloop
 endfacet
 facet normal 0.959657 0.281175 0
  outer loop
   vertex 0.0322263 0.359334 0.009
   vertex 0.0368937 0.343404 0.009
   vertex 0.0322263 0.359334 -0.009
  endloop
 endfacet
 facet normal 0.959657 0.281175 -1.43197e-17
  outer loop
   vertex 0.0322263 0.359334 -0.009
   vertex 0.0368937 0.343404 0.009
   vertex 0.0368937 0.343404 -0.009
  endloop
 endfacet
 facet normal 0.959899 0.280345 0
  outer loop
   vertex 0.027792 0.374517 0.009
   vertex 0.0322263 0.359334 0.009
   vertex 0.027792 0.374517 -0.009
  endloop
 endfacet
 facet normal 0.959899 0.280345 1.89374e-17
  outer loop
   vertex 0.027792 0.374517 -0.009
   vertex 0.0322263 0.359334 0.009
   vertex 0.0322263 0.359334 -0.009
  endloop
 endfacet
 facet normal 0.960792 0.277269 0
  outer loop
   vertex 0.0236286 0.388944 0.009
   vertex 0.027792 0.374517 0.009
   vertex 0.0236286 0.388944 -0.009
  endloop
 endfacet
 facet normal 0.960792 0.277269 -1.19667e-17
  outer loop
   vertex 0.0236286 0.388944 -0.009
   vertex 0.027792 0.374517 0.009
   vertex 0.027792 0.374517 -0.009
  endloop
 endfacet
 facet normal 0.961739 0.273966 0
  outer loop
   vertex 0.0197496 0.402561 0.009
   vertex 0.0236286 0.388944 0.009
   vertex 0.0197496 0.402561 -0.009
  endloop
 endfacet
 facet normal 0.961739 0.273966 7.79555e-18
  outer loop
   vertex 0.0197496 0.402561 -0.009
   vertex 0.0236286 0.388944 0.009
   vertex 0.0236286 0.388944 -0.009
  endloop
 endfacet
 facet normal 0.962982 0.269566 0
  outer loop
   vertex 0.0161721 0.415341 0.009
   vertex 0.0197496 0.402561 0.009
   vertex 0.0161721 0.415341 -0.009
  endloop
 endfacet
 facet normal 0.962982 0.269566 7.77271e-19
  outer loop
   vertex 0.0161721 0.415341 -0.009
   vertex 0.0197496 0.402561 0.009
   vertex 0.0197496 0.402561 -0.009
  endloop
 endfacet
 facet normal 0.965407 0.260748 0
  outer loop
   vertex 0.0129537 0.427257 0.009
   vertex 0.0161721 0.415341 0.009
   vertex 0.0129537 0.427257 -0.009
  endloop
 endfacet
 facet normal 0.965407 0.260748 0
  outer loop
   vertex 0.0129537 0.427257 -0.009
   vertex 0.0161721 0.415341 0.009
   vertex 0.0161721 0.415341 -0.009
  endloop
 endfacet
 facet normal 0.969289 0.245922 0
  outer loop
   vertex 0.0101565 0.438282 0.009
   vertex 0.0129537 0.427257 0.009
   vertex 0.0101565 0.438282 -0.009
  endloop
 endfacet
 facet normal 0.969289 0.245922 1.12974e-18
  outer loop
   vertex 0.0101565 0.438282 -0.009
   vertex 0.0129537 0.427257 0.009
   vertex 0.0129537 0.427257 -0.009
  endloop
 endfacet
 facet normal 0.974135 0.225968 0
  outer loop
   vertex 0.007812 0.448389 0.009
   vertex 0.0101565 0.438282 0.009
   vertex 0.007812 0.448389 -0.009
  endloop
 endfacet
 facet normal 0.974135 0.225968 -5.47853e-19
  outer loop
   vertex 0.007812 0.448389 -0.009
   vertex 0.0101565 0.438282 0.009
   vertex 0.0101565 0.438282 -0.009
  endloop
 endfacet
 facet normal 0.978864 0.204514 0
  outer loop
   vertex 0.0058959 0.45756 0.009
   vertex 0.007812 0.448389 0.009
   vertex 0.0058959 0.45756 -0.009
  endloop
 endfacet
 facet normal 0.978864 0.204514 -1.09038e-18
  outer loop
   vertex 0.0058959 0.45756 -0.009
   vertex 0.007812 0.448389 0.009
   vertex 0.007812 0.448389 -0.009
  endloop
 endfacet
 facet normal 0.984292 0.176546 0
  outer loop
   vertex 0.0044253 0.465759 0.009
   vertex 0.0058959 0.45756 0.009
   vertex 0.0044253 0.465759 -0.009
  endloop
 endfacet
 facet normal 0.984292 0.176546 -1.36542e-18
  outer loop
   vertex 0.0044253 0.465759 -0.009
   vertex 0.0058959 0.45756 0.009
   vertex 0.0058959 0.45756 -0.009
  endloop
 endfacet
 facet normal 0.987213 0.159406 0
  outer loop
   vertex 0.0032598 0.472977 0.009
   vertex 0.0044253 0.465759 0.009
   vertex 0.0032598 0.472977 -0.009
  endloop
 endfacet
 facet normal 0.987213 0.159406 -2.92034e-19
  outer loop
   vertex 0.0032598 0.472977 -0.009
   vertex 0.0044253 0.465759 0.009
   vertex 0.0044253 0.465759 -0.009
  endloop
 endfacet
 facet normal 0.989218 0.146451 0
  outer loop
   vertex 0.0023391 0.479196 0.009
   vertex 0.0032598 0.472977 0.009
   vertex 0.0023391 0.479196 -0.009
  endloop
 endfacet
 facet normal 0.989218 0.146451 -2.28612e-18
  outer loop
   vertex 0.0023391 0.479196 -0.009
   vertex 0.0032598 0.472977 0.009
   vertex 0.0032598 0.472977 -0.009
  endloop
 endfacet
 facet normal 0.989236 0.146332 0
  outer loop
   vertex 0.0015696 0.484398 0.009
   vertex 0.0023391 0.479196 0.009
   vertex 0.0015696 0.484398 -0.009
  endloop
 endfacet
 facet normal 0.989236 0.146332 2.89972e-18
  outer loop
   vertex 0.0015696 0.484398 -0.009
   vertex 0.0023391 0.479196 0.009
   vertex 0.0023391 0.479196 -0.009
  endloop
 endfacet
 facet normal 0.989185 0.146671 0
  outer loop
   vertex 0.0009504 0.488574 0.009
   vertex 0.0015696 0.484398 0.009
   vertex 0.0009504 0.488574 -0.009
  endloop
 endfacet
 facet normal 0.989185 0.146671 7.8717e-19
  outer loop
   vertex 0.0009504 0.488574 -0.009
   vertex 0.0015696 0.484398 0.009
   vertex 0.0015696 0.484398 -0.009
  endloop
 endfacet
 facet normal 0.989246 0.146262 0
  outer loop
   vertex 0.000486 0.491715 0.009
   vertex 0.0009504 0.488574 0.009
   vertex 0.000486 0.491715 -0.009
  endloop
 endfacet
 facet normal 0.989246 0.146262 -1.05025e-19
  outer loop
   vertex 0.000486 0.491715 -0.009
   vertex 0.0009504 0.488574 0.009
   vertex 0.0009504 0.488574 -0.009
  endloop
 endfacet
 facet normal 0.989244 0.146272 0
  outer loop
   vertex 0.0001746 0.493821 0.009
   vertex 0.000486 0.491715 0.009
   vertex 0.0001746 0.493821 -0.009
  endloop
 endfacet
 facet normal 0.989244 0.146272 -6.65197e-19
  outer loop
   vertex 0.0001746 0.493821 -0.009
   vertex 0.000486 0.491715 0.009
   vertex 0.000486 0.491715 -0.009
  endloop
 endfacet
 facet normal 0.989211 0.146495 0
  outer loop
   vertex 3.031e-17 0.495 0.009
   vertex 0.0001746 0.493821 0.009
   vertex 3.031e-17 0.495 -0.009
  endloop
 endfacet
 facet normal 0.989211 0.146495 -3.23687e-19
  outer loop
   vertex 3.031e-17 0.495 -0.009
   vertex 0.0001746 0.493821 0.009
   vertex 0.0001746 0.493821 -0.009
  endloop
 endfacet
 facet normal 0 -0 1
  outer loop
   vertex 4.32243e-18 0.045 0.009
   vertex 3.031e-17 0.495 0.009
   vertex -0.0001746 0.493821 0.009
  endloop
 endfacet
 facet normal 0 0 1
  outer loop
   vertex 4.32243e-18 0.045 0.009
   vertex -0.0001746 0.493821 0.009
   vertex -0.000486 0.491715 0.009
  endloop
 endfacet
 facet normal 0 0 1
  outer loop
   vertex 4.32243e-18 0.045 0.009
   vertex -0.000486 0.491715 0.009
   vertex -0.0009504 0.488574 0.009
  endloop
 endfacet
 facet normal 0 0 1
  outer loop
   vertex 4.32243e-18 0.045 0.009
   vertex -0.0009504 0.488574 0.009
   vertex -0.0015696 0.484398 0.009
  endloop
 endfacet
 facet normal 0 0 1
  outer loop
   vertex 4.32243e-18 0.045 0.009
   vertex -0.0015696 0.484398 0.009
   vertex -0.0023391 0.479196 0.009
  endloop
 endfacet
 facet normal 0 0 1
  outer loop
   vertex 4.32243e-18 0.045 0.009
   vertex -0.0023391 0.479196 0.009
   vertex -0.0032598 0.472977 0.009
  endloop
 endfacet
 facet normal 0 0 1
  outer loop
   vertex 4.32243e-18 0.045 0.009
   vertex -0.0032598 0.472977 0.009
   vertex -0.0044253 0.465759 0.009
  endloop
 endfacet
 facet normal 0 0 1
  outer loop
   vertex 4.32243e-18 0.045 0.009
   vertex -0.0044253 0.465759 0.009
   vertex -0.0058959 0.45756 0.009
  endloop
 endfacet
 facet normal 0 0 1
  outer loop
   vertex 4.32243e-18 0.045 0.009
   vertex -0.0058959 0.45756 0.009
   vertex -0.007812 0.448389 0.009
  endloop
 endfacet
 facet normal 0 0 1
  outer loop
   vertex 4.32243e-18 0.045 0.009
   vertex -0.007812 0.448389 0.009
   vertex -0.0101565 0.438282 0.009
  endloop
 endfacet
 facet normal 0 0 1
  outer loop
   vertex 4.32243e-18 0.045 0.009
   vertex -0.0101565 0.438282 0.009
   vertex -0.0129537 0.427257 0.009
  endloop
 endfacet
 facet normal 0 0 1
  outer loop
   vertex 4.32243e-18 0.045 0.009
   vertex -0.0129537 0.427257 0.009
   vertex -0.0161721 0.415341 0.009
  endloop
 endfacet
 facet normal 0 0 1
  outer loop
   vertex 4.32243e-18 0.045 0.009
   vertex -0.0161721 0.415341 0.009
   vertex -0.0197496 0.402561 0.009
  endloop
 endfacet
 facet normal 0 0 1
  outer loop
   vertex 4.32243e-18 0.045 0.009
   vertex -0.0197496 0.402561 0.009
   vertex -0.0236286 0.388944 0.009
  endloop
 endfacet
 facet normal 0 0 1
  outer loop
   vertex 4.32243e-18 0.045 0.009
   vertex -0.0236286 0.388944 0.009
   vertex -0.027792 0.374517 0.009
  endloop
 endfacet
 facet normal 0 0 1
  outer loop
   vertex 4.32243e-18 0.045 0.009
   vertex -0.027792 0.374517 0.009
   vertex -0.0322263 0.359334 0.009
  endloop
 endfacet
 facet normal 0 0 1
  outer loop
   vertex 4.32243e-18 0.045 0.009
   vertex -0.0322263 0.359334 0.009
   vertex -0.0368937 0.343404 0.009
  endloop
 endfacet
 facet normal 0 0 1
  outer loop
   vertex 4.32243e-18 0.045 0.009
   vertex -0.0368937 0.343404 0.009
   vertex -0.0417276 0.326781 0.009
  endloop
 endfacet
 facet normal 0 0 1
  outer loop
   vertex 4.32243e-18 0.045 0.009
   vertex -0.0417276 0.326781 0.009
   vertex -0.0466479 0.309501 0.009
  endloop
 endfacet
 facet normal 0 0 1
  outer loop
   vertex 4.32243e-18 0.045 0.009
   vertex -0.0466479 0.309501 0.009
   vertex -0.0515574 0.291609 0.009
  endloop
 endfacet
 facet normal 0 0 1
  outer loop
   vertex 4.32243e-18 0.045 0.009
   vertex -0.0515574 0.291609 0.009
   vertex -0.0563715 0.273132 0.009
  endloop
 endfacet
 facet normal 0 0 1
  outer loop
   vertex 4.32243e-18 0.045 0.009
   vertex -0.0563715 0.273132 0.009
   vertex -0.0610272 0.254124 0.009
  endloop
 endfacet
 facet normal 0 0 1
  outer loop
   vertex 4.32243e-18 0.045 0.009
   vertex -0.0610272 0.254124 0.009
   vertex -0.065367 0.23463 0.009
  endloop
 endfacet
 facet normal 0 0 1
  outer loop
   vertex 4.32243e-18 0.045 0.009
   vertex -0.065367 0.23463 0.009
   vertex -0.0693729 0.214695 0.009
  endloop
 endfacet
 facet normal 0 0 1
  outer loop
   vertex 4.32243e-18 0.045 0.009
   vertex -0.0693729 0.214695 0.009
   vertex -0.0728793 0.194355 0.009
  endloop
 endfacet
 facet normal 0 0 1
  outer loop
   vertex 4.32243e-18 0.045 0.009
   vertex -0.0728793 0.194355 0.009
   vertex -0.0758205 0.173673 0.009
  endloop
 endfacet
 facet normal 0 0 1
  outer loop
   vertex 4.32243e-18 0.045 0.009
   vertex -0.0758205 0.173673 0.009
   vertex -0.0779382 0.152694 0.009
  endloop
 endfacet
 facet normal 0 0 1
  outer loop
   vertex 4.32243e-18 0.045 0.009
   vertex -0.0779382 0.152694 0.009
   vertex -0.0793881 0.131454 0.009
  endloop
 endfacet
 facet normal 0 0 1
  outer loop
   vertex 4.32243e-18 0.045 0.009
   vertex -0.0793881 0.131454 0.009
   vertex -0.080307 0.110016 0.009
  endloop
 endfacet
 facet normal 0 0 1
  outer loop
   vertex 4.32243e-18 0.045 0.009
   vertex -0.080307 0.110016 0.009
   vertex -0.0808326 0.088434 0.009
  endloop
 endfacet
 facet normal 0 0 1
  outer loop
   vertex 4.32243e-18 0.045 0.009
   vertex -0.0808326 0.088434 0.009
   vertex -0.081018 0.066744 0.009
  endloop
 endfacet
 facet normal 0 0 1
  outer loop
   vertex 4.32243e-18 0.045 0.009
   vertex -0.081018 0.066744 0.009
   vertex -0.0808659 0.045 0.009
  endloop
 endfacet
 facet normal 0 0 1
  outer loop
   vertex 4.32243e-18 0.045 0.009
   vertex -0.0808659 0.045 0.009
   vertex -0.0804402 0.023256 0.009
  endloop
 endfacet
 facet normal 0 0 1
  outer loop
   vertex 4.32243e-18 0.045 0.009
   vertex -0.0804402 0.023256 0.009
   vertex -0.0797346 0.001566 0.009
  endloop
 endfacet
 facet normal 0 0 1
  outer loop
   vertex 4.32243e-18 0.045 0.009
   vertex -0.0797346 0.001566 0.009
   vertex -0.0787986 -0.020016 0.009
  endloop
 endfacet
 facet normal 0 0 1
  outer loop
   vertex 4.32243e-18 0.045 0.009
   vertex -0.0787986 -0.020016 0.009
   vertex -0.0776115 -0.041454 0.009
  endloop
 endfacet
 facet normal 0 0 1
  outer loop
   vertex 4.32243e-18 0.045 0.009
   vertex -0.0776115 -0.041454 0.009
   vertex -0.0762246 -0.062694 0.009
  endloop
 endfacet
 facet normal 0 0 1
  outer loop
   vertex 4.32243e-18 0.045 0.009
   vertex -0.0762246 -0.062694 0.009
   vertex -0.0746271 -0.083673 0.009
  endloop
 endfacet
 facet normal 0 0 1
  outer loop
   vertex 4.32243e-18 0.045 0.009
   vertex -0.0746271 -0.083673 0.009
   vertex -0.0728568 -0.104355 0.009
  endloop
 endfacet
 facet normal 0 0 1
  outer loop
   vertex 4.32243e-18 0.045 0.009
   vertex -0.0728568 -0.104355 0.009
   vertex -0.0709191 -0.124695 0.009
  endloop
 endfacet
 facet normal 0 0 1
  outer loop
   vertex 4.32243e-18 0.045 0.009
   vertex -0.0709191 -0.124695 0.009
   vertex -0.0688221 -0.14463 0.009
  endloop
 endfacet
 facet normal 0 0 1
  outer loop
   vertex 4.32243e-18 0.045 0.009
   vertex -0.0688221 -0.14463 0.009
   vertex -0.0665955 -0.164124 0.009
  endloop
 endfacet
 facet normal 0 0 1
  outer loop
   vertex 4.32243e-18 0.045 0.009
   vertex -0.0665955 -0.164124 0.009
   vertex -0.0642213 -0.183132 0.009
  endloop
 endfacet
 facet normal 0 0 1
  outer loop
   vertex 4.32243e-18 0.045 0.009
   vertex -0.0642213 -0.183132 0.009
   vertex -0.0617319 -0.201609 0.009
  endloop
 endfacet
 facet normal 0 0 1
  outer loop
   vertex 4.32243e-18 0.045 0.009
   vertex -0.0617319 -0.201609 0.009
   vertex -0.0591444 -0.219501 0.009
  endloop
 endfacet
 facet normal 0 0 1
  outer loop
   vertex 4.32243e-18 0.045 0.009
   vertex -0.0591444 -0.219501 0.009
   vertex -0.0564615 -0.236781 0.009
  endloop
 endfacet
 facet normal 0 0 1
  outer loop
   vertex 4.32243e-18 0.045 0.009
   vertex -0.0564615 -0.236781 0.009
   vertex -0.0536715 -0.253404 0.009
  endloop
 endfacet
 facet normal 0 0 1
  outer loop
   vertex 4.32243e-18 0.045 0.009
   vertex -0.0536715 -0.253404 0.009
   vertex -0.0508068 -0.269334 0.009
  endloop
 endfacet
 facet normal 0 0 1
  outer loop
   vertex 4.32243e-18 0.045 0.009
   vertex -0.0508068 -0.269334 0.009
   vertex -0.0478746 -0.284517 0.009
  endloop
 endfacet
 facet normal 0 0 1
  outer loop
   vertex 4.32243e-18 0.045 0.009
   vertex -0.0478746 -0.284517 0.009
   vertex -0.0448875 -0.298944 0.009
  endloop
 endfacet
 facet normal 0 0 1
  outer loop
   vertex 4.32243e-18 0.045 0.009
   vertex -0.0448875 -0.298944 0.009
   vertex -0.0418617 -0.312561 0.009
  endloop
 endfacet
 facet normal 0 0 1
  outer loop
   vertex 4.32243e-18 0.045 0.009
   vertex -0.0418617 -0.312561 0.009
   vertex -0.0388188 -0.325343 0.009
  endloop
 endfacet
 facet normal 0 0 1
  outer loop
   vertex 4.32243e-18 0.045 0.009
   vertex -0.0388188 -0.325343 0.009
   vertex -0.0357768 -0.337261 0.009
  endloop
 endfacet
 facet normal 0 0 1
  outer loop
   vertex 4.32243e-18 0.045 0.009
   vertex -0.0357768 -0.337261 0.009
   vertex -0.0327456 -0.348286 0.009
  endloop
 endfacet
 facet normal 0 0 1
  outer loop
   vertex 4.32243e-18 0.045 0.009
   vertex -0.0327456 -0.348286 0.009
   vertex -0.0297297 -0.358392 0.009
  endloop
 endfacet
 facet normal 0 0 1
  outer loop
   vertex 4.32243e-18 0.045 0.009
   vertex -0.0297297 -0.358392 0.009
   vertex -0.0267381 -0.367556 0.009
  endloop
 endfacet
 facet normal 0 0 1
  outer loop
   vertex 4.32243e-18 0.045 0.009
   vertex -0.0267381 -0.367556 0.009
   vertex -0.0237924 -0.375757 0.009
  endloop
 endfacet
 facet normal 0 0 1
  outer loop
   vertex 4.32243e-18 0.045 0.009
   vertex -0.0237924 -0.375757 0.009
   vertex -0.0208566 -0.382975 0.009
  endloop
 endfacet
 facet normal 0 0 1
  outer loop
   vertex 4.32243e-18 0.045 0.009
   vertex -0.0208566 -0.382975 0.009
   vertex -0.0179415 -0.389194 0.009
  endloop
 endfacet
 facet normal 0 0 1
  outer loop
   vertex 4.32243e-18 0.045 0.009
   vertex -0.0179415 -0.389194 0.009
   vertex -0.0149049 -0.394399 0.009
  endloop
 endfacet
 facet normal 0 0 1
  outer loop
   vertex 4.32243e-18 0.045 0.009
   vertex -0.0149049 -0.394399 0.009
   vertex -0.0117063 -0.398577 0.009
  endloop
 endfacet
 facet normal 0 0 1
  outer loop
   vertex 4.32243e-18 0.045 0.009
   vertex -0.0117063 -0.398577 0.009
   vertex -0.0083745 -0.401719 0.009
  endloop
 endfacet
 facet normal 0 0 1
  outer loop
   vertex 4.32243e-18 0.045 0.009
   vertex -0.0083745 -0.401719 0.009
   vertex -0.0049716 -0.403818 0.009
  endloop
 endfacet
 facet normal 0 0 1
  outer loop
   vertex 4.32243e-18 0.045 0.009
   vertex -0.0049716 -0.403818 0.009
   vertex -2.47991e-17 -0.405 0.009
  endloop
 endfacet
 facet normal 0 0 1
  outer loop
   vertex 4.32243e-18 0.045 0.009
   vertex -2.47991e-17 -0.405 0.009
   vertex 0.0049716 -0.403818 0.009
  endloop
 endfacet
 facet normal 0 0 1
  outer loop
   vertex 4.32243e-18 0.045 0.009
   vertex 0.0049716 -0.403818 0.009
   vertex 0.0083745 -0.401719 0.009
  endloop
 endfacet
 facet normal 0 0 1
  outer loop
   vertex 4.32243e-18 0.045 0.009
   vertex 0.0083745 -0.401719 0.009
   vertex 0.0117063 -0.398577 0.009
  endloop
 endfacet
 facet normal 0 0 1
  outer loop
   vertex 4.32243e-18 0.045 0.009
   vertex 0.0117063 -0.398577 0.009
   vertex 0.0149049 -0.394399 0.009
  endloop
 endfacet
 facet normal 0 0 1
  outer loop
   vertex 4.32243e-18 0.045 0.009
   vertex 0.0149049 -0.394399 0.009
   vertex 0.0179415 -0.389194 0.009
  endloop
 endfacet
 facet normal 0 0 1
  outer loop
   vertex 4.32243e-18 0.045 0.009
   vertex 0.0179415 -0.389194 0.009
   vertex 0.0208566 -0.382975 0.009
  endloop
 endfacet
 facet normal 0 0 1
  outer loop
   vertex 4.32243e-18 0.045 0.009
   vertex 0.0208566 -0.382975 0.009
   vertex 0.0237924 -0.375757 0.009
  endloop
 endfacet
 facet normal 0 0 1
  outer loop
   vertex 4.32243e-18 0.045 0.009
   vertex 0.0237924 -0.375757 0.009
   vertex 0.0267381 -0.367556 0.009
  endloop
 endfacet
 facet normal 0 0 1
  outer loop
   vertex 4.32243e-18 0.045 0.009
   vertex 0.0267381 -0.367556 0.009
   vertex 0.0297297 -0.358392 0.009
  endloop
 endfacet
 facet normal 0 0 1
  outer loop
   vertex 4.32243e-18 0.045 0.009
   vertex 0.0297297 -0.358392 0.009
   vertex 0.0327456 -0.348286 0.009
  endloop
 endfacet
 facet normal 0 0 1
  outer loop
   vertex 4.32243e-18 0.045 0.009
   vertex 0.0327456 -0.348286 0.009
   vertex 0.0357768 -0.337261 0.009
  endloop
 endfacet
 facet normal 0 0 1
  outer loop
   vertex 4.32243e-18 0.045 0.009
   vertex 0.0357768 -0.337261 0.009
   vertex 0.0388188 -0.325343 0.009
  endloop
 endfacet
 facet normal 0 0 1
  outer loop
   vertex 4.32243e-18 0.045 0.009
   vertex 0.0388188 -0.325343 0.009
   vertex 0.0418617 -0.312561 0.009
  endloop
 endfacet
 facet normal 0 0 1
  outer loop
   vertex 4.32243e-18 0.045 0.009
   vertex 0.0418617 -0.312561 0.009
   vertex 0.0448875 -0.298944 0.009
  endloop
 endfacet
 facet normal 0 0 1
  outer loop
   vertex 4.32243e-18 0.045 0.009
   vertex 0.0448875 -0.298944 0.009
   vertex 0.0478746 -0.284517 0.009
  endloop
 endfacet
 facet normal 0 0 1
  outer loop
   vertex 4.32243e-18 0.045 0.009
   vertex 0.0478746 -0.284517 0.009
   vertex 0.0508068 -0.269334 0.009
  endloop
 endfacet
 facet normal 0 0 1
  outer loop
   vertex 4.32243e-18 0.045 0.009
   vertex 0.0508068 -0.269334 0.009
   vertex 0.0536715 -0.253404 0.009
  endloop
 endfacet
 facet normal 0 0 1
  outer loop
   vertex 4.32243e-18 0.045 0.009
   vertex 0.0536715 -0.253404 0.009
   vertex 0.0564615 -0.236781 0.009
  endloop
 endfacet
 facet normal 0 0 1
  outer loop
   vertex 4.32243e-18 0.045 0.009
   vertex 0.0564615 -0.236781 0.009
   vertex 0.0591444 -0.219501 0.009
  endloop
 endfacet
 facet normal 0 0 1
  outer loop
   vertex 4.32243e-18 0.045 0.009
   vertex 0.0591444 -0.219501 0.009
   vertex 0.0617319 -0.201609 0.009
  endloop
 endfacet
 facet normal 0 0 1
  outer loop
   vertex 4.32243e-18 0.045 0.009
   vertex 0.0617319 -0.201609 0.009
   vertex 0.0642213 -0.183132 0.009
  endloop
 endfacet
 facet normal 0 0 1
  outer loop
   vertex 4.32243e-18 0.045 0.009
   vertex 0.0642213 -0.183132 0.009
   vertex 0.0665955 -0.164124 0.009
  endloop
 endfacet
 facet normal 0 0 1
  outer loop
   vertex 4.32243e-18 0.045 0.009
   vertex 0.0665955 -0.164124 0.009
   vertex 0.0688221 -0.14463 0.009
  endloop
 endfacet
 facet normal 0 0 1
  outer loop
   vertex 4.32243e-18 0.045 0.009
   vertex 0.0688221 -0.14463 0.009
   vertex 0.0709191 -0.124695 0.009
  endloop
 endfacet
 facet normal 0 0 1
  outer loop
   vertex 4.32243e-18 0.045 0.009
   vertex 0.0709191 -0.124695 0.009
   vertex 0.0728568 -0.104355 0.009
  endloop
 endfacet
 facet normal 0 0 1
  outer loop
   vertex 4.32243e-18 0.045 0.009
   vertex 0.0728568 -0.104355 0.009
   vertex 0.0746271 -0.083673 0.009
  endloop
 endfacet
 facet normal 0 0 1
  outer loop
   vertex 4.32243e-18 0.045 0.009
   vertex 0.0746271 -0.083673 0.009
   vertex 0.0762246 -0.062694 0.009
  endloop
 endfacet
 facet normal 0 0 1
  outer loop
   vertex 4.32243e-18 0.045 0.009
   vertex 0.0762246 -0.062694 0.009
   vertex 0.0776115 -0.041454 0.009
  endloop
 endfacet
 facet normal 0 0 1
  outer loop
   vertex 4.32243e-18 0.045 0.009
   vertex 0.0776115 -0.041454 0.009
   vertex 0.0787986 -0.020016 0.009
  endloop
 endfacet
 facet normal 0 0 1
  outer loop
   vertex 4.32243e-18 0.045 0.009
   vertex 0.0787986 -0.020016 0.009
   vertex 0.0797346 0.001566 0.009
  endloop
 endfacet
 facet normal 0 0 1
  outer loop
   vertex 4.32243e-18 0.045 0.009
   vertex 0.0797346 0.001566 0.009
   vertex 0.0804402 0.023256 0.009
  endloop
 endfacet
 facet normal 0 0 1
  outer loop
   vertex 4.32243e-18 0.045 0.009
   vertex 0.0804402 0.023256 0.009
   vertex 0.0808659 0.045 0.009
  endloop
 endfacet
 facet normal -0 0 1
  outer loop
   vertex 4.32243e-18 0.045 0.009
   vertex 0.0808659 0.045 0.009
   vertex 0.081018 0.066744 0.009
  endloop
 endfacet
 facet normal 0 0 1
  outer loop
   vertex 4.32243e-18 0.045 0.009
   vertex 0.081018 0.066744 0.009
   vertex 0.0808326 0.088434 0.009
  endloop
 endfacet
 facet normal 0 0 1
  outer loop
   vertex 4.32243e-18 0.045 0.009
   vertex 0.0808326 0.088434 0.009
   vertex 0.080307 0.110016 0.009
  endloop
 endfacet
 facet normal 0 0 1
  outer loop
   vertex 4.32243e-18 0.045 0.009
   vertex 0.080307 0.110016 0.009
   vertex 0.0793881 0.131454 0.009
  endloop
 endfacet
 facet normal 0 0 1
  outer loop
   vertex 4.32243e-18 0.045 0.009
   vertex 0.0793881 0.131454 0.009
   vertex 0.0779382 0.152694 0.009
  endloop
 endfacet
 facet normal 0 0 1
  outer loop
   vertex 4.32243e-18 0.045 0.009
   vertex 0.0779382 0.152694 0.009
   vertex 0.0758205 0.173673 0.009
  endloop
 endfacet
 facet normal 0 0 1
  outer loop
   vertex 4.32243e-18 0.045 0.009
   vertex 0.0758205 0.173673 0.009
   vertex 0.0728793 0.194355 0.009
  endloop
 endfacet
 facet normal 0 0 1
  outer loop
   vertex 4.32243e-18 0.045 0.009
   vertex 0.0728793 0.194355 0.009
   vertex 0.0693729 0.214695 0.009
  endloop
 endfacet
 facet normal 0 0 1
  outer loop
   vertex 4.32243e-18 0.045 0.009
   vertex 0.0693729 0.214695 0.009
   vertex 0.065367 0.23463 0.009
  endloop
 endfacet
 facet normal 0 0 1
  outer loop
   vertex 4.32243e-18 0.045 0.009
   vertex 0.065367 0.23463 0.009
   vertex 0.0610272 0.254124 0.009
  endloop
 endfacet
 facet normal 0 0 1
  outer loop
   vertex 4.32243e-18 0.045 0.009
   vertex 0.0610272 0.254124 0.009
   vertex 0.0563715 0.273132 0.009
  endloop
 endfacet
 facet normal 0 0 1
  outer loop
   vertex 4.32243e-18 0.045 0.009
   vertex 0.0563715 0.273132 0.009
   vertex 0.0515574 0.291609 0.009
  endloop
 endfacet
 facet normal 0 0 1
  outer loop
   vertex 4.32243e-18 0.045 0.009
   vertex 0.0515574 0.291609 0.009
   vertex 0.0466479 0.309501 0.009
  endloop
 endfacet
 facet normal 0 0 1
  outer loop
   vertex 4.32243e-18 0.045 0.009
   vertex 0.0466479 0.309501 0.009
   vertex 0.0417276 0.326781 0.009
  endloop
 endfacet
 facet normal 0 0 1
  outer loop
   vertex 4.32243e-18 0.045 0.009
   vertex 0.0417276 0.326781 0.009
   vertex 0.0368937 0.343404 0.009
  endloop
 endfacet
 facet normal 0 0 1
  outer loop
   vertex 4.32243e-18 0.045 0.009
   vertex 0.0368937 0.343404 0.009
   vertex 0.0322263 0.359334 0.009
  endloop
 endfacet
 facet normal 0 0 1
  outer loop
   vertex 4.32243e-18 0.045 0.009
   vertex 0.0322263 0.359334 0.009
   vertex 0.027792 0.374517 0.009
  endloop
 endfacet
 facet normal 0 0 1
  outer loop
   vertex 4.32243e-18 0.045 0.009
   vertex 0.027792 0.374517 0.009
   vertex 0.0236286 0.388944 0.009
  endloop
 endfacet
 facet normal 0 0 1
  outer loop
   vertex 4.32243e-18 0.045 0.009
   vertex 0.0236286 0.388944 0.009
   vertex 0.0197496 0.402561 0.009
  endloop
 endfacet
 facet normal 0 0 1
  outer loop
   vertex 4.32243e-18 0.045 0.009
   vertex 0.0197496 0.402561 0.009
   vertex 0.0161721 0.415341 0.009
  endloop
 endfacet
 facet normal 0 0 1
  outer loop
   vertex 4.32243e-18 0.045 0.009
   vertex 0.0161721 0.415341 0.009
   vertex 0.0129537 0.427257 0.009
  endloop
 endfacet
 facet normal 0 0 1
  outer loop
   vertex 4.32243e-18 0.045 0.009
   vertex 0.0129537 0.427257 0.009
   vertex 0.0101565 0.438282 0.009
  endloop
 endfacet
 facet normal 0 0 1
  outer loop
   vertex 4.32243e-18 0.045 0.009
   vertex 0.0101565 0.438282 0.009
   vertex 0.007812 0.448389 0.009
  endloop
 endfacet
 facet normal 0 0 1
  outer loop
   vertex 4.32243e-18 0.045 0.009
   vertex 0.007812 0.448389 0.009
   vertex 0.0058959 0.45756 0.009
  endloop
 endfacet
 facet normal 0 0 1
  outer loop
   vertex 4.32243e-18 0.045 0.009
   vertex 0.0058959 0.45756 0.009
   vertex 0.0044253 0.465759 0.009
  endloop
 endfacet
 facet normal 0 0 1
  outer loop
   vertex 4.32243e-18 0.045 0.009
   vertex 0.0044253 0.465759 0.009
   vertex 0.0032598 0.472977 0.009
  endloop
 endfacet
 facet normal 0 0 1
  outer loop
   vertex 4.32243e-18 0.045 0.009
   vertex 0.0032598 0.472977 0.009
   vertex 0.0023391 0.479196 0.009
  endloop
 endfacet
 facet normal 0 0 1
  outer loop
   vertex 4.32243e-18 0.045 0.009
   vertex 0.0023391 0.479196 0.009
   vertex 0.0015696 0.484398 0.009
  endloop
 endfacet
 facet normal 0 0 1
  outer loop
   vertex 4.32243e-18 0.045 0.009
   vertex 0.0015696 0.484398 0.009
   vertex 0.0009504 0.488574 0.009
  endloop
 endfacet
 facet normal 0 0 1
  outer loop
   vertex 4.32243e-18 0.045 0.009
   vertex 0.0009504 0.488574 0.009
   vertex 0.000486 0.491715 0.009
  endloop
 endfacet
 facet normal 0 0 1
  outer loop
   vertex 4.32243e-18 0.045 0.009
   vertex 0.000486 0.491715 0.009
   vertex 0.0001746 0.493821 0.009
  endloop
 endfacet
 facet normal 0 0 1
  outer loop
   vertex 4.32243e-18 0.045 0.009
   vertex 0.0001746 0.493821 0.009
   vertex 3.031e-17 0.495 0.009
  endloop
 endfacet
 facet normal 0 0 -1
  outer loop
   vertex 4.32243e-18 0.045 -0.009
   vertex -0.0001746 0.493821 -0.009
   vertex 3.031e-17 0.495 -0.009
  endloop
 endfacet
 facet normal 0 0 -1
  outer loop
   vertex 4.32243e-18 0.045 -0.009
   vertex -0.000486 0.491715 -0.009
   vertex -0.0001746 0.493821 -0.009
  endloop
 endfacet
 facet normal 0 0 -1
  outer loop
   vertex 4.32243e-18 0.045 -0.009
   vertex -0.0009504 0.488574 -0.009
   vertex -0.000486 0.491715 -0.009
  endloop
 endfacet
 facet normal 0 0 -1
  outer loop
   vertex 4.32243e-18 0.045 -0.009
   vertex -0.0015696 0.484398 -0.009
   vertex -0.0009504 0.488574 -0.009
  endloop
 endfacet
 facet normal 0 0 -1
  outer loop
   vertex 4.32243e-18 0.045 -0.009
   vertex -0.0023391 0.479196 -0.009
   vertex -0.0015696 0.484398 -0.009
  endloop
 endfacet
 facet normal 0 0 -1
  outer loop
   vertex 4.32243e-18 0.045 -0.009
   vertex -0.0032598 0.472977 -0.009
   vertex -0.0023391 0.479196 -0.009
  endloop
 endfacet
 facet normal 0 0 -1
  outer loop
   vertex 4.32243e-18 0.045 -0.009
   vertex -0.0044253 0.465759 -0.009
   vertex -0.0032598 0.472977 -0.009
  endloop
 endfacet
 facet normal 0 0 -1
  outer loop
   vertex 4.32243e-18 0.045 -0.009
   vertex -0.0058959 0.45756 -0.009
   vertex -0.0044253 0.465759 -0.009
  endloop
 endfacet
 facet normal 0 0 -1
  outer loop
   vertex 4.32243e-18 0.045 -0.009
   vertex -0.007812 0.448389 -0.009
   vertex -0.0058959 0.45756 -0.009
  endloop
 endfacet
 facet normal 0 0 -1
  outer loop
   vertex 4.32243e-18 0.045 -0.009
   vertex -0.0101565 0.438282 -0.009
   vertex -0.007812 0.448389 -0.009
  endloop
 endfacet
 facet normal 0 0 -1
  outer loop
   vertex 4.32243e-18 0.045 -0.009
   vertex -0.0129537 0.427257 -0.009
   vertex -0.0101565 0.438282 -0.009
  endloop
 endfacet
 facet normal 0 0 -1
  outer loop
   vertex 4.32243e-18 0.045 -0.009
   vertex -0.0161721 0.415341 -0.009
   vertex -0.0129537 0.427257 -0.009
  endloop
 endfacet
 facet normal 0 0 -1
  outer loop
   vertex 4.32243e-18 0.045 -0.009
   vertex -0.0197496 0.402561 -0.009
   vertex -0.0161721 0.415341 -0.009
  endloop
 endfacet
 facet normal 0 0 -1
  outer loop
   vertex 4.32243e-18 0.045 -0.009
   vertex -0.0236286 0.388944 -0.009
   vertex -0.0197496 0.402561 -0.009
  endloop
 endfacet
 facet normal 0 0 -1
  outer loop
   vertex 4.32243e-18 0.045 -0.009
   vertex -0.027792 0.374517 -0.009
   vertex -0.0236286 0.388944 -0.009
  endloop
 endfacet
 facet normal 0 0 -1
  outer loop
   vertex 4.32243e-18 0.045 -0.009
   vertex -0.0322263 0.359334 -0.009
   vertex -0.027792 0.374517 -0.009
  endloop
 endfacet
 facet normal 0 0 -1
  outer loop
   vertex 4.32243e-18 0.045 -0.009
   vertex -0.0368937 0.343404 -0.009
   vertex -0.0322263 0.359334 -0.009
  endloop
 endfacet
 facet normal 0 0 -1
  outer loop
   vertex 4.32243e-18 0.045 -0.009
   vertex -0.0417276 0.326781 -0.009
   vertex -0.0368937 0.343404 -0.009
  endloop
 endfacet
 facet normal 0 0 -1
  outer loop
   vertex 4.32243e-18 0.045 -0.009
   vertex -0.0466479 0.309501 -0.009
   vertex -0.0417276 0.326781 -0.009
  endloop
 endfacet
 facet normal 0 0 -1
  outer loop
   vertex 4.32243e-18 0.045 -0.009
   vertex -0.0515574 0.291609 -0.009
   vertex -0.0466479 0.309501 -0.009
  endloop
 endfacet
 facet normal 0 0 -1
  outer loop
   vertex 4.32243e-18 0.045 -0.009
   vertex -0.0563715 0.273132 -0.009
   vertex -0.0515574 0.291609 -0.009
  endloop
 endfacet
 facet normal 0 0 -1
  outer loop
   vertex 4.32243e-18 0.045 -0.009
   vertex -0.0610272 0.254124 -0.009
   vertex -0.0563715 0.273132 -0.009
  endloop
 endfacet
 facet normal 0 0 -1
  outer loop
   vertex 4.32243e-18 0.045 -0.009
   vertex -0.065367 0.23463 -0.009
   vertex -0.0610272 0.254124 -0.009
  endloop
 endfacet
 facet normal 0 0 -1
  outer loop
   vertex 4.32243e-18 0.045 -0.009
   vertex -0.0693729 0.214695 -0.009
   vertex -0.065367 0.23463 -0.009
  endloop
 endfacet
 facet normal 0 0 -1
  outer loop
   vertex 4.32243e-18 0.045 -0.009
   vertex -0.0728793 0.194355 -0.009
   vertex -0.0693729 0.214695 -0.009
  endloop
 endfacet
 facet normal 0 0 -1
  outer loop
   vertex 4.32243e-18 0.045 -0.009
   vertex -0.0758205 0.173673 -0.009
   vertex -0.0728793 0.194355 -0.009
  endloop
 endfacet
 facet normal 0 0 -1
  outer loop
   vertex 4.32243e-18 0.045 -0.009
   vertex -0.0779382 0.152694 -0.009
   vertex -0.0758205 0.173673 -0.009
  endloop
 endfacet
 facet normal 0 0 -1
  outer loop
   vertex 4.32243e-18 0.045 -0.009
   vertex -0.0793881 0.131454 -0.009
   vertex -0.0779382 0.152694 -0.009
  endloop
 endfacet
 facet normal 0 0 -1
  outer loop
   vertex 4.32243e-18 0.045 -0.009
   vertex -0.080307 0.110016 -0.009
   vertex -0.0793881 0.131454 -0.009
  endloop
 endfacet
 facet normal 0 0 -1
  outer loop
   vertex 4.32243e-18 0.045 -0.009
   vertex -0.0808326 0.088434 -0.009
   vertex -0.080307 0.110016 -0.009
  endloop
 endfacet
 facet normal 0 0 -1
  outer loop
   vertex 4.32243e-18 0.045 -0.009
   vertex -0.081018 0.066744 -0.009
   vertex -0.0808326 0.088434 -0.009
  endloop
 endfacet
 facet normal 0 0 -1
  outer loop
   vertex 4.32243e-18 0.045 -0.009
   vertex -0.0808659 0.045 -0.009
   vertex -0.081018 0.066744 -0.009
  endloop
 endfacet
 facet normal -0 0 -1
  outer loop
   vertex 4.32243e-18 0.045 -0.009
   vertex -0.0804402 0.023256 -0.009
   vertex -0.0808659 0.045 -0.009
  endloop
 endfacet
 facet normal 0 0 -1
  outer loop
   vertex 4.32243e-18 0.045 -0.009
   vertex -0.0797346 0.001566 -0.009
   vertex -0.0804402 0.023256 -0.009
  endloop
 endfacet
 facet normal 0 0 -1
  outer loop
   vertex 4.32243e-18 0.045 -0.009
   vertex -0.0787986 -0.020016 -0.009
   vertex -0.0797346 0.001566 -0.009
  endloop
 endfacet
 facet normal 0 0 -1
  outer loop
   vertex 4.32243e-18 0.045 -0.009
   vertex -0.0776115 -0.041454 -0.009
   vertex -0.0787986 -0.020016 -0.009
  endloop
 endfacet
 facet normal 0 0 -1
  outer loop
   vertex 4.32243e-18 0.045 -0.009
   vertex -0.0762246 -0.062694 -0.009
   vertex -0.0776115 -0.041454 -0.009
  endloop
 endfacet
 facet normal 0 0 -1
  outer loop
   vertex 4.32243e-18 0.045 -0.009
   vertex -0.0746271 -0.083673 -0.009
   vertex -0.0762246 -0.062694 -0.009
  endloop
 endfacet
 facet normal 0 0 -1
  outer loop
   vertex 4.32243e-18 0.045 -0.009
   vertex -0.0728568 -0.104355 -0.009
   vertex -0.0746271 -0.083673 -0.009
  endloop
 endfacet
 facet normal 0 0 -1
  outer loop
   vertex 4.32243e-18 0.045 -0.009
   vertex -0.0709191 -0.124695 -0.009
   vertex -0.0728568 -0.104355 -0.009
  endloop
 endfacet
 facet normal 0 0 -1
  outer loop
   vertex 4.32243e-18 0.045 -0.009
   vertex -0.0688221 -0.14463 -0.009
   vertex -0.0709191 -0.124695 -0.009
  endloop
 endfacet
 facet normal 0 0 -1
  outer loop
   vertex 4.32243e-18 0.045 -0.009
   vertex -0.0665955 -0.164124 -0.009
   vertex -0.0688221 -0.14463 -0.009
  endloop
 endfacet
 facet normal 0 0 -1
  outer loop
   vertex 4.32243e-18 0.045 -0.009
   vertex -0.0642213 -0.183132 -0.009
   vertex -0.0665955 -0.164124 -0.009
  endloop
 endfacet
 facet normal 0 0 -1
  outer loop
   vertex 4.32243e-18 0.045 -0.009
   vertex -0.0617319 -0.201609 -0.009
   vertex -0.0642213 -0.183132 -0.009
  endloop
 endfacet
 facet normal 0 0 -1
  outer loop
   vertex 4.32243e-18 0.045 -0.009
   vertex -0.0591444 -0.219501 -0.009
   vertex -0.0617319 -0.201609 -0.009
  endloop
 endfacet
 facet normal 0 0 -1
  outer loop
   vertex 4.32243e-18 0.045 -0.009
   vertex -0.0564615 -0.236781 -0.009
   vertex -0.0591444 -0.219501 -0.009
  endloop
 endfacet
 facet normal 0 0 -1
  outer loop
   vertex 4.32243e-18 0.045 -0.009
   vertex -0.0536715 -0.253404 -0.009
   vertex -0.0564615 -0.236781 -0.009
  endloop
 endfacet
 facet normal 0 0 -1
  outer loop
   vertex 4.32243e-18 0.045 -0.009
   vertex -0.0508068 -0.269334 -0.009
   vertex -0.0536715 -0.253404 -0.009
  endloop
 endfacet
 facet normal 0 0 -1
  outer loop
   vertex 4.32243e-18 0.045 -0.009
   vertex -0.0478746 -0.284517 -0.009
   vertex -0.0508068 -0.269334 -0.009
  endloop
 endfacet
 facet normal 0 0 -1
  outer loop
   vertex 4.32243e-18 0.045 -0.009
   vertex -0.0448875 -0.298944 -0.009
   vertex -0.0478746 -0.284517 -0.009
  endloop
 endfacet
 facet normal 0 0 -1
  outer loop
   vertex 4.32243e-18 0.045 -0.009
   vertex -0.0418617 -0.312561 -0.009
   vertex -0.0448875 -0.298944 -0.009
  endloop
 endfacet
 facet normal 0 0 -1
  outer loop
   vertex 4.32243e-18 0.045 -0.009
   vertex -0.0388188 -0.325343 -0.009
   vertex -0.0418617 -0.312561 -0.009
  endloop
 endfacet
 facet normal 0 0 -1
  outer loop
   vertex 4.32243e-18 0.045 -0.009
   vertex -0.0357768 -0.337261 -0.009
   vertex -0.0388188 -0.325343 -0.009
  endloop
 endfacet
 facet normal 0 0 -1
  outer loop
   vertex 4.32243e-18 0.045 -0.009
   vertex -0.0327456 -0.348286 -0.009
   vertex -0.0357768 -0.337261 -0.009
  endloop
 endfacet
 facet normal 0 0 -1
  outer loop
   vertex 4.32243e-18 0.045 -0.009
   vertex -0.0297297 -0.358392 -0.009
   vertex -0.0327456 -0.348286 -0.009
  endloop
 endfacet
 facet normal 0 0 -1
  outer loop
   vertex 4.32243e-18 0.045 -0.009
   vertex -0.0267381 -0.367556 -0.009
   vertex -0.0297297 -0.358392 -0.009
  endloop
 endfacet
 facet normal 0 0 -1
  outer loop
   vertex 4.32243e-18 0.045 -0.009
   vertex -0.0237924 -0.375757 -0.009
   vertex -0.0267381 -0.367556 -0.009
  endloop
 endfacet
 facet normal 0 0 -1
  outer loop
   vertex 4.32243e-18 0.045 -0.009
   vertex -0.0208566 -0.382975 -0.009
   vertex -0.0237924 -0.375757 -0.009
  endloop
 endfacet
 facet normal 0 0 -1
  outer loop
   vertex 4.32243e-18 0.045 -0.009
   vertex -0.0179415 -0.389194 -0.009
   vertex -0.0208566 -0.382975 -0.009
  endloop
 endfacet
 facet normal 0 0 -1
  outer loop
   vertex 4.32243e-18 0.045 -0.009
   vertex -0.0149049 -0.394399 -0.009
   vertex -0.0179415 -0.389194 -0.009
  endloop
 endfacet
 facet normal 0 0 -1
  outer loop
   vertex 4.32243e-18 0.045 -0.009
   vertex -0.0117063 -0.398577 -0.009
   vertex -0.0149049 -0.394399 -0.009
  endloop
 endfacet
 facet normal 0 0 -1
  outer loop
   vertex 4.32243e-18 0.045 -0.009
   vertex -0.0083745 -0.401719 -0.009
   vertex -0.0117063 -0.398577 -0.009
  endloop
 endfacet
 facet normal 0 0 -1
  outer loop
   vertex 4.32243e-18 0.045 -0.009
   vertex -0.0049716 -0.403818 -0.009
   vertex -0.0083745 -0.401719 -0.009
  endloop
 endfacet
 facet normal 0 0 -1
  outer loop
   vertex 4.32243e-18 0.045 -0.009
   vertex -2.47991e-17 -0.405 -0.009
   vertex -0.0049716 -0.403818 -0.009
  endloop
 endfacet
 facet normal 0 -0 -1
  outer loop
   vertex 4.32243e-18 0.045 -0.009
   vertex 0.0049716 -0.403818 -0.009
   vertex -2.47991e-17 -0.405 -0.009
  endloop
 endfacet
 facet normal 0 0 -1
  outer loop
   vertex 4.32243e-18 0.045 -0.009
   vertex 0.0083745 -0.401719 -0.009
   vertex 0.0049716 -0.403818 -0.009
  endloop
 endfacet
 facet normal 0 0 -1
  outer loop
   vertex 4.32243e-18 0.045 -0.009
   vertex 0.0117063 -0.398577 -0.009
   vertex 0.0083745 -0.401719 -0.009
  endloop
 endfacet
 facet normal 0 0 -1
  outer loop
   vertex 4.32243e-18 0.045 -0.009
   vertex 0.0149049 -0.394399 -0.009
   vertex 0.0117063 -0.398577 -0.009
  endloop
 endfacet
 facet normal 0 0 -1
  outer loop
   vertex 4.32243e-18 0.045 -0.009
   vertex 0.0179415 -0.389194 -0.009
   vertex 0.0149049 -0.394399 -0.009
  endloop
 endfacet
 facet normal 0 0 -1
  outer loop
   vertex 4.32243e-18 0.045 -0.009
   vertex 0.0208566 -0.382975 -0.009
   vertex 0.0179415 -0.389194 -0.009
  endloop
 endfacet
 facet normal 0 0 -1
  outer loop
   vertex 4.32243e-18 0.045 -0.009
   vertex 0.0237924 -0.375757 -0.009
   vertex 0.0208566 -0.382975 -0.009
  endloop
 endfacet
 facet normal 0 0 -1
  outer loop
   vertex 4.32243e-18 0.045 -0.009
   vertex 0.0267381 -0.367556 -0.009
   vertex 0.0237924 -0.375757 -0.009
  endloop
 endfacet
 facet normal 0 0 -1
  outer loop
   vertex 4.32243e-18 0.045 -0.009
   vertex 0.0297297 -0.358392 -0.009
   vertex 0.0267381 -0.367556 -0.009
  endloop
 endfacet
 facet normal 0 0 -1
  outer loop
   vertex 4.32243e-18 0.045 -0.009
   vertex 0.0327456 -0.348286 -0.009
   vertex 0.0297297 -0.358392 -0.009
  endloop
 endfacet
 facet normal 0 0 -1
  outer loop
   vertex 4.32243e-18 0.045 -0.009
   vertex 0.0357768 -0.337261 -0.009
   vertex 0.0327456 -0.348286 -0.009
  endloop
 endfacet
 facet normal 0 0 -1
  outer loop
   vertex 4.32243e-18 0.045 -0.009
   vertex 0.0388188 -0.325343 -0.009
   vertex 0.0357768 -0.337261 -0.009
  endloop
 endfacet
 facet normal 0 0 -1
  outer loop
   vertex 4.32243e-18 0.045 -0.009
   vertex 0.0418617 -0.312561 -0.009
   vertex 0.0388188 -0.325343 -0.009
  endloop
 endfacet
 facet normal 0 0 -1
  outer loop
   vertex 4.32243e-18 0.045 -0.009
   vertex 0.0448875 -0.298944 -0.009
   vertex 0.0418617 -0.312561 -0.009
  endloop
 endfacet
 facet normal 0 0 -1
  outer loop
   vertex 4.32243e-18 0.045 -0.009
   vertex 0.0478746 -0.284517 -0.009
   vertex 0.0448875 -0.298944 -0.009
  endloop
 endfacet
 facet normal 0 0 -1
  outer loop
   vertex 4.32243e-18 0.045 -0.009
   vertex 0.0508068 -0.269334 -0.009
   vertex 0.0478746 -0.284517 -0.009
  endloop
 endfacet
 facet normal 0 0 -1
  outer loop
   vertex 4.32243e-18 0.045 -0.009
   vertex 0.0536715 -0.253404 -0.009
   vertex 0.0508068 -0.269334 -0.009
  endloop
 endfacet
 facet normal 0 0 -1
  outer loop
   vertex 4.32243e-18 0.045 -0.009
   vertex 0.0564615 -0.236781 -0.009
   vertex 0.0536715 -0.253404 -0.009
  endloop
 endfacet
 facet normal 0 0 -1
  outer loop
   vertex 4.32243e-18 0.045 -0.009
   vertex 0.0591444 -0.219501 -0.009
   vertex 0.0564615 -0.236781 -0.009
  endloop
 endfacet
 facet normal 0 0 -1
  outer loop
   vertex 4.32243e-18 0.045 -0.009
   vertex 0.0617319 -0.201609 -0.009
   vertex 0.0591444 -0.219501 -0.009
  endloop
 endfacet
 facet normal 0 0 -1
  outer loop
   vertex 4.32243e-18 0.045 -0.009
   vertex 0.0642213 -0.183132 -0.009
   vertex 0.0617319 -0.201609 -0.009
  endloop
 endfacet
 facet normal 0 0 -1
  outer loop
   vertex 4.32243e-18 0.045 -0.009
   vertex 0.0665955 -0.164124 -0.009
   vertex 0.0642213 -0.183132 -0.009
  endloop
 endfacet
 facet normal 0 0 -1
  outer loop
   vertex 4.32243e-18 0.045 -0.009
   vertex 0.0688221 -0.14463 -0.009
   vertex 0.0665955 -0.164124 -0.009
  endloop
 endfacet
 facet normal 0 0 -1
  outer loop
   vertex 4.32243e-18 0.045 -0.009
   vertex 0.0709191 -0.124695 -0.009
   vertex 0.0688221 -0.14463 -0.009
  endloop
 endfacet
 facet normal 0 0 -1
  outer loop
   vertex 4.32243e-18 0.045 -0.009
   vertex 0.0728568 -0.104355 -0.009
   vertex 0.0709191 -0.124695 -0.009
  endloop
 endfacet
 facet normal 0 0 -1
  outer loop
   vertex 4.32243e-18 0.045 -0.009
   vertex 0.0746271 -0.083673 -0.009
   vertex 0.0728568 -0.104355 -0.009
  endloop
 endfacet
 facet normal 0 0 -1
  outer loop
   vertex 4.32243e-18 0.045 -0.009
   vertex 0.0762246 -0.062694 -0.009
   vertex 0.0746271 -0.083673 -0.009
  endloop
 endfacet
 facet normal 0 0 -1
  outer loop
   vertex 4.32243e-18 0.045 -0.009
   vertex 0.0776115 -0.041454 -0.009
   vertex 0.0762246 -0.062694 -0.009
  endloop
 endfacet
 facet normal 0 0 -1
  outer loop
   vertex 4.32243e-18 0.045 -0.009
   vertex 0.0787986 -0.020016 -0.009
   vertex 0.0776115 -0.041454 -0.009
  endloop
 endfacet
 facet normal 0 0 -1
  outer loop
   vertex 4.32243e-18 0.045 -0.009
   vertex 0.0797346 0.001566 -0.009
   vertex 0.0787986 -0.020016 -0.009
  endloop
 endfacet
 facet normal 0 0 -1
  outer loop
   vertex 4.32243e-18 0.045 -0.009
   vertex 0.0804402 0.023256 -0.009
   vertex 0.0797346 0.001566 -0.009
  endloop
 endfacet
 facet normal 0 0 -1
  outer loop
   vertex 4.32243e-18 0.045 -0.009
   vertex 0.0808659 0.045 -0.009
   vertex 0.0804402 0.023256 -0.009
  endloop
 endfacet
 facet normal 0 0 -1
  outer loop
   vertex 4.32243e-18 0.045 -0.009
   vertex 0.081018 0.066744 -0.009
   vertex 0.0808659 0.045 -0.009
  endloop
 endfacet
 facet normal 0 0 -1
  outer loop
   vertex 4.32243e-18 0.045 -0.009
   vertex 0.0808326 0.088434 -0.009
   vertex 0.081018 0.066744 -0.009
  endloop
 endfacet
 facet normal 0 0 -1
  outer loop
   vertex 4.32243e-18 0.045 -0.009
   vertex 0.080307 0.110016 -0.009
   vertex 0.0808326 0.088434 -0.009
  endloop
 endfacet
 facet normal 0 0 -1
  outer loop
   vertex 4.32243e-18 0.045 -0.009
   vertex 0.0793881 0.131454 -0.009
   vertex 0.080307 0.110016 -0.009
  endloop
 endfacet
 facet normal 0 0 -1
  outer loop
   vertex 4.32243e-18 0.045 -0.009
   vertex 0.0779382 0.152694 -0.009
   vertex 0.0793881 0.131454 -0.009
  endloop
 endfacet
 facet normal 0 0 -1
  outer loop
   vertex 4.32243e-18 0.045 -0.009
   vertex 0.0758205 0.173673 -0.009
   vertex 0.0779382 0.152694 -0.009
  endloop
 endfacet
 facet normal 0 0 -1
  outer loop
   vertex 4.32243e-18 0.045 -0.009
   vertex 0.0728793 0.194355 -0.009
   vertex 0.0758205 0.173673 -0.009
  endloop
 endfacet
 facet normal 0 0 -1
  outer loop
   vertex 4.32243e-18 0.045 -0.009
   vertex 0.0693729 0.214695 -0.009
   vertex 0.0728793 0.194355 -0.009
  endloop
 endfacet
 facet normal 0 0 -1
  outer loop
   vertex 4.32243e-18 0.045 -0.009
   vertex 0.065367 0.23463 -0.009
   vertex 0.0693729 0.214695 -0.009
  endloop
 endfacet
 facet normal 0 0 -1
  outer loop
   vertex 4.32243e-18 0.045 -0.009
   vertex 0.0610272 0.254124 -0.009
   vertex 0.065367 0.23463 -0.009
  endloop
 endfacet
 facet normal 0 0 -1
  outer loop
   vertex 4.32243e-18 0.045 -0.009
   vertex 0.0563715 0.273132 -0.009
   vertex 0.0610272 0.254124 -0.009
  endloop
 endfacet
 facet normal 0 0 -1
  outer loop
   vertex 4.32243e-18 0.045 -0.009
   vertex 0.0515574 0.291609 -0.009
   vertex 0.0563715 0.273132 -0.009
  endloop
 endfacet
 facet normal 0 0 -1
  outer loop
   vertex 4.32243e-18 0.045 -0.009
   vertex 0.0466479 0.309501 -0.009
   vertex 0.0515574 0.291609 -0.009
  endloop
 endfacet
 facet normal 0 0 -1
  outer loop
   vertex 4.32243e-18 0.045 -0.009
   vertex 0.0417276 0.326781 -0.009
   vertex 0.0466479 0.309501 -0.009
  endloop
 endfacet
 facet normal 0 0 -1
  outer loop
   vertex 4.32243e-18 0.045 -0.009
   vertex 0.0368937 0.343404 -0.009
   vertex 0.0417276 0.326781 -0.009
  endloop
 endfacet
 facet normal 0 0 -1
  outer loop
   vertex 4.32243e-18 0.045 -0.009
   vertex 0.0322263 0.359334 -0.009
   vertex 0.0368937 0.343404 -0.009
  endloop
 endfacet
 facet normal 0 0 -1
  outer loop
   vertex 4.32243e-18 0.045 -0.009
   vertex 0.027792 0.374517 -0.009
   vertex 0.0322263 0.359334 -0.009
  endloop
 endfacet
 facet normal 0 0 -1
  outer loop
   vertex 4.32243e-18 0.045 -0.009
   vertex 0.0236286 0.388944 -0.009
   vertex 0.027792 0.374517 -0.009
  endloop
 endfacet
 facet normal 0 0 -1
  outer loop
   vertex 4.32243e-18 0.045 -0.009
   vertex 0.0197496 0.402561 -0.009
   vertex 0.0236286 0.388944 -0.009
  endloop
 endfacet
 facet normal 0 0 -1
  outer loop
   vertex 4.32243e-18 0.045 -0.009
   vertex 0.0161721 0.415341 -0.009
   vertex 0.0197496 0.402561 -0.009
  endloop
 endfacet
 facet normal 0 0 -1
  outer loop
   vertex 4.32243e-18 0.045 -0.009
   vertex 0.0129537 0.427257 -0.009
   vertex 0.0161721 0.415341 -0.009
  endloop
 endfacet
 facet normal 0 0 -1
  outer loop
   vertex 4.32243e-18 0.045 -0.009
   vertex 0.0101565 0.438282 -0.009
   vertex 0.0129537 0.427257 -0.009
  endloop
 endfacet
 facet normal 0 0 -1
  outer loop
   vertex 4.32243e-18 0.045 -0.009
   vertex 0.007812 0.448389 -0.009
   vertex 0.0101565 0.438282 -0.009
  endloop
 endfacet
 facet normal 0 0 -1
  outer loop
   vertex 4.32243e-18 0.045 -0.009
   vertex 0.0058959 0.45756 -0.009
   vertex 0.007812 0.448389 -0.009
  endloop
 endfacet
 facet normal 0 0 -1
  outer loop
   vertex 4.32243e-18 0.045 -0.009
   vertex 0.0044253 0.465759 -0.009
   vertex 0.0058959 0.45756 -0.009
  endloop
 endfacet
 facet normal 0 0 -1
  outer loop
   vertex 4.32243e-18 0.045 -0.009
   vertex 0.0032598 0.472977 -0.009
   vertex 0.0044253 0.465759 -0.009
  endloop
 endfacet
 facet normal 0 0 -1
  outer loop
   vertex 4.32243e-18 0.045 -0.009
   vertex 0.0023391 0.479196 -0.009
   vertex 0.0032598 0.472977 -0.009
  endloop
 endfacet
 facet normal 0 0 -1
  outer loop
   vertex 4.32243e-18 0.045 -0.009
   vertex 0.0015696 0.484398 -0.009
   vertex 0.0023391 0.479196 -0.009
  endloop
 endfacet
 facet normal 0 0 -1
  outer loop
   vertex 4.32243e-18 0.045 -0.009
   vertex 0.0009504 0.488574 -0.009
   vertex 0.0015696 0.484398 -0.009
  endloop
 endfacet
 facet normal 0 0 -1
  outer loop
   vertex 4.32243e-18 0.045 -0.009
   vertex 0.000486 0.491715 -0.009
   vertex 0.0009504 0.488574 -0.009
  endloop
 endfacet
 facet normal 0 0 -1
  outer loop
   vertex 4.32243e-18 0.045 -0.009
   vertex 0.0001746 0.493821 -0.009
   vertex 0.000486 0.491715 -0.009
  endloop
 endfacet
 facet normal 0 0 -1
  outer loop
   vertex 4.32243e-18 0.045 -0.009
   vertex 3.031e-17 0.495 -0.009
   vertex 0.0001746 0.493821 -0.009
  endloop
 endfacet
endsolid airfoil
