solid patch0
 facet normal 0.0942982 0.995544 -0
  outer loop
   vertex 0.448197 0.0236638 -0.00999999
   vertex 0.446077 0.0238646 -0.00999999
   vertex 0.448197 0.0236638 0.00999999
  endloop
 endfacet
 facet normal 0.0942982 0.995544 0
  outer loop
   vertex 0.448197 0.0236638 0.00999999
   vertex 0.446077 0.0238646 -0.00999999
   vertex 0.446077 0.0238646 0.00999999
  endloop
 endfacet
 facet normal 0.0942886 0.995545 -0
  outer loop
   vertex 0.446077 0.0238646 -0.00999999
   vertex 0.442916 0.024164 -0.00999999
   vertex 0.446077 0.0238646 0.00999999
  endloop
 endfacet
 facet normal 0.0942886 0.995545 0
  outer loop
   vertex 0.446077 0.0238646 0.00999999
   vertex 0.442916 0.024164 -0.00999999
   vertex 0.442916 0.024164 0.00999999
  endloop
 endfacet
 facet normal 0.0947 0.995506 -0
  outer loop
   vertex 0.442916 0.024164 -0.00999999
   vertex 0.438714 0.0245638 -0.00999999
   vertex 0.442916 0.024164 0.00999999
  endloop
 endfacet
 facet normal 0.0947 0.995506 0
  outer loop
   vertex 0.442916 0.024164 0.00999999
   vertex 0.438714 0.0245638 -0.00999999
   vertex 0.438714 0.0245638 0.00999999
  endloop
 endfacet
 facet normal 0.0943589 0.995538 -0
  outer loop
   vertex 0.438714 0.0245638 -0.00999999
   vertex 0.433479 0.02506 -0.00999999
   vertex 0.438714 0.0245638 0.00999999
  endloop
 endfacet
 facet normal 0.0943589 0.995538 0
  outer loop
   vertex 0.438714 0.0245638 0.00999999
   vertex 0.433479 0.02506 -0.00999999
   vertex 0.433479 0.02506 0.00999999
  endloop
 endfacet
 facet normal 0.0944784 0.995527 -0
  outer loop
   vertex 0.433479 0.02506 -0.00999999
   vertex 0.42722 0.0256539 -0.00999999
   vertex 0.433479 0.02506 0.00999999
  endloop
 endfacet
 facet normal 0.0944784 0.995527 0
  outer loop
   vertex 0.433479 0.02506 0.00999999
   vertex 0.42722 0.0256539 -0.00999999
   vertex 0.42722 0.0256539 0.00999999
  endloop
 endfacet
 facet normal 0.107521 0.994203 -0
  outer loop
   vertex 0.42722 0.0256539 -0.00999999
   vertex 0.419951 0.0264401 -0.00999999
   vertex 0.42722 0.0256539 0.00999999
  endloop
 endfacet
 facet normal 0.107521 0.994203 0
  outer loop
   vertex 0.42722 0.0256539 0.00999999
   vertex 0.419951 0.0264401 -0.00999999
   vertex 0.419951 0.0264401 0.00999999
  endloop
 endfacet
 facet normal 0.124791 0.992183 -0
  outer loop
   vertex 0.419951 0.0264401 -0.00999999
   vertex 0.411686 0.0274795 -0.00999999
   vertex 0.419951 0.0264401 0.00999999
  endloop
 endfacet
 facet normal 0.124791 0.992183 0
  outer loop
   vertex 0.419951 0.0264401 0.00999999
   vertex 0.411686 0.0274795 -0.00999999
   vertex 0.411686 0.0274795 0.00999999
  endloop
 endfacet
 facet normal 0.153004 0.988226 -0
  outer loop
   vertex 0.411686 0.0274795 -0.00999999
   vertex 0.402427 0.028913 -0.00999999
   vertex 0.411686 0.0274795 0.00999999
  endloop
 endfacet
 facet normal 0.153004 0.988226 0
  outer loop
   vertex 0.411686 0.0274795 0.00999999
   vertex 0.402427 0.028913 -0.00999999
   vertex 0.402427 0.028913 0.00999999
  endloop
 endfacet
 facet normal 0.174676 0.984626 -0
  outer loop
   vertex 0.402427 0.028913 -0.00999999
   vertex 0.392211 0.0307254 -0.00999999
   vertex 0.402427 0.028913 0.00999999
  endloop
 endfacet
 facet normal 0.174676 0.984626 0
  outer loop
   vertex 0.402427 0.028913 0.00999999
   vertex 0.392211 0.0307254 -0.00999999
   vertex 0.392211 0.0307254 0.00999999
  endloop
 endfacet
 facet normal 0.194857 0.980832 -0
  outer loop
   vertex 0.392211 0.0307254 -0.00999999
   vertex 0.381055 0.0329417 -0.00999999
   vertex 0.392211 0.0307254 0.00999999
  endloop
 endfacet
 facet normal 0.194857 0.980832 0
  outer loop
   vertex 0.392211 0.0307254 0.00999999
   vertex 0.381055 0.0329417 -0.00999999
   vertex 0.381055 0.0329417 0.00999999
  endloop
 endfacet
 facet normal 0.209865 0.97773 -0
  outer loop
   vertex 0.381055 0.0329417 -0.00999999
   vertex 0.368987 0.0355321 -0.00999999
   vertex 0.381055 0.0329417 0.00999999
  endloop
 endfacet
 facet normal 0.209865 0.97773 0
  outer loop
   vertex 0.381055 0.0329417 0.00999999
   vertex 0.368987 0.0355321 -0.00999999
   vertex 0.368987 0.0355321 0.00999999
  endloop
 endfacet
 facet normal 0.218798 0.97577 -0
  outer loop
   vertex 0.368987 0.0355321 -0.00999999
   vertex 0.356037 0.0384358 -0.00999999
   vertex 0.368987 0.0355321 0.00999999
  endloop
 endfacet
 facet normal 0.218798 0.97577 0
  outer loop
   vertex 0.368987 0.0355321 0.00999999
   vertex 0.356037 0.0384358 -0.00999999
   vertex 0.356037 0.0384358 0.00999999
  endloop
 endfacet
 facet normal 0.223257 0.97476 -0
  outer loop
   vertex 0.356037 0.0384358 -0.00999999
   vertex 0.342236 0.0415969 -0.00999999
   vertex 0.356037 0.0384358 0.00999999
  endloop
 endfacet
 facet normal 0.223257 0.97476 0
  outer loop
   vertex 0.356037 0.0384358 0.00999999
   vertex 0.342236 0.0415969 -0.00999999
   vertex 0.342236 0.0415969 0.00999999
  endloop
 endfacet
 facet normal 0.226605 0.973987 -0
  outer loop
   vertex 0.342236 0.0415969 -0.00999999
   vertex 0.327611 0.0449995 -0.00999999
   vertex 0.342236 0.0415969 0.00999999
  endloop
 endfacet
 facet normal 0.226605 0.973987 0
  outer loop
   vertex 0.342236 0.0415969 0.00999999
   vertex 0.327611 0.0449995 -0.00999999
   vertex 0.327611 0.0449995 0.00999999
  endloop
 endfacet
 facet normal 0.229723 0.973256 -0
  outer loop
   vertex 0.327611 0.0449995 -0.00999999
   vertex 0.312217 0.0486331 -0.00999999
   vertex 0.327611 0.0449995 0.00999999
  endloop
 endfacet
 facet normal 0.229723 0.973256 0
  outer loop
   vertex 0.327611 0.0449995 0.00999999
   vertex 0.312217 0.0486331 -0.00999999
   vertex 0.312217 0.0486331 0.00999999
  endloop
 endfacet
 facet normal 0.230565 0.973057 -0
  outer loop
   vertex 0.312217 0.0486331 -0.00999999
   vertex 0.296064 0.0524604 -0.00999999
   vertex 0.312217 0.0486331 0.00999999
  endloop
 endfacet
 facet normal 0.230565 0.973057 0
  outer loop
   vertex 0.312217 0.0486331 0.00999999
   vertex 0.296064 0.0524604 -0.00999999
   vertex 0.296064 0.0524604 0.00999999
  endloop
 endfacet
 facet normal 0.228592 0.973522 -0
  outer loop
   vertex 0.296064 0.0524604 -0.00999999
   vertex 0.279211 0.0564177 -0.00999999
   vertex 0.296064 0.0524604 0.00999999
  endloop
 endfacet
 facet normal 0.228592 0.973522 0
  outer loop
   vertex 0.296064 0.0524604 0.00999999
   vertex 0.279211 0.0564177 -0.00999999
   vertex 0.279211 0.0564177 0.00999999
  endloop
 endfacet
 facet normal 0.223144 0.974786 -0
  outer loop
   vertex 0.279211 0.0564177 -0.00999999
   vertex 0.261697 0.0604269 -0.00999999
   vertex 0.279211 0.0564177 0.00999999
  endloop
 endfacet
 facet normal 0.223144 0.974786 0
  outer loop
   vertex 0.279211 0.0564177 0.00999999
   vertex 0.261697 0.0604269 -0.00999999
   vertex 0.261697 0.0604269 0.00999999
  endloop
 endfacet
 facet normal 0.213782 0.976881 -0
  outer loop
   vertex 0.261697 0.0604269 -0.00999999
   vertex 0.243573 0.0643933 -0.00999999
   vertex 0.261697 0.0604269 0.00999999
  endloop
 endfacet
 facet normal 0.213782 0.976881 0
  outer loop
   vertex 0.261697 0.0604269 0.00999999
   vertex 0.243573 0.0643933 -0.00999999
   vertex 0.243573 0.0643933 0.00999999
  endloop
 endfacet
 facet normal 0.201138 0.979563 -0
  outer loop
   vertex 0.243573 0.0643933 -0.00999999
   vertex 0.224869 0.0682337 -0.00999999
   vertex 0.243573 0.0643933 0.00999999
  endloop
 endfacet
 facet normal 0.201138 0.979563 0
  outer loop
   vertex 0.243573 0.0643933 0.00999999
   vertex 0.224869 0.0682337 -0.00999999
   vertex 0.224869 0.0682337 0.00999999
  endloop
 endfacet
 facet normal 0.186742 0.982409 -0
  outer loop
   vertex 0.224869 0.0682337 -0.00999999
   vertex 0.205643 0.0718883 -0.00999999
   vertex 0.224869 0.0682337 0.00999999
  endloop
 endfacet
 facet normal 0.186742 0.982409 0
  outer loop
   vertex 0.224869 0.0682337 0.00999999
   vertex 0.205643 0.0718883 -0.00999999
   vertex 0.205643 0.0718883 0.00999999
  endloop
 endfacet
 facet normal 0.165919 0.986139 -0
  outer loop
   vertex 0.205643 0.0718883 -0.00999999
   vertex 0.185949 0.0752019 -0.00999999
   vertex 0.205643 0.0718883 0.00999999
  endloop
 endfacet
 facet normal 0.165919 0.986139 0
  outer loop
   vertex 0.205643 0.0718883 0.00999999
   vertex 0.185949 0.0752019 -0.00999999
   vertex 0.185949 0.0752019 0.00999999
  endloop
 endfacet
 facet normal 0.14543 0.989369 -0
  outer loop
   vertex 0.185949 0.0752019 -0.00999999
   vertex 0.165832 0.078159 -0.00999999
   vertex 0.185949 0.0752019 0.00999999
  endloop
 endfacet
 facet normal 0.14543 0.989369 0
  outer loop
   vertex 0.185949 0.0752019 0.00999999
   vertex 0.165832 0.078159 -0.00999999
   vertex 0.165832 0.078159 0.00999999
  endloop
 endfacet
 facet normal 0.118075 0.993005 -0
  outer loop
   vertex 0.165832 0.078159 -0.00999999
   vertex 0.145336 0.0805961 -0.00999999
   vertex 0.165832 0.078159 0.00999999
  endloop
 endfacet
 facet normal 0.118075 0.993005 0
  outer loop
   vertex 0.165832 0.078159 0.00999999
   vertex 0.145336 0.0805961 -0.00999999
   vertex 0.145336 0.0805961 0.00999999
  endloop
 endfacet
 facet normal 0.0887864 0.996051 -0
  outer loop
   vertex 0.145336 0.0805961 -0.00999999
   vertex 0.124529 0.0824508 -0.00999999
   vertex 0.145336 0.0805961 0.00999999
  endloop
 endfacet
 facet normal 0.0887864 0.996051 0
  outer loop
   vertex 0.145336 0.0805961 0.00999999
   vertex 0.124529 0.0824508 -0.00999999
   vertex 0.124529 0.0824508 0.00999999
  endloop
 endfacet
 facet normal 0.0482246 0.998837 -0
  outer loop
   vertex 0.124529 0.0824508 -0.00999999
   vertex 0.103467 0.0834677 -0.00999999
   vertex 0.124529 0.0824508 0.00999999
  endloop
 endfacet
 facet normal 0.0482246 0.998837 0
  outer loop
   vertex 0.124529 0.0824508 0.00999999
   vertex 0.103467 0.0834677 -0.00999999
   vertex 0.103467 0.0834677 0.00999999
  endloop
 endfacet
 facet normal 0.0157964 0.999875 -0
  outer loop
   vertex 0.103467 0.0834677 -0.00999999
   vertex 0.0821806 0.083804 -0.00999999
   vertex 0.103467 0.0834677 0.00999999
  endloop
 endfacet
 facet normal 0.0157964 0.999875 0
  outer loop
   vertex 0.103467 0.0834677 0.00999999
   vertex 0.0821806 0.083804 -0.00999999
   vertex 0.0821806 0.083804 0.00999999
  endloop
 endfacet
 facet normal -0.00952288 0.999955 0
  outer loop
   vertex 0.0821806 0.083804 -0.00999999
   vertex 0.0607239 0.0835996 -0.00999999
   vertex 0.0821806 0.083804 0.00999999
  endloop
 endfacet
 facet normal -0.00952288 0.999955 0
  outer loop
   vertex 0.0821806 0.083804 0.00999999
   vertex 0.0607239 0.0835996 -0.00999999
   vertex 0.0607239 0.0835996 0.00999999
  endloop
 endfacet
 facet normal -0.0280075 0.999608 0
  outer loop
   vertex 0.0607239 0.0835996 -0.00999999
   vertex 0.039144 0.082995 -0.00999999
   vertex 0.0607239 0.0835996 0.00999999
  endloop
 endfacet
 facet normal -0.0280075 0.999608 0
  outer loop
   vertex 0.0607239 0.0835996 0.00999999
   vertex 0.039144 0.082995 -0.00999999
   vertex 0.039144 0.082995 0.00999999
  endloop
 endfacet
 facet normal -0.0437983 0.99904 0
  outer loop
   vertex 0.039144 0.082995 -0.00999999
   vertex 0.0174741 0.082045 -0.00999999
   vertex 0.039144 0.082995 0.00999999
  endloop
 endfacet
 facet normal -0.0437983 0.99904 0
  outer loop
   vertex 0.039144 0.082995 0.00999999
   vertex 0.0174741 0.082045 -0.00999999
   vertex 0.0174741 0.082045 0.00999999
  endloop
 endfacet
 facet normal -0.05932 0.998239 0
  outer loop
   vertex 0.0174741 0.082045 -0.00999999
   vertex -0.00423219 0.0807551 -0.00999999
   vertex 0.0174741 0.082045 0.00999999
  endloop
 endfacet
 facet normal -0.05932 0.998239 0
  outer loop
   vertex 0.0174741 0.082045 0.00999999
   vertex -0.00423219 0.0807551 -0.00999999
   vertex -0.00423219 0.0807551 0.00999999
  endloop
 endfacet
 facet normal -0.0718732 0.997414 0
  outer loop
   vertex -0.00423219 0.0807551 -0.00999999
   vertex -0.0259241 0.079192 -0.00999999
   vertex -0.00423219 0.0807551 0.00999999
  endloop
 endfacet
 facet normal -0.0718732 0.997414 0
  outer loop
   vertex -0.00423219 0.0807551 0.00999999
   vertex -0.0259241 0.079192 -0.00999999
   vertex -0.0259241 0.079192 0.00999999
  endloop
 endfacet
 facet normal -0.0847777 0.9964 0
  outer loop
   vertex -0.0259241 0.079192 -0.00999999
   vertex -0.0475475 0.0773522 -0.00999999
   vertex -0.0259241 0.079192 0.00999999
  endloop
 endfacet
 facet normal -0.0847777 0.9964 0
  outer loop
   vertex -0.0259241 0.079192 0.00999999
   vertex -0.0475475 0.0773522 -0.00999999
   vertex -0.0475475 0.0773522 0.00999999
  endloop
 endfacet
 facet normal -0.0955561 0.995424 0
  outer loop
   vertex -0.0475475 0.0773522 -0.00999999
   vertex -0.0690509 0.0752879 -0.00999999
   vertex -0.0475475 0.0773522 0.00999999
  endloop
 endfacet
 facet normal -0.0955561 0.995424 0
  outer loop
   vertex -0.0475475 0.0773522 0.00999999
   vertex -0.0690509 0.0752879 -0.00999999
   vertex -0.0690509 0.0752879 0.00999999
  endloop
 endfacet
 facet normal -0.107469 0.994208 0
  outer loop
   vertex -0.0690509 0.0752879 -0.00999999
   vertex -0.0903974 0.0729805 -0.00999999
   vertex -0.0690509 0.0752879 0.00999999
  endloop
 endfacet
 facet normal -0.107469 0.994208 0
  outer loop
   vertex -0.0690509 0.0752879 0.00999999
   vertex -0.0903974 0.0729805 -0.00999999
   vertex -0.0903974 0.0729805 0.00999999
  endloop
 endfacet
 facet normal -0.117293 0.993097 0
  outer loop
   vertex -0.0903974 0.0729805 -0.00999999
   vertex -0.111536 0.0704839 -0.00999999
   vertex -0.0903974 0.0729805 0.00999999
  endloop
 endfacet
 facet normal -0.117293 0.993097 0
  outer loop
   vertex -0.0903974 0.0729805 0.00999999
   vertex -0.111536 0.0704839 -0.00999999
   vertex -0.111536 0.0704839 0.00999999
  endloop
 endfacet
 facet normal -0.128008 0.991773 0
  outer loop
   vertex -0.111536 0.0704839 -0.00999999
   vertex -0.132402 0.0677906 -0.00999999
   vertex -0.111536 0.0704839 0.00999999
  endloop
 endfacet
 facet normal -0.128008 0.991773 0
  outer loop
   vertex -0.111536 0.0704839 0.00999999
   vertex -0.132402 0.0677906 -0.00999999
   vertex -0.132402 0.0677906 0.00999999
  endloop
 endfacet
 facet normal -0.137313 0.990528 0
  outer loop
   vertex -0.132402 0.0677906 -0.00999999
   vertex -0.152963 0.0649403 -0.00999999
   vertex -0.132402 0.0677906 0.00999999
  endloop
 endfacet
 facet normal -0.137313 0.990528 0
  outer loop
   vertex -0.132402 0.0677906 0.00999999
   vertex -0.152963 0.0649403 -0.00999999
   vertex -0.152963 0.0649403 0.00999999
  endloop
 endfacet
 facet normal -0.146806 0.989165 0
  outer loop
   vertex -0.152963 0.0649403 -0.00999999
   vertex -0.173174 0.0619408 -0.00999999
   vertex -0.152963 0.0649403 0.00999999
  endloop
 endfacet
 facet normal -0.146806 0.989165 0
  outer loop
   vertex -0.152963 0.0649403 0.00999999
   vertex -0.173174 0.0619408 -0.00999999
   vertex -0.173174 0.0619408 0.00999999
  endloop
 endfacet
 facet normal -0.15652 0.987675 0
  outer loop
   vertex -0.173174 0.0619408 -0.00999999
   vertex -0.192972 0.0588033 -0.00999999
   vertex -0.173174 0.0619408 0.00999999
  endloop
 endfacet
 facet normal -0.15652 0.987675 0
  outer loop
   vertex -0.173174 0.0619408 0.00999999
   vertex -0.192972 0.0588033 -0.00999999
   vertex -0.192972 0.0588033 0.00999999
  endloop
 endfacet
 facet normal -0.165324 0.986239 0
  outer loop
   vertex -0.192972 0.0588033 -0.00999999
   vertex -0.212323 0.0555595 -0.00999999
   vertex -0.192972 0.0588033 0.00999999
  endloop
 endfacet
 facet normal -0.165324 0.986239 0
  outer loop
   vertex -0.192972 0.0588033 0.00999999
   vertex -0.212323 0.0555595 -0.00999999
   vertex -0.212323 0.0555595 0.00999999
  endloop
 endfacet
 facet normal -0.175705 0.984443 0
  outer loop
   vertex -0.212323 0.0555595 -0.00999999
   vertex -0.23118 0.0521938 -0.00999999
   vertex -0.212323 0.0555595 0.00999999
  endloop
 endfacet
 facet normal -0.175705 0.984443 0
  outer loop
   vertex -0.212323 0.0555595 0.00999999
   vertex -0.23118 0.0521938 -0.00999999
   vertex -0.23118 0.0521938 0.00999999
  endloop
 endfacet
 facet normal -0.185208 0.982699 0
  outer loop
   vertex -0.23118 0.0521938 -0.00999999
   vertex -0.249502 0.0487408 -0.00999999
   vertex -0.23118 0.0521938 0.00999999
  endloop
 endfacet
 facet normal -0.185208 0.982699 0
  outer loop
   vertex -0.23118 0.0521938 0.00999999
   vertex -0.249502 0.0487408 -0.00999999
   vertex -0.249502 0.0487408 0.00999999
  endloop
 endfacet
 facet normal -0.19473 0.980857 0
  outer loop
   vertex -0.249502 0.0487408 -0.00999999
   vertex -0.267234 0.0452204 -0.00999999
   vertex -0.249502 0.0487408 0.00999999
  endloop
 endfacet
 facet normal -0.19473 0.980857 0
  outer loop
   vertex -0.249502 0.0487408 0.00999999
   vertex -0.267234 0.0452204 -0.00999999
   vertex -0.267234 0.0452204 0.00999999
  endloop
 endfacet
 facet normal -0.204928 0.978777 0
  outer loop
   vertex -0.267234 0.0452204 -0.00999999
   vertex -0.28435 0.0416368 -0.00999999
   vertex -0.267234 0.0452204 0.00999999
  endloop
 endfacet
 facet normal -0.204928 0.978777 0
  outer loop
   vertex -0.267234 0.0452204 0.00999999
   vertex -0.28435 0.0416368 -0.00999999
   vertex -0.28435 0.0416368 0.00999999
  endloop
 endfacet
 facet normal -0.216912 0.976191 0
  outer loop
   vertex -0.28435 0.0416368 -0.00999999
   vertex -0.300804 0.0379807 -0.00999999
   vertex -0.28435 0.0416368 0.00999999
  endloop
 endfacet
 facet normal -0.216912 0.976191 0
  outer loop
   vertex -0.28435 0.0416368 0.00999999
   vertex -0.300804 0.0379807 -0.00999999
   vertex -0.300804 0.0379807 0.00999999
  endloop
 endfacet
 facet normal -0.228259 0.973601 0
  outer loop
   vertex -0.300804 0.0379807 -0.00999999
   vertex -0.316562 0.0342862 -0.00999999
   vertex -0.300804 0.0379807 0.00999999
  endloop
 endfacet
 facet normal -0.228259 0.973601 0
  outer loop
   vertex -0.300804 0.0379807 0.00999999
   vertex -0.316562 0.0342862 -0.00999999
   vertex -0.316562 0.0342862 0.00999999
  endloop
 endfacet
 facet normal -0.240747 0.970588 0
  outer loop
   vertex -0.316562 0.0342862 -0.00999999
   vertex -0.331571 0.0305634 -0.00999999
   vertex -0.316562 0.0342862 0.00999999
  endloop
 endfacet
 facet normal -0.240747 0.970588 0
  outer loop
   vertex -0.316562 0.0342862 0.00999999
   vertex -0.331571 0.0305634 -0.00999999
   vertex -0.331571 0.0305634 0.00999999
  endloop
 endfacet
 facet normal -0.25372 0.967278 0
  outer loop
   vertex -0.331571 0.0305634 -0.00999999
   vertex -0.345822 0.0268253 -0.00999999
   vertex -0.331571 0.0305634 0.00999999
  endloop
 endfacet
 facet normal -0.25372 0.967278 0
  outer loop
   vertex -0.331571 0.0305634 0.00999999
   vertex -0.345822 0.0268253 -0.00999999
   vertex -0.345822 0.0268253 0.00999999
  endloop
 endfacet
 facet normal -0.267709 0.9635 0
  outer loop
   vertex -0.345822 0.0268253 -0.00999999
   vertex -0.359262 0.023091 -0.00999999
   vertex -0.345822 0.0268253 0.00999999
  endloop
 endfacet
 facet normal -0.267709 0.9635 0
  outer loop
   vertex -0.345822 0.0268253 0.00999999
   vertex -0.359262 0.023091 -0.00999999
   vertex -0.359262 0.023091 0.00999999
  endloop
 endfacet
 facet normal -0.282188 0.959359 0
  outer loop
   vertex -0.359262 0.023091 -0.00999999
   vertex -0.371867 0.0193834 -0.00999999
   vertex -0.359262 0.023091 0.00999999
  endloop
 endfacet
 facet normal -0.282188 0.959359 0
  outer loop
   vertex -0.359262 0.023091 0.00999999
   vertex -0.371867 0.0193834 -0.00999999
   vertex -0.371867 0.0193834 0.00999999
  endloop
 endfacet
 facet normal -0.29769 0.954663 0
  outer loop
   vertex -0.371867 0.0193834 -0.00999999
   vertex -0.383609 0.0157218 -0.00999999
   vertex -0.371867 0.0193834 0.00999999
  endloop
 endfacet
 facet normal -0.29769 0.954663 0
  outer loop
   vertex -0.371867 0.0193834 0.00999999
   vertex -0.383609 0.0157218 -0.00999999
   vertex -0.383609 0.0157218 0.00999999
  endloop
 endfacet
 facet normal -0.315201 0.949025 0
  outer loop
   vertex -0.383609 0.0157218 -0.00999999
   vertex -0.39446 0.0121177 -0.00999999
   vertex -0.383609 0.0157218 0.00999999
  endloop
 endfacet
 facet normal -0.315201 0.949025 0
  outer loop
   vertex -0.383609 0.0157218 0.00999999
   vertex -0.39446 0.0121177 -0.00999999
   vertex -0.39446 0.0121177 0.00999999
  endloop
 endfacet
 facet normal -0.335721 0.941962 0
  outer loop
   vertex -0.39446 0.0121177 -0.00999999
   vertex -0.404395 0.00857706 -0.00999999
   vertex -0.39446 0.0121177 0.00999999
  endloop
 endfacet
 facet normal -0.335721 0.941962 0
  outer loop
   vertex -0.39446 0.0121177 0.00999999
   vertex -0.404395 0.00857706 -0.00999999
   vertex -0.404395 0.00857706 0.00999999
  endloop
 endfacet
 facet normal -0.359639 0.933091 0
  outer loop
   vertex -0.404395 0.00857706 -0.00999999
   vertex -0.41339 0.00510992 -0.00999999
   vertex -0.404395 0.00857706 0.00999999
  endloop
 endfacet
 facet normal -0.359639 0.933091 0
  outer loop
   vertex -0.404395 0.00857706 0.00999999
   vertex -0.41339 0.00510992 -0.00999999
   vertex -0.41339 0.00510992 0.00999999
  endloop
 endfacet
 facet normal -0.386842 0.922146 0
  outer loop
   vertex -0.41339 0.00510992 -0.00999999
   vertex -0.421426 0.00173906 -0.00999999
   vertex -0.41339 0.00510992 0.00999999
  endloop
 endfacet
 facet normal -0.386842 0.922146 0
  outer loop
   vertex -0.41339 0.00510992 0.00999999
   vertex -0.421426 0.00173906 -0.00999999
   vertex -0.421426 0.00173906 0.00999999
  endloop
 endfacet
 facet normal -0.424724 0.905323 0
  outer loop
   vertex -0.421426 0.00173906 -0.00999999
   vertex -0.42848 -0.00157047 -0.00999999
   vertex -0.421426 0.00173906 0.00999999
  endloop
 endfacet
 facet normal -0.424724 0.905323 0
  outer loop
   vertex -0.421426 0.00173906 0.00999999
   vertex -0.42848 -0.00157047 -0.00999999
   vertex -0.42848 -0.00157047 0.00999999
  endloop
 endfacet
 facet normal -0.471234 0.882008 0
  outer loop
   vertex -0.42848 -0.00157047 -0.00999999
   vertex -0.434538 -0.00480706 -0.00999999
   vertex -0.42848 -0.00157047 0.00999999
  endloop
 endfacet
 facet normal -0.471234 0.882008 0
  outer loop
   vertex -0.42848 -0.00157047 0.00999999
   vertex -0.434538 -0.00480706 -0.00999999
   vertex -0.434538 -0.00480706 0.00999999
  endloop
 endfacet
 facet normal -0.54845 0.836183 0
  outer loop
   vertex -0.434538 -0.00480706 -0.00999999
   vertex -0.439577 -0.00811189 -0.00999999
   vertex -0.434538 -0.00480706 0.00999999
  endloop
 endfacet
 facet normal -0.54845 0.836183 0
  outer loop
   vertex -0.434538 -0.00480706 0.00999999
   vertex -0.439577 -0.00811189 -0.00999999
   vertex -0.439577 -0.00811189 0.00999999
  endloop
 endfacet
 facet normal -0.648629 0.761105 0
  outer loop
   vertex -0.439577 -0.00811189 -0.00999999
   vertex -0.443581 -0.0115248 -0.00999999
   vertex -0.439577 -0.00811189 0.00999999
  endloop
 endfacet
 facet normal -0.648629 0.761105 0
  outer loop
   vertex -0.439577 -0.00811189 0.00999999
   vertex -0.443581 -0.0115248 -0.00999999
   vertex -0.443581 -0.0115248 0.00999999
  endloop
 endfacet
 facet normal -0.762445 0.647053 0
  outer loop
   vertex -0.443581 -0.0115248 -0.00999999
   vertex -0.446545 -0.0150164 -0.00999999
   vertex -0.443581 -0.0115248 0.00999999
  endloop
 endfacet
 facet normal -0.762445 0.647053 0
  outer loop
   vertex -0.443581 -0.0115248 0.00999999
   vertex -0.446545 -0.0150164 -0.00999999
   vertex -0.446545 -0.0150164 0.00999999
  endloop
 endfacet
 facet normal -0.877348 0.479855 0
  outer loop
   vertex -0.446545 -0.0150164 -0.00999999
   vertex -0.448463 -0.0185245 -0.00999999
   vertex -0.446545 -0.0150164 0.00999999
  endloop
 endfacet
 facet normal -0.877348 0.479855 0
  outer loop
   vertex -0.446545 -0.0150164 0.00999999
   vertex -0.448463 -0.0185245 -0.00999999
   vertex -0.448463 -0.0185245 0.00999999
  endloop
 endfacet
 facet normal -0.983664 0.180013 0
  outer loop
   vertex -0.448463 -0.0185245 -0.00999999
   vertex -0.449383 -0.0235512 -0.00999999
   vertex -0.448463 -0.0185245 0.00999999
  endloop
 endfacet
 facet normal -0.983664 0.180013 0
  outer loop
   vertex -0.448463 -0.0185245 0.00999999
   vertex -0.449383 -0.0235512 -0.00999999
   vertex -0.449383 -0.0235512 0.00999999
  endloop
 endfacet
 facet normal -0.959459 -0.281848 0
  outer loop
   vertex -0.449383 -0.0235512 -0.00999999
   vertex -0.447943 -0.0284541 -0.00999999
   vertex -0.449383 -0.0235512 0.00999999
  endloop
 endfacet
 facet normal -0.959459 -0.281848 0
  outer loop
   vertex -0.449383 -0.0235512 0.00999999
   vertex -0.447943 -0.0284541 -0.00999999
   vertex -0.447943 -0.0284541 0.00999999
  endloop
 endfacet
 facet normal -0.822383 -0.568934 0
  outer loop
   vertex -0.447943 -0.0284541 -0.00999999
   vertex -0.445668 -0.0317425 -0.00999999
   vertex -0.447943 -0.0284541 0.00999999
  endloop
 endfacet
 facet normal -0.822383 -0.568934 0
  outer loop
   vertex -0.447943 -0.0284541 0.00999999
   vertex -0.445668 -0.0317425 -0.00999999
   vertex -0.445668 -0.0317425 0.00999999
  endloop
 endfacet
 facet normal -0.690633 -0.723205 0
  outer loop
   vertex -0.445668 -0.0317425 -0.00999999
   vertex -0.442356 -0.0349053 -0.00999999
   vertex -0.445668 -0.0317425 0.00999999
  endloop
 endfacet
 facet normal -0.690633 -0.723205 0
  outer loop
   vertex -0.445668 -0.0317425 0.00999999
   vertex -0.442356 -0.0349053 -0.00999999
   vertex -0.442356 -0.0349053 0.00999999
  endloop
 endfacet
 facet normal -0.565519 -0.824735 0
  outer loop
   vertex -0.442356 -0.0349053 -0.00999999
   vertex -0.438017 -0.0378808 -0.00999999
   vertex -0.442356 -0.0349053 0.00999999
  endloop
 endfacet
 facet normal -0.565519 -0.824735 0
  outer loop
   vertex -0.442356 -0.0349053 0.00999999
   vertex -0.438017 -0.0378808 -0.00999999
   vertex -0.438017 -0.0378808 0.00999999
  endloop
 endfacet
 facet normal -0.458041 -0.888931 0
  outer loop
   vertex -0.438017 -0.0378808 -0.00999999
   vertex -0.43266 -0.0406409 -0.00999999
   vertex -0.438017 -0.0378808 0.00999999
  endloop
 endfacet
 facet normal -0.458041 -0.888931 0
  outer loop
   vertex -0.438017 -0.0378808 0.00999999
   vertex -0.43266 -0.0406409 -0.00999999
   vertex -0.43266 -0.0406409 0.00999999
  endloop
 endfacet
 facet normal -0.376457 -0.926434 0
  outer loop
   vertex -0.43266 -0.0406409 -0.00999999
   vertex -0.426297 -0.0432265 -0.00999999
   vertex -0.43266 -0.0406409 0.00999999
  endloop
 endfacet
 facet normal -0.376457 -0.926434 0
  outer loop
   vertex -0.43266 -0.0406409 0.00999999
   vertex -0.426297 -0.0432265 -0.00999999
   vertex -0.426297 -0.0432265 0.00999999
  endloop
 endfacet
 facet normal -0.327765 -0.944759 0
  outer loop
   vertex -0.426297 -0.0432265 -0.00999999
   vertex -0.418935 -0.0457805 -0.00999999
   vertex -0.426297 -0.0432265 0.00999999
  endloop
 endfacet
 facet normal -0.327765 -0.944759 0
  outer loop
   vertex -0.426297 -0.0432265 0.00999999
   vertex -0.418935 -0.0457805 -0.00999999
   vertex -0.418935 -0.0457805 0.00999999
  endloop
 endfacet
 facet normal -0.288332 -0.95753 0
  outer loop
   vertex -0.418935 -0.0457805 -0.00999999
   vertex -0.410592 -0.048293 -0.00999999
   vertex -0.418935 -0.0457805 0.00999999
  endloop
 endfacet
 facet normal -0.288332 -0.95753 0
  outer loop
   vertex -0.418935 -0.0457805 0.00999999
   vertex -0.410592 -0.048293 -0.00999999
   vertex -0.410592 -0.048293 0.00999999
  endloop
 endfacet
 facet normal -0.260134 -0.965572 0
  outer loop
   vertex -0.410592 -0.048293 -0.00999999
   vertex -0.401283 -0.0508008 -0.00999999
   vertex -0.410592 -0.048293 0.00999999
  endloop
 endfacet
 facet normal -0.260134 -0.965572 0
  outer loop
   vertex -0.410592 -0.048293 0.00999999
   vertex -0.401283 -0.0508008 -0.00999999
   vertex -0.401283 -0.0508008 0.00999999
  endloop
 endfacet
 facet normal -0.23542 -0.971894 0
  outer loop
   vertex -0.401283 -0.0508008 -0.00999999
   vertex -0.391033 -0.0532837 -0.00999999
   vertex -0.401283 -0.0508008 0.00999999
  endloop
 endfacet
 facet normal -0.23542 -0.971894 0
  outer loop
   vertex -0.401283 -0.0508008 0.00999999
   vertex -0.391033 -0.0532837 -0.00999999
   vertex -0.391033 -0.0532837 0.00999999
  endloop
 endfacet
 facet normal -0.214275 -0.976773 0
  outer loop
   vertex -0.391033 -0.0532837 -0.00999999
   vertex -0.379864 -0.0557337 -0.00999999
   vertex -0.391033 -0.0532837 0.00999999
  endloop
 endfacet
 facet normal -0.214275 -0.976773 0
  outer loop
   vertex -0.391033 -0.0532837 0.00999999
   vertex -0.379864 -0.0557337 -0.00999999
   vertex -0.379864 -0.0557337 0.00999999
  endloop
 endfacet
 facet normal -0.19627 -0.98055 0
  outer loop
   vertex -0.379864 -0.0557337 -0.00999999
   vertex -0.367804 -0.0581478 -0.00999999
   vertex -0.379864 -0.0557337 0.00999999
  endloop
 endfacet
 facet normal -0.19627 -0.98055 0
  outer loop
   vertex -0.379864 -0.0557337 0.00999999
   vertex -0.367804 -0.0581478 -0.00999999
   vertex -0.367804 -0.0581478 0.00999999
  endloop
 endfacet
 facet normal -0.180362 -0.9836 0
  outer loop
   vertex -0.367804 -0.0581478 -0.00999999
   vertex -0.35488 -0.0605176 -0.00999999
   vertex -0.367804 -0.0581478 0.00999999
  endloop
 endfacet
 facet normal -0.180362 -0.9836 0
  outer loop
   vertex -0.367804 -0.0581478 0.00999999
   vertex -0.35488 -0.0605176 -0.00999999
   vertex -0.35488 -0.0605176 0.00999999
  endloop
 endfacet
 facet normal -0.16553 -0.986205 0
  outer loop
   vertex -0.35488 -0.0605176 -0.00999999
   vertex -0.341123 -0.0628266 -0.00999999
   vertex -0.35488 -0.0605176 0.00999999
  endloop
 endfacet
 facet normal -0.16553 -0.986205 0
  outer loop
   vertex -0.35488 -0.0605176 0.00999999
   vertex -0.341123 -0.0628266 -0.00999999
   vertex -0.341123 -0.0628266 0.00999999
  endloop
 endfacet
 facet normal -0.151222 -0.9885 0
  outer loop
   vertex -0.341123 -0.0628266 -0.00999999
   vertex -0.32656 -0.0650546 -0.00999999
   vertex -0.341123 -0.0628266 0.00999999
  endloop
 endfacet
 facet normal -0.151222 -0.9885 0
  outer loop
   vertex -0.341123 -0.0628266 0.00999999
   vertex -0.32656 -0.0650546 -0.00999999
   vertex -0.32656 -0.0650546 0.00999999
  endloop
 endfacet
 facet normal -0.137974 -0.990436 0
  outer loop
   vertex -0.32656 -0.0650546 -0.00999999
   vertex -0.311244 -0.0671881 -0.00999999
   vertex -0.32656 -0.0650546 0.00999999
  endloop
 endfacet
 facet normal -0.137974 -0.990436 0
  outer loop
   vertex -0.32656 -0.0650546 0.00999999
   vertex -0.311244 -0.0671881 -0.00999999
   vertex -0.311244 -0.0671881 0.00999999
  endloop
 endfacet
 facet normal -0.125239 -0.992127 0
  outer loop
   vertex -0.311244 -0.0671881 -0.00999999
   vertex -0.295186 -0.0692152 -0.00999999
   vertex -0.311244 -0.0671881 0.00999999
  endloop
 endfacet
 facet normal -0.125239 -0.992127 0
  outer loop
   vertex -0.311244 -0.0671881 0.00999999
   vertex -0.295186 -0.0692152 -0.00999999
   vertex -0.295186 -0.0692152 0.00999999
  endloop
 endfacet
 facet normal -0.113684 -0.993517 0
  outer loop
   vertex -0.295186 -0.0692152 -0.00999999
   vertex -0.27844 -0.0711314 -0.00999999
   vertex -0.295186 -0.0692152 0.00999999
  endloop
 endfacet
 facet normal -0.113684 -0.993517 0
  outer loop
   vertex -0.295186 -0.0692152 0.00999999
   vertex -0.27844 -0.0711314 -0.00999999
   vertex -0.27844 -0.0711314 0.00999999
  endloop
 endfacet
 facet normal -0.101496 -0.994836 0
  outer loop
   vertex -0.27844 -0.0711314 -0.00999999
   vertex -0.261043 -0.0729063 -0.00999999
   vertex -0.27844 -0.0711314 0.00999999
  endloop
 endfacet
 facet normal -0.101496 -0.994836 0
  outer loop
   vertex -0.27844 -0.0711314 0.00999999
   vertex -0.261043 -0.0729063 -0.00999999
   vertex -0.261043 -0.0729063 0.00999999
  endloop
 endfacet
 facet normal -0.0911355 -0.995839 0
  outer loop
   vertex -0.261043 -0.0729063 -0.00999999
   vertex -0.24304 -0.0745538 -0.00999999
   vertex -0.261043 -0.0729063 0.00999999
  endloop
 endfacet
 facet normal -0.0911355 -0.995839 0
  outer loop
   vertex -0.261043 -0.0729063 0.00999999
   vertex -0.24304 -0.0745538 -0.00999999
   vertex -0.24304 -0.0745538 0.00999999
  endloop
 endfacet
 facet normal -0.0814729 -0.996676 0
  outer loop
   vertex -0.24304 -0.0745538 -0.00999999
   vertex -0.224458 -0.0760728 -0.00999999
   vertex -0.24304 -0.0745538 0.00999999
  endloop
 endfacet
 facet normal -0.0814729 -0.996676 0
  outer loop
   vertex -0.24304 -0.0745538 0.00999999
   vertex -0.224458 -0.0760728 -0.00999999
   vertex -0.224458 -0.0760728 0.00999999
  endloop
 endfacet
 facet normal -0.0718402 -0.997416 0
  outer loop
   vertex -0.224458 -0.0760728 -0.00999999
   vertex -0.205352 -0.0774489 -0.00999999
   vertex -0.224458 -0.0760728 0.00999999
  endloop
 endfacet
 facet normal -0.0718402 -0.997416 0
  outer loop
   vertex -0.224458 -0.0760728 0.00999999
   vertex -0.205352 -0.0774489 -0.00999999
   vertex -0.205352 -0.0774489 0.00999999
  endloop
 endfacet
 facet normal -0.0613283 -0.998118 0
  outer loop
   vertex -0.205352 -0.0774489 -0.00999999
   vertex -0.185768 -0.0786522 -0.00999999
   vertex -0.205352 -0.0774489 0.00999999
  endloop
 endfacet
 facet normal -0.0613283 -0.998118 0
  outer loop
   vertex -0.205352 -0.0774489 0.00999999
   vertex -0.185768 -0.0786522 -0.00999999
   vertex -0.185768 -0.0786522 0.00999999
  endloop
 endfacet
 facet normal -0.0524227 -0.998625 0
  outer loop
   vertex -0.185768 -0.0786522 -0.00999999
   vertex -0.165751 -0.0797031 -0.00999999
   vertex -0.185768 -0.0786522 0.00999999
  endloop
 endfacet
 facet normal -0.0524227 -0.998625 0
  outer loop
   vertex -0.185768 -0.0786522 0.00999999
   vertex -0.165751 -0.0797031 -0.00999999
   vertex -0.165751 -0.0797031 0.00999999
  endloop
 endfacet
 facet normal -0.0426062 -0.999092 0
  outer loop
   vertex -0.165751 -0.0797031 -0.00999999
   vertex -0.145337 -0.0805736 -0.00999999
   vertex -0.165751 -0.0797031 0.00999999
  endloop
 endfacet
 facet normal -0.0426062 -0.999092 0
  outer loop
   vertex -0.165751 -0.0797031 0.00999999
   vertex -0.145337 -0.0805736 -0.00999999
   vertex -0.145337 -0.0805736 0.00999999
  endloop
 endfacet
 facet normal -0.0330221 -0.999455 0
  outer loop
   vertex -0.145337 -0.0805736 -0.00999999
   vertex -0.124591 -0.0812591 -0.00999999
   vertex -0.145337 -0.0805736 0.00999999
  endloop
 endfacet
 facet normal -0.0330221 -0.999455 0
  outer loop
   vertex -0.145337 -0.0805736 0.00999999
   vertex -0.124591 -0.0812591 -0.00999999
   vertex -0.124591 -0.0812591 0.00999999
  endloop
 endfacet
 facet normal -0.0236387 -0.999721 0
  outer loop
   vertex -0.124591 -0.0812591 -0.00999999
   vertex -0.103557 -0.0817564 -0.00999999
   vertex -0.124591 -0.0812591 0.00999999
  endloop
 endfacet
 facet normal -0.0236387 -0.999721 0
  outer loop
   vertex -0.124591 -0.0812591 0.00999999
   vertex -0.103557 -0.0817564 -0.00999999
   vertex -0.103557 -0.0817564 0.00999999
  endloop
 endfacet
 facet normal -0.012844 -0.999918 0
  outer loop
   vertex -0.103557 -0.0817564 -0.00999999
   vertex -0.0822737 -0.0820298 -0.00999999
   vertex -0.103557 -0.0817564 0.00999999
  endloop
 endfacet
 facet normal -0.012844 -0.999918 0
  outer loop
   vertex -0.103557 -0.0817564 0.00999999
   vertex -0.0822737 -0.0820298 -0.00999999
   vertex -0.0822737 -0.0820298 0.00999999
  endloop
 endfacet
 facet normal -0.00295717 -0.999996 0
  outer loop
   vertex -0.0822737 -0.0820298 -0.00999999
   vertex -0.0608029 -0.0820933 -0.00999999
   vertex -0.0822737 -0.0820298 0.00999999
  endloop
 endfacet
 facet normal -0.00295717 -0.999996 0
  outer loop
   vertex -0.0822737 -0.0820298 0.00999999
   vertex -0.0608029 -0.0820933 -0.00999999
   vertex -0.0608029 -0.0820933 0.00999999
  endloop
 endfacet
 facet normal 0.00901756 -0.999959 0
  outer loop
   vertex -0.0608029 -0.0820933 -0.00999999
   vertex -0.0392015 -0.0818985 -0.00999999
   vertex -0.0608029 -0.0820933 0.00999999
  endloop
 endfacet
 facet normal 0.00901756 -0.999959 0
  outer loop
   vertex -0.0608029 -0.0820933 0.00999999
   vertex -0.0392015 -0.0818985 -0.00999999
   vertex -0.0392015 -0.0818985 0.00999999
  endloop
 endfacet
 facet normal 0.0198388 -0.999803 0
  outer loop
   vertex -0.0392015 -0.0818985 -0.00999999
   vertex -0.0175043 -0.081468 -0.00999999
   vertex -0.0392015 -0.0818985 0.00999999
  endloop
 endfacet
 facet normal 0.0198388 -0.999803 0
  outer loop
   vertex -0.0392015 -0.0818985 0.00999999
   vertex -0.0175043 -0.081468 -0.00999999
   vertex -0.0175043 -0.081468 0.00999999
  endloop
 endfacet
 facet normal 0.0327787 -0.999463 0
  outer loop
   vertex -0.0175043 -0.081468 -0.00999999
   vertex 0.00423219 -0.0807551 -0.00999999
   vertex -0.0175043 -0.081468 0.00999999
  endloop
 endfacet
 facet normal 0.0327787 -0.999463 0
  outer loop
   vertex -0.0175043 -0.081468 0.00999999
   vertex 0.00423219 -0.0807551 -0.00999999
   vertex 0.00423219 -0.0807551 0.00999999
  endloop
 endfacet
 facet normal 0.0453493 -0.998971 0
  outer loop
   vertex 0.00423219 -0.0807551 -0.00999999
   vertex 0.0259544 -0.079769 -0.00999999
   vertex 0.00423219 -0.0807551 0.00999999
  endloop
 endfacet
 facet normal 0.0453493 -0.998971 0
  outer loop
   vertex 0.00423219 -0.0807551 0.00999999
   vertex 0.0259544 -0.079769 -0.00999999
   vertex 0.0259544 -0.079769 0.00999999
  endloop
 endfacet
 facet normal 0.0608698 -0.998146 0
  outer loop
   vertex 0.0259544 -0.079769 -0.00999999
   vertex 0.0476049 -0.0784487 -0.00999999
   vertex 0.0259544 -0.079769 0.00999999
  endloop
 endfacet
 facet normal 0.0608698 -0.998146 0
  outer loop
   vertex 0.0259544 -0.079769 0.00999999
   vertex 0.0476049 -0.0784487 -0.00999999
   vertex 0.0476049 -0.0784487 0.00999999
  endloop
 endfacet
 facet normal 0.0766334 -0.997059 0
  outer loop
   vertex 0.0476049 -0.0784487 -0.00999999
   vertex 0.0691298 -0.0767943 -0.00999999
   vertex 0.0476049 -0.0784487 0.00999999
  endloop
 endfacet
 facet normal 0.0766334 -0.997059 0
  outer loop
   vertex 0.0476049 -0.0784487 0.00999999
   vertex 0.0691298 -0.0767943 -0.00999999
   vertex 0.0691298 -0.0767943 0.00999999
  endloop
 endfacet
 facet normal 0.095053 -0.995472 0
  outer loop
   vertex 0.0691298 -0.0767943 -0.00999999
   vertex 0.0904904 -0.0747547 -0.00999999
   vertex 0.0691298 -0.0767943 0.00999999
  endloop
 endfacet
 facet normal 0.095053 -0.995472 0
  outer loop
   vertex 0.0691298 -0.0767943 0.00999999
   vertex 0.0904904 -0.0747547 -0.00999999
   vertex 0.0904904 -0.0747547 0.00999999
  endloop
 endfacet
 facet normal 0.120225 -0.992747 0
  outer loop
   vertex 0.0904904 -0.0747547 -0.00999999
   vertex 0.111625 -0.0721951 -0.00999999
   vertex 0.0904904 -0.0747547 0.00999999
  endloop
 endfacet
 facet normal 0.120225 -0.992747 0
  outer loop
   vertex 0.0904904 -0.0747547 0.00999999
   vertex 0.111625 -0.0721951 -0.00999999
   vertex 0.111625 -0.0721951 0.00999999
  endloop
 endfacet
 facet normal 0.152367 -0.988324 0
  outer loop
   vertex 0.111625 -0.0721951 -0.00999999
   vertex 0.132465 -0.0689824 -0.00999999
   vertex 0.111625 -0.0721951 0.00999999
  endloop
 endfacet
 facet normal 0.152367 -0.988324 0
  outer loop
   vertex 0.111625 -0.0721951 0.00999999
   vertex 0.132465 -0.0689824 -0.00999999
   vertex 0.132465 -0.0689824 0.00999999
  endloop
 endfacet
 facet normal 0.192416 -0.981314 0
  outer loop
   vertex 0.132465 -0.0689824 -0.00999999
   vertex 0.152965 -0.0649628 -0.00999999
   vertex 0.132465 -0.0689824 0.00999999
  endloop
 endfacet
 facet normal 0.192416 -0.981314 0
  outer loop
   vertex 0.132465 -0.0689824 0.00999999
   vertex 0.152965 -0.0649628 -0.00999999
   vertex 0.152965 -0.0649628 0.00999999
  endloop
 endfacet
 facet normal 0.221226 -0.975223 0
  outer loop
   vertex 0.152965 -0.0649628 -0.00999999
   vertex 0.173093 -0.0603967 -0.00999999
   vertex 0.152965 -0.0649628 0.00999999
  endloop
 endfacet
 facet normal 0.221226 -0.975223 0
  outer loop
   vertex 0.152965 -0.0649628 0.00999999
   vertex 0.173093 -0.0603967 -0.00999999
   vertex 0.173093 -0.0603967 0.00999999
  endloop
 endfacet
 facet normal 0.24805 -0.968747 0
  outer loop
   vertex 0.173093 -0.0603967 -0.00999999
   vertex 0.192791 -0.055353 -0.00999999
   vertex 0.173093 -0.0603967 0.00999999
  endloop
 endfacet
 facet normal 0.24805 -0.968747 0
  outer loop
   vertex 0.173093 -0.0603967 0.00999999
   vertex 0.192791 -0.055353 -0.00999999
   vertex 0.192791 -0.055353 0.00999999
  endloop
 endfacet
 facet normal 0.26809 -0.963394 0
  outer loop
   vertex 0.192791 -0.055353 -0.00999999
   vertex 0.212031 -0.0499989 -0.00999999
   vertex 0.192791 -0.055353 0.00999999
  endloop
 endfacet
 facet normal 0.26809 -0.963394 0
  outer loop
   vertex 0.192791 -0.055353 0.00999999
   vertex 0.212031 -0.0499989 -0.00999999
   vertex 0.212031 -0.0499989 0.00999999
  endloop
 endfacet
 facet normal 0.288409 -0.957507 0
  outer loop
   vertex 0.212031 -0.0499989 -0.00999999
   vertex 0.23077 -0.0443547 -0.00999999
   vertex 0.212031 -0.0499989 0.00999999
  endloop
 endfacet
 facet normal 0.288409 -0.957507 0
  outer loop
   vertex 0.212031 -0.0499989 0.00999999
   vertex 0.23077 -0.0443547 -0.00999999
   vertex 0.23077 -0.0443547 0.00999999
  endloop
 endfacet
 facet normal 0.302428 -0.953172 0
  outer loop
   vertex 0.23077 -0.0443547 -0.00999999
   vertex 0.248969 -0.0385802 -0.00999999
   vertex 0.23077 -0.0443547 0.00999999
  endloop
 endfacet
 facet normal 0.302428 -0.953172 0
  outer loop
   vertex 0.23077 -0.0443547 0.00999999
   vertex 0.248969 -0.0385802 -0.00999999
   vertex 0.248969 -0.0385802 0.00999999
  endloop
 endfacet
 facet normal 0.314723 -0.949184 0
  outer loop
   vertex 0.248969 -0.0385802 -0.00999999
   vertex 0.26658 -0.0327411 -0.00999999
   vertex 0.248969 -0.0385802 0.00999999
  endloop
 endfacet
 facet normal 0.314723 -0.949184 0
  outer loop
   vertex 0.248969 -0.0385802 0.00999999
   vertex 0.26658 -0.0327411 -0.00999999
   vertex 0.26658 -0.0327411 0.00999999
  endloop
 endfacet
 facet normal 0.323814 -0.946121 0
  outer loop
   vertex 0.26658 -0.0327411 -0.00999999
   vertex 0.283579 -0.0269231 -0.00999999
   vertex 0.26658 -0.0327411 0.00999999
  endloop
 endfacet
 facet normal 0.323814 -0.946121 0
  outer loop
   vertex 0.26658 -0.0327411 0.00999999
   vertex 0.283579 -0.0269231 -0.00999999
   vertex 0.283579 -0.0269231 0.00999999
  endloop
 endfacet
 facet normal 0.329101 -0.944295 0
  outer loop
   vertex 0.283579 -0.0269231 -0.00999999
   vertex 0.299926 -0.0212259 -0.00999999
   vertex 0.283579 -0.0269231 0.00999999
  endloop
 endfacet
 facet normal 0.329101 -0.944295 0
  outer loop
   vertex 0.283579 -0.0269231 0.00999999
   vertex 0.299926 -0.0212259 -0.00999999
   vertex 0.299926 -0.0212259 0.00999999
  endloop
 endfacet
 facet normal 0.331014 -0.943626 0
  outer loop
   vertex 0.299926 -0.0212259 -0.00999999
   vertex 0.31559 -0.0157312 -0.00999999
   vertex 0.299926 -0.0212259 0.00999999
  endloop
 endfacet
 facet normal 0.331014 -0.943626 0
  outer loop
   vertex 0.299926 -0.0212259 0.00999999
   vertex 0.31559 -0.0157312 -0.00999999
   vertex 0.31559 -0.0157312 0.00999999
  endloop
 endfacet
 facet normal 0.330198 -0.943912 0
  outer loop
   vertex 0.31559 -0.0157312 -0.00999999
   vertex 0.33052 -0.0105083 -0.00999999
   vertex 0.31559 -0.0157312 0.00999999
  endloop
 endfacet
 facet normal 0.330198 -0.943912 0
  outer loop
   vertex 0.31559 -0.0157312 0.00999999
   vertex 0.33052 -0.0105083 -0.00999999
   vertex 0.33052 -0.0105083 0.00999999
  endloop
 endfacet
 facet normal 0.327173 -0.944964 0
  outer loop
   vertex 0.33052 -0.0105083 -0.00999999
   vertex 0.344709 -0.00559558 -0.00999999
   vertex 0.33052 -0.0105083 0.00999999
  endloop
 endfacet
 facet normal 0.327173 -0.944964 0
  outer loop
   vertex 0.33052 -0.0105083 0.00999999
   vertex 0.344709 -0.00559558 -0.00999999
   vertex 0.344709 -0.00559558 0.00999999
  endloop
 endfacet
 facet normal 0.323924 -0.946083 0
  outer loop
   vertex 0.344709 -0.00559558 -0.00999999
   vertex 0.358105 -0.00100924 -0.00999999
   vertex 0.344709 -0.00559558 0.00999999
  endloop
 endfacet
 facet normal 0.323924 -0.946083 0
  outer loop
   vertex 0.344709 -0.00559558 0.00999999
   vertex 0.358105 -0.00100924 -0.00999999
   vertex 0.358105 -0.00100924 0.00999999
  endloop
 endfacet
 facet normal 0.319596 -0.947554 0
  outer loop
   vertex 0.358105 -0.00100924 -0.00999999
   vertex 0.37068 0.00323222 -0.00999999
   vertex 0.358105 -0.00100924 0.00999999
  endloop
 endfacet
 facet normal 0.319596 -0.947554 0
  outer loop
   vertex 0.358105 -0.00100924 0.00999999
   vertex 0.37068 0.00323222 -0.00999999
   vertex 0.37068 0.00323222 0.00999999
  endloop
 endfacet
 facet normal 0.310916 -0.950437 0
  outer loop
   vertex 0.37068 0.00323222 -0.00999999
   vertex 0.382411 0.00706984 -0.00999999
   vertex 0.37068 0.00323222 0.00999999
  endloop
 endfacet
 facet normal 0.310916 -0.950437 0
  outer loop
   vertex 0.37068 0.00323222 0.00999999
   vertex 0.382411 0.00706984 -0.00999999
   vertex 0.382411 0.00706984 0.00999999
  endloop
 endfacet
 facet normal 0.296314 -0.955091 0
  outer loop
   vertex 0.382411 0.00706984 -0.00999999
   vertex 0.393275 0.0104402 -0.00999999
   vertex 0.382411 0.00706984 0.00999999
  endloop
 endfacet
 facet normal 0.296314 -0.955091 0
  outer loop
   vertex 0.382411 0.00706984 0.00999999
   vertex 0.393275 0.0104402 -0.00999999
   vertex 0.393275 0.0104402 0.00999999
  endloop
 endfacet
 facet normal 0.276641 -0.960973 0
  outer loop
   vertex 0.393275 0.0104402 -0.00999999
   vertex 0.403245 0.0133105 -0.00999999
   vertex 0.393275 0.0104402 0.00999999
  endloop
 endfacet
 facet normal 0.276641 -0.960973 0
  outer loop
   vertex 0.393275 0.0104402 0.00999999
   vertex 0.403245 0.0133105 -0.00999999
   vertex 0.403245 0.0133105 0.00999999
  endloop
 endfacet
 facet normal 0.255464 -0.966819 0
  outer loop
   vertex 0.403245 0.0133105 -0.00999999
   vertex 0.412303 0.0157039 -0.00999999
   vertex 0.403245 0.0133105 0.00999999
  endloop
 endfacet
 facet normal 0.255464 -0.966819 0
  outer loop
   vertex 0.403245 0.0133105 0.00999999
   vertex 0.412303 0.0157039 -0.00999999
   vertex 0.412303 0.0157039 0.00999999
  endloop
 endfacet
 facet normal 0.227818 -0.973704 0
  outer loop
   vertex 0.412303 0.0157039 -0.00999999
   vertex 0.420414 0.0176016 -0.00999999
   vertex 0.412303 0.0157039 0.00999999
  endloop
 endfacet
 facet normal 0.227818 -0.973704 0
  outer loop
   vertex 0.412303 0.0157039 0.00999999
   vertex 0.420414 0.0176016 -0.00999999
   vertex 0.420414 0.0176016 0.00999999
  endloop
 endfacet
 facet normal 0.210854 -0.977518 0
  outer loop
   vertex 0.420414 0.0176016 -0.00999999
   vertex 0.427561 0.0191433 -0.00999999
   vertex 0.420414 0.0176016 0.00999999
  endloop
 endfacet
 facet normal 0.210854 -0.977518 0
  outer loop
   vertex 0.420414 0.0176016 0.00999999
   vertex 0.427561 0.0191433 -0.00999999
   vertex 0.427561 0.0191433 0.00999999
  endloop
 endfacet
 facet normal 0.198022 -0.980198 0
  outer loop
   vertex 0.427561 0.0191433 -0.00999999
   vertex 0.433723 0.0203882 -0.00999999
   vertex 0.427561 0.0191433 0.00999999
  endloop
 endfacet
 facet normal 0.198022 -0.980198 0
  outer loop
   vertex 0.427561 0.0191433 0.00999999
   vertex 0.433723 0.0203882 -0.00999999
   vertex 0.433723 0.0203882 0.00999999
  endloop
 endfacet
 facet normal 0.197904 -0.980221 0
  outer loop
   vertex 0.433723 0.0203882 -0.00999999
   vertex 0.438878 0.0214289 -0.00999999
   vertex 0.433723 0.0203882 0.00999999
  endloop
 endfacet
 facet normal 0.197904 -0.980221 0
  outer loop
   vertex 0.433723 0.0203882 0.00999999
   vertex 0.438878 0.0214289 -0.00999999
   vertex 0.438878 0.0214289 0.00999999
  endloop
 endfacet
 facet normal 0.19824 -0.980154 0
  outer loop
   vertex 0.438878 0.0214289 -0.00999999
   vertex 0.443016 0.0222658 -0.00999999
   vertex 0.438878 0.0214289 0.00999999
  endloop
 endfacet
 facet normal 0.19824 -0.980154 0
  outer loop
   vertex 0.438878 0.0214289 0.00999999
   vertex 0.443016 0.0222658 -0.00999999
   vertex 0.443016 0.0222658 0.00999999
  endloop
 endfacet
 facet normal 0.197835 -0.980235 0
  outer loop
   vertex 0.443016 0.0222658 -0.00999999
   vertex 0.446128 0.0228939 -0.00999999
   vertex 0.443016 0.0222658 0.00999999
  endloop
 endfacet
 facet normal 0.197835 -0.980235 0
  outer loop
   vertex 0.443016 0.0222658 0.00999999
   vertex 0.446128 0.0228939 -0.00999999
   vertex 0.446128 0.0228939 0.00999999
  endloop
 endfacet
 facet normal 0.197844 -0.980233 0
  outer loop
   vertex 0.446128 0.0228939 -0.00999999
   vertex 0.448215 0.0233151 -0.00999999
   vertex 0.446128 0.0228939 0.00999999
  endloop
 endfacet
 facet normal 0.197844 -0.980233 0
  outer loop
   vertex 0.446128 0.0228939 0.00999999
   vertex 0.448215 0.0233151 -0.00999999
   vertex 0.448215 0.0233151 0.00999999
  endloop
 endfacet
 facet normal 0.198065 -0.980189 0
  outer loop
   vertex 0.448215 0.0233151 -0.00999999
   vertex 0.449383 0.0235512 -0.00999999
   vertex 0.448215 0.0233151 0.00999999
  endloop
 endfacet
 facet normal 0.198065 -0.980189 0
  outer loop
   vertex 0.448215 0.0233151 0.00999999
   vertex 0.449383 0.0235512 -0.00999999
   vertex 0.449383 0.0235512 0.00999999
  endloop
 endfacet
 facet normal 0.0945228 0.995523 -0
  outer loop
   vertex 0.449383 0.0235512 -0.00999999
   vertex 0.448197 0.0236638 -0.00999999
   vertex 0.449383 0.0235512 0.00999999
  endloop
 endfacet
 facet normal 0.0945228 0.995523 0
  outer loop
   vertex 0.449383 0.0235512 0.00999999
   vertex 0.448197 0.0236638 -0.00999999
   vertex 0.448197 0.0236638 0.00999999
  endloop
 endfacet
 facet normal 0 0 -1
  outer loop
   vertex -0.449383 -0.0235512 -0.00999999
   vertex -0.448463 -0.0185245 -0.00999999
   vertex -0.447943 -0.0284541 -0.00999999
  endloop
 endfacet
 facet normal 0 0 -1
  outer loop
   vertex -0.448463 -0.0185245 -0.00999999
   vertex -0.446545 -0.0150164 -0.00999999
   vertex -0.447943 -0.0284541 -0.00999999
  endloop
 endfacet
 facet normal 0 0 -1
  outer loop
   vertex -0.447943 -0.0284541 -0.00999999
   vertex -0.446545 -0.0150164 -0.00999999
   vertex -0.445668 -0.0317425 -0.00999999
  endloop
 endfacet
 facet normal 0 0 -1
  outer loop
   vertex -0.446545 -0.0150164 -0.00999999
   vertex -0.443581 -0.0115248 -0.00999999
   vertex -0.445668 -0.0317425 -0.00999999
  endloop
 endfacet
 facet normal 0 0 -1
  outer loop
   vertex -0.445668 -0.0317425 -0.00999999
   vertex -0.443581 -0.0115248 -0.00999999
   vertex -0.442356 -0.0349053 -0.00999999
  endloop
 endfacet
 facet normal 0 0 -1
  outer loop
   vertex -0.443581 -0.0115248 -0.00999999
   vertex -0.439577 -0.00811189 -0.00999999
   vertex -0.442356 -0.0349053 -0.00999999
  endloop
 endfacet
 facet normal 0 0 -1
  outer loop
   vertex -0.442356 -0.0349053 -0.00999999
   vertex -0.439577 -0.00811189 -0.00999999
   vertex -0.438017 -0.0378808 -0.00999999
  endloop
 endfacet
 facet normal 0 0 -1
  outer loop
   vertex -0.439577 -0.00811189 -0.00999999
   vertex -0.434538 -0.00480706 -0.00999999
   vertex -0.438017 -0.0378808 -0.00999999
  endloop
 endfacet
 facet normal 0 0 -1
  outer loop
   vertex -0.438017 -0.0378808 -0.00999999
   vertex -0.434538 -0.00480706 -0.00999999
   vertex -0.43266 -0.0406409 -0.00999999
  endloop
 endfacet
 facet normal 0 0 -1
  outer loop
   vertex -0.434538 -0.00480706 -0.00999999
   vertex -0.42848 -0.00157047 -0.00999999
   vertex -0.43266 -0.0406409 -0.00999999
  endloop
 endfacet
 facet normal 0 0 -1
  outer loop
   vertex -0.43266 -0.0406409 -0.00999999
   vertex -0.42848 -0.00157047 -0.00999999
   vertex -0.426297 -0.0432265 -0.00999999
  endloop
 endfacet
 facet normal 0 0 -1
  outer loop
   vertex -0.42848 -0.00157047 -0.00999999
   vertex -0.421426 0.00173906 -0.00999999
   vertex -0.426297 -0.0432265 -0.00999999
  endloop
 endfacet
 facet normal 0 0 -1
  outer loop
   vertex -0.426297 -0.0432265 -0.00999999
   vertex -0.421426 0.00173906 -0.00999999
   vertex -0.418935 -0.0457805 -0.00999999
  endloop
 endfacet
 facet normal 0 0 -1
  outer loop
   vertex -0.421426 0.00173906 -0.00999999
   vertex -0.41339 0.00510992 -0.00999999
   vertex -0.418935 -0.0457805 -0.00999999
  endloop
 endfacet
 facet normal 0 0 -1
  outer loop
   vertex -0.418935 -0.0457805 -0.00999999
   vertex -0.41339 0.00510992 -0.00999999
   vertex -0.410592 -0.048293 -0.00999999
  endloop
 endfacet
 facet normal 0 0 -1
  outer loop
   vertex -0.41339 0.00510992 -0.00999999
   vertex -0.404395 0.00857706 -0.00999999
   vertex -0.410592 -0.048293 -0.00999999
  endloop
 endfacet
 facet normal 0 0 -1
  outer loop
   vertex -0.410592 -0.048293 -0.00999999
   vertex -0.404395 0.00857706 -0.00999999
   vertex -0.401283 -0.0508008 -0.00999999
  endloop
 endfacet
 facet normal 0 0 -1
  outer loop
   vertex -0.404395 0.00857706 -0.00999999
   vertex -0.39446 0.0121177 -0.00999999
   vertex -0.401283 -0.0508008 -0.00999999
  endloop
 endfacet
 facet normal 0 0 -1
  outer loop
   vertex -0.401283 -0.0508008 -0.00999999
   vertex -0.39446 0.0121177 -0.00999999
   vertex -0.391033 -0.0532837 -0.00999999
  endloop
 endfacet
 facet normal 0 0 -1
  outer loop
   vertex -0.391033 -0.0532837 -0.00999999
   vertex -0.383609 0.0157218 -0.00999999
   vertex -0.379864 -0.0557337 -0.00999999
  endloop
 endfacet
 facet normal 0 0 -1
  outer loop
   vertex -0.39446 0.0121177 -0.00999999
   vertex -0.383609 0.0157218 -0.00999999
   vertex -0.391033 -0.0532837 -0.00999999
  endloop
 endfacet
 facet normal 0 0 -1
  outer loop
   vertex -0.379864 -0.0557337 -0.00999999
   vertex -0.371867 0.0193834 -0.00999999
   vertex -0.367804 -0.0581478 -0.00999999
  endloop
 endfacet
 facet normal 0 0 -1
  outer loop
   vertex -0.383609 0.0157218 -0.00999999
   vertex -0.371867 0.0193834 -0.00999999
   vertex -0.379864 -0.0557337 -0.00999999
  endloop
 endfacet
 facet normal 0 0 -1
  outer loop
   vertex -0.367804 -0.0581478 -0.00999999
   vertex -0.359262 0.023091 -0.00999999
   vertex -0.35488 -0.0605176 -0.00999999
  endloop
 endfacet
 facet normal 0 0 -1
  outer loop
   vertex -0.371867 0.0193834 -0.00999999
   vertex -0.359262 0.023091 -0.00999999
   vertex -0.367804 -0.0581478 -0.00999999
  endloop
 endfacet
 facet normal 0 0 -1
  outer loop
   vertex -0.35488 -0.0605176 -0.00999999
   vertex -0.345822 0.0268253 -0.00999999
   vertex -0.341123 -0.0628266 -0.00999999
  endloop
 endfacet
 facet normal 0 0 -1
  outer loop
   vertex -0.359262 0.023091 -0.00999999
   vertex -0.345822 0.0268253 -0.00999999
   vertex -0.35488 -0.0605176 -0.00999999
  endloop
 endfacet
 facet normal 0 0 -1
  outer loop
   vertex -0.341123 -0.0628266 -0.00999999
   vertex -0.331571 0.0305634 -0.00999999
   vertex -0.32656 -0.0650546 -0.00999999
  endloop
 endfacet
 facet normal 0 0 -1
  outer loop
   vertex -0.345822 0.0268253 -0.00999999
   vertex -0.331571 0.0305634 -0.00999999
   vertex -0.341123 -0.0628266 -0.00999999
  endloop
 endfacet
 facet normal 0 0 -1
  outer loop
   vertex -0.331571 0.0305634 -0.00999999
   vertex -0.316562 0.0342862 -0.00999999
   vertex -0.32656 -0.0650546 -0.00999999
  endloop
 endfacet
 facet normal 0 0 -1
  outer loop
   vertex -0.32656 -0.0650546 -0.00999999
   vertex -0.316562 0.0342862 -0.00999999
   vertex -0.311244 -0.0671881 -0.00999999
  endloop
 endfacet
 facet normal 0 0 -1
  outer loop
   vertex -0.311244 -0.0671881 -0.00999999
   vertex -0.300804 0.0379807 -0.00999999
   vertex -0.295186 -0.0692152 -0.00999999
  endloop
 endfacet
 facet normal 0 0 -1
  outer loop
   vertex -0.316562 0.0342862 -0.00999999
   vertex -0.300804 0.0379807 -0.00999999
   vertex -0.311244 -0.0671881 -0.00999999
  endloop
 endfacet
 facet normal 0 0 -1
  outer loop
   vertex -0.300804 0.0379807 -0.00999999
   vertex -0.28435 0.0416368 -0.00999999
   vertex -0.295186 -0.0692152 -0.00999999
  endloop
 endfacet
 facet normal 0 0 -1
  outer loop
   vertex -0.295186 -0.0692152 -0.00999999
   vertex -0.28435 0.0416368 -0.00999999
   vertex -0.27844 -0.0711314 -0.00999999
  endloop
 endfacet
 facet normal 0 0 -1
  outer loop
   vertex -0.28435 0.0416368 -0.00999999
   vertex -0.267234 0.0452204 -0.00999999
   vertex -0.27844 -0.0711314 -0.00999999
  endloop
 endfacet
 facet normal 0 0 -1
  outer loop
   vertex -0.27844 -0.0711314 -0.00999999
   vertex -0.267234 0.0452204 -0.00999999
   vertex -0.261043 -0.0729063 -0.00999999
  endloop
 endfacet
 facet normal 0 0 -1
  outer loop
   vertex -0.267234 0.0452204 -0.00999999
   vertex -0.249502 0.0487408 -0.00999999
   vertex -0.261043 -0.0729063 -0.00999999
  endloop
 endfacet
 facet normal 0 0 -1
  outer loop
   vertex -0.261043 -0.0729063 -0.00999999
   vertex -0.249502 0.0487408 -0.00999999
   vertex -0.24304 -0.0745538 -0.00999999
  endloop
 endfacet
 facet normal 0 0 -1
  outer loop
   vertex -0.249502 0.0487408 -0.00999999
   vertex -0.23118 0.0521938 -0.00999999
   vertex -0.24304 -0.0745538 -0.00999999
  endloop
 endfacet
 facet normal 0 0 -1
  outer loop
   vertex -0.24304 -0.0745538 -0.00999999
   vertex -0.23118 0.0521938 -0.00999999
   vertex -0.224458 -0.0760728 -0.00999999
  endloop
 endfacet
 facet normal 0 0 -1
  outer loop
   vertex -0.23118 0.0521938 -0.00999999
   vertex -0.212323 0.0555595 -0.00999999
   vertex -0.224458 -0.0760728 -0.00999999
  endloop
 endfacet
 facet normal 0 0 -1
  outer loop
   vertex -0.224458 -0.0760728 -0.00999999
   vertex -0.212323 0.0555595 -0.00999999
   vertex -0.205352 -0.0774489 -0.00999999
  endloop
 endfacet
 facet normal 0 0 -1
  outer loop
   vertex -0.212323 0.0555595 -0.00999999
   vertex -0.192972 0.0588033 -0.00999999
   vertex -0.205352 -0.0774489 -0.00999999
  endloop
 endfacet
 facet normal 0 0 -1
  outer loop
   vertex -0.205352 -0.0774489 -0.00999999
   vertex -0.192972 0.0588033 -0.00999999
   vertex -0.185768 -0.0786522 -0.00999999
  endloop
 endfacet
 facet normal 0 0 -1
  outer loop
   vertex -0.192972 0.0588033 -0.00999999
   vertex -0.173174 0.0619408 -0.00999999
   vertex -0.185768 -0.0786522 -0.00999999
  endloop
 endfacet
 facet normal 0 0 -1
  outer loop
   vertex -0.185768 -0.0786522 -0.00999999
   vertex -0.173174 0.0619408 -0.00999999
   vertex -0.165751 -0.0797031 -0.00999999
  endloop
 endfacet
 facet normal 0 0 -1
  outer loop
   vertex -0.173174 0.0619408 -0.00999999
   vertex -0.152963 0.0649403 -0.00999999
   vertex -0.165751 -0.0797031 -0.00999999
  endloop
 endfacet
 facet normal 0 0 -1
  outer loop
   vertex -0.165751 -0.0797031 -0.00999999
   vertex -0.152963 0.0649403 -0.00999999
   vertex -0.145337 -0.0805736 -0.00999999
  endloop
 endfacet
 facet normal 0 0 -1
  outer loop
   vertex -0.152963 0.0649403 -0.00999999
   vertex -0.132402 0.0677906 -0.00999999
   vertex -0.145337 -0.0805736 -0.00999999
  endloop
 endfacet
 facet normal 0 0 -1
  outer loop
   vertex -0.145337 -0.0805736 -0.00999999
   vertex -0.132402 0.0677906 -0.00999999
   vertex -0.124591 -0.0812591 -0.00999999
  endloop
 endfacet
 facet normal 0 0 -1
  outer loop
   vertex -0.132402 0.0677906 -0.00999999
   vertex -0.111536 0.0704839 -0.00999999
   vertex -0.124591 -0.0812591 -0.00999999
  endloop
 endfacet
 facet normal 0 0 -1
  outer loop
   vertex -0.124591 -0.0812591 -0.00999999
   vertex -0.111536 0.0704839 -0.00999999
   vertex -0.103557 -0.0817564 -0.00999999
  endloop
 endfacet
 facet normal 0 0 -1
  outer loop
   vertex -0.111536 0.0704839 -0.00999999
   vertex -0.0903974 0.0729805 -0.00999999
   vertex -0.103557 -0.0817564 -0.00999999
  endloop
 endfacet
 facet normal 0 0 -1
  outer loop
   vertex -0.103557 -0.0817564 -0.00999999
   vertex -0.0903974 0.0729805 -0.00999999
   vertex -0.0822737 -0.0820298 -0.00999999
  endloop
 endfacet
 facet normal 0 0 -1
  outer loop
   vertex -0.0822737 -0.0820298 -0.00999999
   vertex -0.0903974 0.0729805 -0.00999999
   vertex -0.0608029 -0.0820933 -0.00999999
  endloop
 endfacet
 facet normal 0 0 -1
  outer loop
   vertex -0.0903974 0.0729805 -0.00999999
   vertex -0.0690509 0.0752879 -0.00999999
   vertex -0.0608029 -0.0820933 -0.00999999
  endloop
 endfacet
 facet normal 0 0 -1
  outer loop
   vertex -0.0690509 0.0752879 -0.00999999
   vertex -0.0475475 0.0773522 -0.00999999
   vertex -0.0608029 -0.0820933 -0.00999999
  endloop
 endfacet
 facet normal 0 0 -1
  outer loop
   vertex -0.0608029 -0.0820933 -0.00999999
   vertex -0.0475475 0.0773522 -0.00999999
   vertex -0.0392015 -0.0818985 -0.00999999
  endloop
 endfacet
 facet normal 0 0 -1
  outer loop
   vertex -0.0475475 0.0773522 -0.00999999
   vertex -0.0259241 0.079192 -0.00999999
   vertex -0.0392015 -0.0818985 -0.00999999
  endloop
 endfacet
 facet normal 0 0 -1
  outer loop
   vertex -0.0392015 -0.0818985 -0.00999999
   vertex -0.0259241 0.079192 -0.00999999
   vertex -0.0175043 -0.081468 -0.00999999
  endloop
 endfacet
 facet normal 0 0 -1
  outer loop
   vertex -0.0259241 0.079192 -0.00999999
   vertex -0.00423219 0.0807551 -0.00999999
   vertex -0.0175043 -0.081468 -0.00999999
  endloop
 endfacet
 facet normal 0 0 -1
  outer loop
   vertex -0.0175043 -0.081468 -0.00999999
   vertex -0.00423219 0.0807551 -0.00999999
   vertex 0.00423219 -0.0807551 -0.00999999
  endloop
 endfacet
 facet normal 0 0 -1
  outer loop
   vertex -0.00423219 0.0807551 -0.00999999
   vertex 0.0174741 0.082045 -0.00999999
   vertex 0.00423219 -0.0807551 -0.00999999
  endloop
 endfacet
 facet normal 0 0 -1
  outer loop
   vertex 0.00423219 -0.0807551 -0.00999999
   vertex 0.0174741 0.082045 -0.00999999
   vertex 0.0259544 -0.079769 -0.00999999
  endloop
 endfacet
 facet normal 0 0 -1
  outer loop
   vertex 0.0174741 0.082045 -0.00999999
   vertex 0.039144 0.082995 -0.00999999
   vertex 0.0259544 -0.079769 -0.00999999
  endloop
 endfacet
 facet normal 0 0 -1
  outer loop
   vertex 0.0259544 -0.079769 -0.00999999
   vertex 0.039144 0.082995 -0.00999999
   vertex 0.0476049 -0.0784487 -0.00999999
  endloop
 endfacet
 facet normal 0 0 -1
  outer loop
   vertex 0.039144 0.082995 -0.00999999
   vertex 0.0607239 0.0835996 -0.00999999
   vertex 0.0476049 -0.0784487 -0.00999999
  endloop
 endfacet
 facet normal 0 0 -1
  outer loop
   vertex 0.0476049 -0.0784487 -0.00999999
   vertex 0.0607239 0.0835996 -0.00999999
   vertex 0.0691298 -0.0767943 -0.00999999
  endloop
 endfacet
 facet normal 0 0 -1
  outer loop
   vertex 0.0607239 0.0835996 -0.00999999
   vertex 0.0821806 0.083804 -0.00999999
   vertex 0.0691298 -0.0767943 -0.00999999
  endloop
 endfacet
 facet normal 0 0 -1
  outer loop
   vertex 0.0691298 -0.0767943 -0.00999999
   vertex 0.0821806 0.083804 -0.00999999
   vertex 0.0904904 -0.0747547 -0.00999999
  endloop
 endfacet
 facet normal 0 0 -1
  outer loop
   vertex 0.0821806 0.083804 -0.00999999
   vertex 0.103467 0.0834677 -0.00999999
   vertex 0.0904904 -0.0747547 -0.00999999
  endloop
 endfacet
 facet normal 0 0 -1
  outer loop
   vertex 0.0904904 -0.0747547 -0.00999999
   vertex 0.103467 0.0834677 -0.00999999
   vertex 0.111625 -0.0721951 -0.00999999
  endloop
 endfacet
 facet normal 0 0 -1
  outer loop
   vertex 0.111625 -0.0721951 -0.00999999
   vertex 0.124529 0.0824508 -0.00999999
   vertex 0.132465 -0.0689824 -0.00999999
  endloop
 endfacet
 facet normal 0 0 -1
  outer loop
   vertex 0.132465 -0.0689824 -0.00999999
   vertex 0.124529 0.0824508 -0.00999999
   vertex 0.152965 -0.0649628 -0.00999999
  endloop
 endfacet
 facet normal 0 0 -1
  outer loop
   vertex 0.103467 0.0834677 -0.00999999
   vertex 0.124529 0.0824508 -0.00999999
   vertex 0.111625 -0.0721951 -0.00999999
  endloop
 endfacet
 facet normal 0 0 -1
  outer loop
   vertex 0.124529 0.0824508 -0.00999999
   vertex 0.145336 0.0805961 -0.00999999
   vertex 0.152965 -0.0649628 -0.00999999
  endloop
 endfacet
 facet normal 0 0 -1
  outer loop
   vertex 0.152965 -0.0649628 -0.00999999
   vertex 0.165832 0.078159 -0.00999999
   vertex 0.173093 -0.0603967 -0.00999999
  endloop
 endfacet
 facet normal 0 0 -1
  outer loop
   vertex 0.145336 0.0805961 -0.00999999
   vertex 0.165832 0.078159 -0.00999999
   vertex 0.152965 -0.0649628 -0.00999999
  endloop
 endfacet
 facet normal 0 0 -1
  outer loop
   vertex 0.173093 -0.0603967 -0.00999999
   vertex 0.185949 0.0752019 -0.00999999
   vertex 0.192791 -0.055353 -0.00999999
  endloop
 endfacet
 facet normal 0 0 -1
  outer loop
   vertex 0.165832 0.078159 -0.00999999
   vertex 0.185949 0.0752019 -0.00999999
   vertex 0.173093 -0.0603967 -0.00999999
  endloop
 endfacet
 facet normal 0 0 -1
  outer loop
   vertex 0.192791 -0.055353 -0.00999999
   vertex 0.205643 0.0718883 -0.00999999
   vertex 0.212031 -0.0499989 -0.00999999
  endloop
 endfacet
 facet normal 0 0 -1
  outer loop
   vertex 0.185949 0.0752019 -0.00999999
   vertex 0.205643 0.0718883 -0.00999999
   vertex 0.192791 -0.055353 -0.00999999
  endloop
 endfacet
 facet normal 0 0 -1
  outer loop
   vertex 0.212031 -0.0499989 -0.00999999
   vertex 0.224869 0.0682337 -0.00999999
   vertex 0.23077 -0.0443547 -0.00999999
  endloop
 endfacet
 facet normal 0 0 -1
  outer loop
   vertex 0.205643 0.0718883 -0.00999999
   vertex 0.224869 0.0682337 -0.00999999
   vertex 0.212031 -0.0499989 -0.00999999
  endloop
 endfacet
 facet normal 0 0 -1
  outer loop
   vertex 0.23077 -0.0443547 -0.00999999
   vertex 0.224869 0.0682337 -0.00999999
   vertex 0.248969 -0.0385802 -0.00999999
  endloop
 endfacet
 facet normal 0 0 -1
  outer loop
   vertex 0.248969 -0.0385802 -0.00999999
   vertex 0.243573 0.0643933 -0.00999999
   vertex 0.26658 -0.0327411 -0.00999999
  endloop
 endfacet
 facet normal 0 0 -1
  outer loop
   vertex 0.224869 0.0682337 -0.00999999
   vertex 0.243573 0.0643933 -0.00999999
   vertex 0.248969 -0.0385802 -0.00999999
  endloop
 endfacet
 facet normal 0 0 -1
  outer loop
   vertex 0.26658 -0.0327411 -0.00999999
   vertex 0.261697 0.0604269 -0.00999999
   vertex 0.283579 -0.0269231 -0.00999999
  endloop
 endfacet
 facet normal 0 0 -1
  outer loop
   vertex 0.243573 0.0643933 -0.00999999
   vertex 0.261697 0.0604269 -0.00999999
   vertex 0.26658 -0.0327411 -0.00999999
  endloop
 endfacet
 facet normal 0 0 -1
  outer loop
   vertex 0.261697 0.0604269 -0.00999999
   vertex 0.279211 0.0564177 -0.00999999
   vertex 0.283579 -0.0269231 -0.00999999
  endloop
 endfacet
 facet normal 0 0 -1
  outer loop
   vertex 0.283579 -0.0269231 -0.00999999
   vertex 0.296064 0.0524604 -0.00999999
   vertex 0.299926 -0.0212259 -0.00999999
  endloop
 endfacet
 facet normal 0 0 -1
  outer loop
   vertex 0.279211 0.0564177 -0.00999999
   vertex 0.296064 0.0524604 -0.00999999
   vertex 0.283579 -0.0269231 -0.00999999
  endloop
 endfacet
 facet normal 0 0 -1
  outer loop
   vertex 0.299926 -0.0212259 -0.00999999
   vertex 0.312217 0.0486331 -0.00999999
   vertex 0.31559 -0.0157312 -0.00999999
  endloop
 endfacet
 facet normal 0 0 -1
  outer loop
   vertex 0.296064 0.0524604 -0.00999999
   vertex 0.312217 0.0486331 -0.00999999
   vertex 0.299926 -0.0212259 -0.00999999
  endloop
 endfacet
 facet normal 0 0 -1
  outer loop
   vertex 0.31559 -0.0157312 -0.00999999
   vertex 0.327611 0.0449995 -0.00999999
   vertex 0.33052 -0.0105083 -0.00999999
  endloop
 endfacet
 facet normal 0 0 -1
  outer loop
   vertex 0.312217 0.0486331 -0.00999999
   vertex 0.327611 0.0449995 -0.00999999
   vertex 0.31559 -0.0157312 -0.00999999
  endloop
 endfacet
 facet normal 0 0 -1
  outer loop
   vertex 0.33052 -0.0105083 -0.00999999
   vertex 0.342236 0.0415969 -0.00999999
   vertex 0.344709 -0.00559558 -0.00999999
  endloop
 endfacet
 facet normal 0 0 -1
  outer loop
   vertex 0.327611 0.0449995 -0.00999999
   vertex 0.342236 0.0415969 -0.00999999
   vertex 0.33052 -0.0105083 -0.00999999
  endloop
 endfacet
 facet normal 0 0 -1
  outer loop
   vertex 0.344709 -0.00559558 -0.00999999
   vertex 0.356037 0.0384358 -0.00999999
   vertex 0.358105 -0.00100924 -0.00999999
  endloop
 endfacet
 facet normal 0 0 -1
  outer loop
   vertex 0.342236 0.0415969 -0.00999999
   vertex 0.356037 0.0384358 -0.00999999
   vertex 0.344709 -0.00559558 -0.00999999
  endloop
 endfacet
 facet normal 0 0 -1
  outer loop
   vertex 0.358105 -0.00100924 -0.00999999
   vertex 0.368987 0.0355321 -0.00999999
   vertex 0.37068 0.00323222 -0.00999999
  endloop
 endfacet
 facet normal 0 0 -1
  outer loop
   vertex 0.356037 0.0384358 -0.00999999
   vertex 0.368987 0.0355321 -0.00999999
   vertex 0.358105 -0.00100924 -0.00999999
  endloop
 endfacet
 facet normal 0 0 -1
  outer loop
   vertex 0.37068 0.00323222 -0.00999999
   vertex 0.381055 0.0329417 -0.00999999
   vertex 0.382411 0.00706984 -0.00999999
  endloop
 endfacet
 facet normal 0 0 -1
  outer loop
   vertex 0.368987 0.0355321 -0.00999999
   vertex 0.381055 0.0329417 -0.00999999
   vertex 0.37068 0.00323222 -0.00999999
  endloop
 endfacet
 facet normal 0 0 -1
  outer loop
   vertex 0.382411 0.00706984 -0.00999999
   vertex 0.392211 0.0307254 -0.00999999
   vertex 0.393275 0.0104402 -0.00999999
  endloop
 endfacet
 facet normal 0 0 -1
  outer loop
   vertex 0.381055 0.0329417 -0.00999999
   vertex 0.392211 0.0307254 -0.00999999
   vertex 0.382411 0.00706984 -0.00999999
  endloop
 endfacet
 facet normal 0 0 -1
  outer loop
   vertex 0.393275 0.0104402 -0.00999999
   vertex 0.402427 0.028913 -0.00999999
   vertex 0.403245 0.0133105 -0.00999999
  endloop
 endfacet
 facet normal 0 0 -1
  outer loop
   vertex 0.403245 0.0133105 -0.00999999
   vertex 0.402427 0.028913 -0.00999999
   vertex 0.412303 0.0157039 -0.00999999
  endloop
 endfacet
 facet normal 0 0 -1
  outer loop
   vertex 0.392211 0.0307254 -0.00999999
   vertex 0.402427 0.028913 -0.00999999
   vertex 0.393275 0.0104402 -0.00999999
  endloop
 endfacet
 facet normal 0 0 -1
  outer loop
   vertex 0.402427 0.028913 -0.00999999
   vertex 0.411686 0.0274795 -0.00999999
   vertex 0.412303 0.0157039 -0.00999999
  endloop
 endfacet
 facet normal 0 0 -1
  outer loop
   vertex 0.412303 0.0157039 -0.00999999
   vertex 0.411686 0.0274795 -0.00999999
   vertex 0.420414 0.0176016 -0.00999999
  endloop
 endfacet
 facet normal 0 0 -1
  outer loop
   vertex 0.411686 0.0274795 -0.00999999
   vertex 0.419951 0.0264401 -0.00999999
   vertex 0.420414 0.0176016 -0.00999999
  endloop
 endfacet
 facet normal 0 0 -1
  outer loop
   vertex 0.420414 0.0176016 -0.00999999
   vertex 0.42722 0.0256539 -0.00999999
   vertex 0.427561 0.0191433 -0.00999999
  endloop
 endfacet
 facet normal 0 0 -1
  outer loop
   vertex 0.419951 0.0264401 -0.00999999
   vertex 0.42722 0.0256539 -0.00999999
   vertex 0.420414 0.0176016 -0.00999999
  endloop
 endfacet
 facet normal 0 0 -1
  outer loop
   vertex 0.427561 0.0191433 -0.00999999
   vertex 0.433479 0.02506 -0.00999999
   vertex 0.433723 0.0203882 -0.00999999
  endloop
 endfacet
 facet normal 0 0 -1
  outer loop
   vertex 0.42722 0.0256539 -0.00999999
   vertex 0.433479 0.02506 -0.00999999
   vertex 0.427561 0.0191433 -0.00999999
  endloop
 endfacet
 facet normal 0 0 -1
  outer loop
   vertex 0.433723 0.0203882 -0.00999999
   vertex 0.438714 0.0245638 -0.00999999
   vertex 0.438878 0.0214289 -0.00999999
  endloop
 endfacet
 facet normal 0 0 -1
  outer loop
   vertex 0.433479 0.02506 -0.00999999
   vertex 0.438714 0.0245638 -0.00999999
   vertex 0.433723 0.0203882 -0.00999999
  endloop
 endfacet
 facet normal 0 0 -1
  outer loop
   vertex 0.438878 0.0214289 -0.00999999
   vertex 0.442916 0.024164 -0.00999999
   vertex 0.443016 0.0222658 -0.00999999
  endloop
 endfacet
 facet normal 0 0 -1
  outer loop
   vertex 0.438714 0.0245638 -0.00999999
   vertex 0.442916 0.024164 -0.00999999
   vertex 0.438878 0.0214289 -0.00999999
  endloop
 endfacet
 facet normal 0 0 -1
  outer loop
   vertex 0.443016 0.0222658 -0.00999999
   vertex 0.446077 0.0238646 -0.00999999
   vertex 0.446128 0.0228939 -0.00999999
  endloop
 endfacet
 facet normal 0 0 -1
  outer loop
   vertex 0.442916 0.024164 -0.00999999
   vertex 0.446077 0.0238646 -0.00999999
   vertex 0.443016 0.0222658 -0.00999999
  endloop
 endfacet
 facet normal 0 0 -1
  outer loop
   vertex 0.446128 0.0228939 -0.00999999
   vertex 0.448197 0.0236638 -0.00999999
   vertex 0.448215 0.0233151 -0.00999999
  endloop
 endfacet
 facet normal 0 0 -1
  outer loop
   vertex 0.446077 0.0238646 -0.00999999
   vertex 0.448197 0.0236638 -0.00999999
   vertex 0.446128 0.0228939 -0.00999999
  endloop
 endfacet
 facet normal 0 0 -1
  outer loop
   vertex 0.448197 0.0236638 -0.00999999
   vertex 0.449383 0.0235512 -0.00999999
   vertex 0.448215 0.0233151 -0.00999999
  endloop
 endfacet
 facet normal 0 0 1
  outer loop
   vertex -0.448463 -0.0185245 0.00999999
   vertex -0.449383 -0.0235512 0.00999999
   vertex -0.447943 -0.0284541 0.00999999
  endloop
 endfacet
 facet normal 0 0 1
  outer loop
   vertex -0.446545 -0.0150164 0.00999999
   vertex -0.448463 -0.0185245 0.00999999
   vertex -0.447943 -0.0284541 0.00999999
  endloop
 endfacet
 facet normal 0 0 1
  outer loop
   vertex -0.446545 -0.0150164 0.00999999
   vertex -0.447943 -0.0284541 0.00999999
   vertex -0.445668 -0.0317425 0.00999999
  endloop
 endfacet
 facet normal 0 0 1
  outer loop
   vertex -0.443581 -0.0115248 0.00999999
   vertex -0.446545 -0.0150164 0.00999999
   vertex -0.445668 -0.0317425 0.00999999
  endloop
 endfacet
 facet normal 0 0 1
  outer loop
   vertex -0.443581 -0.0115248 0.00999999
   vertex -0.445668 -0.0317425 0.00999999
   vertex -0.442356 -0.0349053 0.00999999
  endloop
 endfacet
 facet normal 0 0 1
  outer loop
   vertex -0.439577 -0.00811189 0.00999999
   vertex -0.443581 -0.0115248 0.00999999
   vertex -0.442356 -0.0349053 0.00999999
  endloop
 endfacet
 facet normal 0 0 1
  outer loop
   vertex -0.439577 -0.00811189 0.00999999
   vertex -0.442356 -0.0349053 0.00999999
   vertex -0.438017 -0.0378808 0.00999999
  endloop
 endfacet
 facet normal 0 0 1
  outer loop
   vertex -0.434538 -0.00480706 0.00999999
   vertex -0.439577 -0.00811189 0.00999999
   vertex -0.438017 -0.0378808 0.00999999
  endloop
 endfacet
 facet normal 0 0 1
  outer loop
   vertex -0.434538 -0.00480706 0.00999999
   vertex -0.438017 -0.0378808 0.00999999
   vertex -0.43266 -0.0406409 0.00999999
  endloop
 endfacet
 facet normal 0 0 1
  outer loop
   vertex -0.42848 -0.00157047 0.00999999
   vertex -0.434538 -0.00480706 0.00999999
   vertex -0.43266 -0.0406409 0.00999999
  endloop
 endfacet
 facet normal 0 0 1
  outer loop
   vertex -0.42848 -0.00157047 0.00999999
   vertex -0.43266 -0.0406409 0.00999999
   vertex -0.426297 -0.0432265 0.00999999
  endloop
 endfacet
 facet normal 0 0 1
  outer loop
   vertex -0.421426 0.00173906 0.00999999
   vertex -0.42848 -0.00157047 0.00999999
   vertex -0.426297 -0.0432265 0.00999999
  endloop
 endfacet
 facet normal 0 0 1
  outer loop
   vertex -0.421426 0.00173906 0.00999999
   vertex -0.426297 -0.0432265 0.00999999
   vertex -0.418935 -0.0457805 0.00999999
  endloop
 endfacet
 facet normal 0 0 1
  outer loop
   vertex -0.41339 0.00510992 0.00999999
   vertex -0.421426 0.00173906 0.00999999
   vertex -0.418935 -0.0457805 0.00999999
  endloop
 endfacet
 facet normal 0 0 1
  outer loop
   vertex -0.41339 0.00510992 0.00999999
   vertex -0.418935 -0.0457805 0.00999999
   vertex -0.410592 -0.048293 0.00999999
  endloop
 endfacet
 facet normal 0 0 1
  outer loop
   vertex -0.404395 0.00857706 0.00999999
   vertex -0.41339 0.00510992 0.00999999
   vertex -0.410592 -0.048293 0.00999999
  endloop
 endfacet
 facet normal 0 0 1
  outer loop
   vertex -0.404395 0.00857706 0.00999999
   vertex -0.410592 -0.048293 0.00999999
   vertex -0.401283 -0.0508008 0.00999999
  endloop
 endfacet
 facet normal 0 0 1
  outer loop
   vertex -0.39446 0.0121177 0.00999999
   vertex -0.404395 0.00857706 0.00999999
   vertex -0.401283 -0.0508008 0.00999999
  endloop
 endfacet
 facet normal 0 0 1
  outer loop
   vertex -0.39446 0.0121177 0.00999999
   vertex -0.401283 -0.0508008 0.00999999
   vertex -0.391033 -0.0532837 0.00999999
  endloop
 endfacet
 facet normal 0 0 1
  outer loop
   vertex -0.383609 0.0157218 0.00999999
   vertex -0.391033 -0.0532837 0.00999999
   vertex -0.379864 -0.0557337 0.00999999
  endloop
 endfacet
 facet normal 0 0 1
  outer loop
   vertex -0.383609 0.0157218 0.00999999
   vertex -0.39446 0.0121177 0.00999999
   vertex -0.391033 -0.0532837 0.00999999
  endloop
 endfacet
 facet normal 0 0 1
  outer loop
   vertex -0.371867 0.0193834 0.00999999
   vertex -0.379864 -0.0557337 0.00999999
   vertex -0.367804 -0.0581478 0.00999999
  endloop
 endfacet
 facet normal 0 0 1
  outer loop
   vertex -0.371867 0.0193834 0.00999999
   vertex -0.383609 0.0157218 0.00999999
   vertex -0.379864 -0.0557337 0.00999999
  endloop
 endfacet
 facet normal 0 0 1
  outer loop
   vertex -0.359262 0.023091 0.00999999
   vertex -0.367804 -0.0581478 0.00999999
   vertex -0.35488 -0.0605176 0.00999999
  endloop
 endfacet
 facet normal 0 0 1
  outer loop
   vertex -0.359262 0.023091 0.00999999
   vertex -0.371867 0.0193834 0.00999999
   vertex -0.367804 -0.0581478 0.00999999
  endloop
 endfacet
 facet normal 0 0 1
  outer loop
   vertex -0.345822 0.0268253 0.00999999
   vertex -0.35488 -0.0605176 0.00999999
   vertex -0.341123 -0.0628266 0.00999999
  endloop
 endfacet
 facet normal 0 0 1
  outer loop
   vertex -0.345822 0.0268253 0.00999999
   vertex -0.359262 0.023091 0.00999999
   vertex -0.35488 -0.0605176 0.00999999
  endloop
 endfacet
 facet normal 0 0 1
  outer loop
   vertex -0.331571 0.0305634 0.00999999
   vertex -0.341123 -0.0628266 0.00999999
   vertex -0.32656 -0.0650546 0.00999999
  endloop
 endfacet
 facet normal 0 0 1
  outer loop
   vertex -0.331571 0.0305634 0.00999999
   vertex -0.345822 0.0268253 0.00999999
   vertex -0.341123 -0.0628266 0.00999999
  endloop
 endfacet
 facet normal 0 0 1
  outer loop
   vertex -0.316562 0.0342862 0.00999999
   vertex -0.331571 0.0305634 0.00999999
   vertex -0.32656 -0.0650546 0.00999999
  endloop
 endfacet
 facet normal 0 0 1
  outer loop
   vertex -0.316562 0.0342862 0.00999999
   vertex -0.32656 -0.0650546 0.00999999
   vertex -0.311244 -0.0671881 0.00999999
  endloop
 endfacet
 facet normal 0 0 1
  outer loop
   vertex -0.300804 0.0379807 0.00999999
   vertex -0.311244 -0.0671881 0.00999999
   vertex -0.295186 -0.0692152 0.00999999
  endloop
 endfacet
 facet normal 0 0 1
  outer loop
   vertex -0.300804 0.0379807 0.00999999
   vertex -0.316562 0.0342862 0.00999999
   vertex -0.311244 -0.0671881 0.00999999
  endloop
 endfacet
 facet normal 0 0 1
  outer loop
   vertex -0.28435 0.0416368 0.00999999
   vertex -0.300804 0.0379807 0.00999999
   vertex -0.295186 -0.0692152 0.00999999
  endloop
 endfacet
 facet normal 0 0 1
  outer loop
   vertex -0.28435 0.0416368 0.00999999
   vertex -0.295186 -0.0692152 0.00999999
   vertex -0.27844 -0.0711314 0.00999999
  endloop
 endfacet
 facet normal 0 0 1
  outer loop
   vertex -0.267234 0.0452204 0.00999999
   vertex -0.28435 0.0416368 0.00999999
   vertex -0.27844 -0.0711314 0.00999999
  endloop
 endfacet
 facet normal 0 0 1
  outer loop
   vertex -0.267234 0.0452204 0.00999999
   vertex -0.27844 -0.0711314 0.00999999
   vertex -0.261043 -0.0729063 0.00999999
  endloop
 endfacet
 facet normal 0 0 1
  outer loop
   vertex -0.249502 0.0487408 0.00999999
   vertex -0.267234 0.0452204 0.00999999
   vertex -0.261043 -0.0729063 0.00999999
  endloop
 endfacet
 facet normal 0 0 1
  outer loop
   vertex -0.249502 0.0487408 0.00999999
   vertex -0.261043 -0.0729063 0.00999999
   vertex -0.24304 -0.0745538 0.00999999
  endloop
 endfacet
 facet normal 0 0 1
  outer loop
   vertex -0.23118 0.0521938 0.00999999
   vertex -0.249502 0.0487408 0.00999999
   vertex -0.24304 -0.0745538 0.00999999
  endloop
 endfacet
 facet normal 0 0 1
  outer loop
   vertex -0.23118 0.0521938 0.00999999
   vertex -0.24304 -0.0745538 0.00999999
   vertex -0.224458 -0.0760728 0.00999999
  endloop
 endfacet
 facet normal 0 0 1
  outer loop
   vertex -0.212323 0.0555595 0.00999999
   vertex -0.23118 0.0521938 0.00999999
   vertex -0.224458 -0.0760728 0.00999999
  endloop
 endfacet
 facet normal 0 0 1
  outer loop
   vertex -0.212323 0.0555595 0.00999999
   vertex -0.224458 -0.0760728 0.00999999
   vertex -0.205352 -0.0774489 0.00999999
  endloop
 endfacet
 facet normal 0 0 1
  outer loop
   vertex -0.192972 0.0588033 0.00999999
   vertex -0.212323 0.0555595 0.00999999
   vertex -0.205352 -0.0774489 0.00999999
  endloop
 endfacet
 facet normal 0 0 1
  outer loop
   vertex -0.192972 0.0588033 0.00999999
   vertex -0.205352 -0.0774489 0.00999999
   vertex -0.185768 -0.0786522 0.00999999
  endloop
 endfacet
 facet normal 0 0 1
  outer loop
   vertex -0.173174 0.0619408 0.00999999
   vertex -0.192972 0.0588033 0.00999999
   vertex -0.185768 -0.0786522 0.00999999
  endloop
 endfacet
 facet normal 0 0 1
  outer loop
   vertex -0.173174 0.0619408 0.00999999
   vertex -0.185768 -0.0786522 0.00999999
   vertex -0.165751 -0.0797031 0.00999999
  endloop
 endfacet
 facet normal 0 0 1
  outer loop
   vertex -0.152963 0.0649403 0.00999999
   vertex -0.173174 0.0619408 0.00999999
   vertex -0.165751 -0.0797031 0.00999999
  endloop
 endfacet
 facet normal 0 0 1
  outer loop
   vertex -0.152963 0.0649403 0.00999999
   vertex -0.165751 -0.0797031 0.00999999
   vertex -0.145337 -0.0805736 0.00999999
  endloop
 endfacet
 facet normal 0 0 1
  outer loop
   vertex -0.132402 0.0677906 0.00999999
   vertex -0.152963 0.0649403 0.00999999
   vertex -0.145337 -0.0805736 0.00999999
  endloop
 endfacet
 facet normal 0 0 1
  outer loop
   vertex -0.132402 0.0677906 0.00999999
   vertex -0.145337 -0.0805736 0.00999999
   vertex -0.124591 -0.0812591 0.00999999
  endloop
 endfacet
 facet normal 0 0 1
  outer loop
   vertex -0.111536 0.0704839 0.00999999
   vertex -0.132402 0.0677906 0.00999999
   vertex -0.124591 -0.0812591 0.00999999
  endloop
 endfacet
 facet normal 0 0 1
  outer loop
   vertex -0.111536 0.0704839 0.00999999
   vertex -0.124591 -0.0812591 0.00999999
   vertex -0.103557 -0.0817564 0.00999999
  endloop
 endfacet
 facet normal 0 0 1
  outer loop
   vertex -0.0903974 0.0729805 0.00999999
   vertex -0.111536 0.0704839 0.00999999
   vertex -0.103557 -0.0817564 0.00999999
  endloop
 endfacet
 facet normal 0 0 1
  outer loop
   vertex -0.0903974 0.0729805 0.00999999
   vertex -0.103557 -0.0817564 0.00999999
   vertex -0.0822737 -0.0820298 0.00999999
  endloop
 endfacet
 facet normal 0 0 1
  outer loop
   vertex -0.0903974 0.0729805 0.00999999
   vertex -0.0822737 -0.0820298 0.00999999
   vertex -0.0608029 -0.0820933 0.00999999
  endloop
 endfacet
 facet normal 0 0 1
  outer loop
   vertex -0.0690509 0.0752879 0.00999999
   vertex -0.0903974 0.0729805 0.00999999
   vertex -0.0608029 -0.0820933 0.00999999
  endloop
 endfacet
 facet normal 0 0 1
  outer loop
   vertex -0.0475475 0.0773522 0.00999999
   vertex -0.0690509 0.0752879 0.00999999
   vertex -0.0608029 -0.0820933 0.00999999
  endloop
 endfacet
 facet normal 0 0 1
  outer loop
   vertex -0.0475475 0.0773522 0.00999999
   vertex -0.0608029 -0.0820933 0.00999999
   vertex -0.0392015 -0.0818985 0.00999999
  endloop
 endfacet
 facet normal 0 0 1
  outer loop
   vertex -0.0259241 0.079192 0.00999999
   vertex -0.0475475 0.0773522 0.00999999
   vertex -0.0392015 -0.0818985 0.00999999
  endloop
 endfacet
 facet normal 0 0 1
  outer loop
   vertex -0.0259241 0.079192 0.00999999
   vertex -0.0392015 -0.0818985 0.00999999
   vertex -0.0175043 -0.081468 0.00999999
  endloop
 endfacet
 facet normal 0 0 1
  outer loop
   vertex -0.00423219 0.0807551 0.00999999
   vertex -0.0259241 0.079192 0.00999999
   vertex -0.0175043 -0.081468 0.00999999
  endloop
 endfacet
 facet normal 0 0 1
  outer loop
   vertex -0.00423219 0.0807551 0.00999999
   vertex -0.0175043 -0.081468 0.00999999
   vertex 0.00423219 -0.0807551 0.00999999
  endloop
 endfacet
 facet normal 0 0 1
  outer loop
   vertex 0.0174741 0.082045 0.00999999
   vertex -0.00423219 0.0807551 0.00999999
   vertex 0.00423219 -0.0807551 0.00999999
  endloop
 endfacet
 facet normal 0 0 1
  outer loop
   vertex 0.0174741 0.082045 0.00999999
   vertex 0.00423219 -0.0807551 0.00999999
   vertex 0.0259544 -0.079769 0.00999999
  endloop
 endfacet
 facet normal 0 0 1
  outer loop
   vertex 0.039144 0.082995 0.00999999
   vertex 0.0174741 0.082045 0.00999999
   vertex 0.0259544 -0.079769 0.00999999
  endloop
 endfacet
 facet normal 0 0 1
  outer loop
   vertex 0.039144 0.082995 0.00999999
   vertex 0.0259544 -0.079769 0.00999999
   vertex 0.0476049 -0.0784487 0.00999999
  endloop
 endfacet
 facet normal 0 0 1
  outer loop
   vertex 0.0607239 0.0835996 0.00999999
   vertex 0.039144 0.082995 0.00999999
   vertex 0.0476049 -0.0784487 0.00999999
  endloop
 endfacet
 facet normal 0 0 1
  outer loop
   vertex 0.0607239 0.0835996 0.00999999
   vertex 0.0476049 -0.0784487 0.00999999
   vertex 0.0691298 -0.0767943 0.00999999
  endloop
 endfacet
 facet normal 0 0 1
  outer loop
   vertex 0.0821806 0.083804 0.00999999
   vertex 0.0607239 0.0835996 0.00999999
   vertex 0.0691298 -0.0767943 0.00999999
  endloop
 endfacet
 facet normal 0 0 1
  outer loop
   vertex 0.0821806 0.083804 0.00999999
   vertex 0.0691298 -0.0767943 0.00999999
   vertex 0.0904904 -0.0747547 0.00999999
  endloop
 endfacet
 facet normal 0 0 1
  outer loop
   vertex 0.103467 0.0834677 0.00999999
   vertex 0.0821806 0.083804 0.00999999
   vertex 0.0904904 -0.0747547 0.00999999
  endloop
 endfacet
 facet normal 0 0 1
  outer loop
   vertex 0.103467 0.0834677 0.00999999
   vertex 0.0904904 -0.0747547 0.00999999
   vertex 0.111625 -0.0721951 0.00999999
  endloop
 endfacet
 facet normal 0 0 1
  outer loop
   vertex 0.124529 0.0824508 0.00999999
   vertex 0.111625 -0.0721951 0.00999999
   vertex 0.132465 -0.0689824 0.00999999
  endloop
 endfacet
 facet normal 0 0 1
  outer loop
   vertex 0.124529 0.0824508 0.00999999
   vertex 0.132465 -0.0689824 0.00999999
   vertex 0.152965 -0.0649628 0.00999999
  endloop
 endfacet
 facet normal 0 0 1
  outer loop
   vertex 0.124529 0.0824508 0.00999999
   vertex 0.103467 0.0834677 0.00999999
   vertex 0.111625 -0.0721951 0.00999999
  endloop
 endfacet
 facet normal 0 0 1
  outer loop
   vertex 0.145336 0.0805961 0.00999999
   vertex 0.124529 0.0824508 0.00999999
   vertex 0.152965 -0.0649628 0.00999999
  endloop
 endfacet
 facet normal 0 0 1
  outer loop
   vertex 0.165832 0.078159 0.00999999
   vertex 0.152965 -0.0649628 0.00999999
   vertex 0.173093 -0.0603967 0.00999999
  endloop
 endfacet
 facet normal 0 0 1
  outer loop
   vertex 0.165832 0.078159 0.00999999
   vertex 0.145336 0.0805961 0.00999999
   vertex 0.152965 -0.0649628 0.00999999
  endloop
 endfacet
 facet normal 0 0 1
  outer loop
   vertex 0.185949 0.0752019 0.00999999
   vertex 0.173093 -0.0603967 0.00999999
   vertex 0.192791 -0.055353 0.00999999
  endloop
 endfacet
 facet normal 0 0 1
  outer loop
   vertex 0.185949 0.0752019 0.00999999
   vertex 0.165832 0.078159 0.00999999
   vertex 0.173093 -0.0603967 0.00999999
  endloop
 endfacet
 facet normal 0 0 1
  outer loop
   vertex 0.205643 0.0718883 0.00999999
   vertex 0.192791 -0.055353 0.00999999
   vertex 0.212031 -0.0499989 0.00999999
  endloop
 endfacet
 facet normal 0 0 1
  outer loop
   vertex 0.205643 0.0718883 0.00999999
   vertex 0.185949 0.0752019 0.00999999
   vertex 0.192791 -0.055353 0.00999999
  endloop
 endfacet
 facet normal 0 0 1
  outer loop
   vertex 0.224869 0.0682337 0.00999999
   vertex 0.212031 -0.0499989 0.00999999
   vertex 0.23077 -0.0443547 0.00999999
  endloop
 endfacet
 facet normal 0 0 1
  outer loop
   vertex 0.224869 0.0682337 0.00999999
   vertex 0.205643 0.0718883 0.00999999
   vertex 0.212031 -0.0499989 0.00999999
  endloop
 endfacet
 facet normal 0 0 1
  outer loop
   vertex 0.224869 0.0682337 0.00999999
   vertex 0.23077 -0.0443547 0.00999999
   vertex 0.248969 -0.0385802 0.00999999
  endloop
 endfacet
 facet normal 0 0 1
  outer loop
   vertex 0.243573 0.0643933 0.00999999
   vertex 0.248969 -0.0385802 0.00999999
   vertex 0.26658 -0.0327411 0.00999999
  endloop
 endfacet
 facet normal 0 0 1
  outer loop
   vertex 0.243573 0.0643933 0.00999999
   vertex 0.224869 0.0682337 0.00999999
   vertex 0.248969 -0.0385802 0.00999999
  endloop
 endfacet
 facet normal 0 0 1
  outer loop
   vertex 0.261697 0.0604269 0.00999999
   vertex 0.26658 -0.0327411 0.00999999
   vertex 0.283579 -0.0269231 0.00999999
  endloop
 endfacet
 facet normal 0 0 1
  outer loop
   vertex 0.261697 0.0604269 0.00999999
   vertex 0.243573 0.0643933 0.00999999
   vertex 0.26658 -0.0327411 0.00999999
  endloop
 endfacet
 facet normal 0 0 1
  outer loop
   vertex 0.279211 0.0564177 0.00999999
   vertex 0.261697 0.0604269 0.00999999
   vertex 0.283579 -0.0269231 0.00999999
  endloop
 endfacet
 facet normal 0 0 1
  outer loop
   vertex 0.296064 0.0524604 0.00999999
   vertex 0.283579 -0.0269231 0.00999999
   vertex 0.299926 -0.0212259 0.00999999
  endloop
 endfacet
 facet normal 0 0 1
  outer loop
   vertex 0.296064 0.0524604 0.00999999
   vertex 0.279211 0.0564177 0.00999999
   vertex 0.283579 -0.0269231 0.00999999
  endloop
 endfacet
 facet normal 0 0 1
  outer loop
   vertex 0.312217 0.0486331 0.00999999
   vertex 0.299926 -0.0212259 0.00999999
   vertex 0.31559 -0.0157312 0.00999999
  endloop
 endfacet
 facet normal 0 0 1
  outer loop
   vertex 0.312217 0.0486331 0.00999999
   vertex 0.296064 0.0524604 0.00999999
   vertex 0.299926 -0.0212259 0.00999999
  endloop
 endfacet
 facet normal 0 0 1
  outer loop
   vertex 0.327611 0.0449995 0.00999999
   vertex 0.31559 -0.0157312 0.00999999
   vertex 0.33052 -0.0105083 0.00999999
  endloop
 endfacet
 facet normal 0 0 1
  outer loop
   vertex 0.327611 0.0449995 0.00999999
   vertex 0.312217 0.0486331 0.00999999
   vertex 0.31559 -0.0157312 0.00999999
  endloop
 endfacet
 facet normal 0 0 1
  outer loop
   vertex 0.342236 0.0415969 0.00999999
   vertex 0.33052 -0.0105083 0.00999999
   vertex 0.344709 -0.00559558 0.00999999
  endloop
 endfacet
 facet normal 0 0 1
  outer loop
   vertex 0.342236 0.0415969 0.00999999
   vertex 0.327611 0.0449995 0.00999999
   vertex 0.33052 -0.0105083 0.00999999
  endloop
 endfacet
 facet normal 0 0 1
  outer loop
   vertex 0.356037 0.0384358 0.00999999
   vertex 0.344709 -0.00559558 0.00999999
   vertex 0.358105 -0.00100924 0.00999999
  endloop
 endfacet
 facet normal 0 0 1
  outer loop
   vertex 0.356037 0.0384358 0.00999999
   vertex 0.342236 0.0415969 0.00999999
   vertex 0.344709 -0.00559558 0.00999999
  endloop
 endfacet
 facet normal 0 0 1
  outer loop
   vertex 0.368987 0.0355321 0.00999999
   vertex 0.358105 -0.00100924 0.00999999
   vertex 0.37068 0.00323222 0.00999999
  endloop
 endfacet
 facet normal 0 0 1
  outer loop
   vertex 0.368987 0.0355321 0.00999999
   vertex 0.356037 0.0384358 0.00999999
   vertex 0.358105 -0.00100924 0.00999999
  endloop
 endfacet
 facet normal 0 0 1
  outer loop
   vertex 0.381055 0.0329417 0.00999999
   vertex 0.37068 0.00323222 0.00999999
   vertex 0.382411 0.00706984 0.00999999
  endloop
 endfacet
 facet normal 0 0 1
  outer loop
   vertex 0.381055 0.0329417 0.00999999
   vertex 0.368987 0.0355321 0.00999999
   vertex 0.37068 0.00323222 0.00999999
  endloop
 endfacet
 facet normal 0 0 1
  outer loop
   vertex 0.392211 0.0307254 0.00999999
   vertex 0.382411 0.00706984 0.00999999
   vertex 0.393275 0.0104402 0.00999999
  endloop
 endfacet
 facet normal 0 0 1
  outer loop
   vertex 0.392211 0.0307254 0.00999999
   vertex 0.381055 0.0329417 0.00999999
   vertex 0.382411 0.00706984 0.00999999
  endloop
 endfacet
 facet normal 0 0 1
  outer loop
   vertex 0.402427 0.028913 0.00999999
   vertex 0.393275 0.0104402 0.00999999
   vertex 0.403245 0.0133105 0.00999999
  endloop
 endfacet
 facet normal 0 0 1
  outer loop
   vertex 0.402427 0.028913 0.00999999
   vertex 0.403245 0.0133105 0.00999999
   vertex 0.412303 0.0157039 0.00999999
  endloop
 endfacet
 facet normal 0 0 1
  outer loop
   vertex 0.402427 0.028913 0.00999999
   vertex 0.392211 0.0307254 0.00999999
   vertex 0.393275 0.0104402 0.00999999
  endloop
 endfacet
 facet normal 0 0 1
  outer loop
   vertex 0.411686 0.0274795 0.00999999
   vertex 0.402427 0.028913 0.00999999
   vertex 0.412303 0.0157039 0.00999999
  endloop
 endfacet
 facet normal 0 0 1
  outer loop
   vertex 0.411686 0.0274795 0.00999999
   vertex 0.412303 0.0157039 0.00999999
   vertex 0.420414 0.0176016 0.00999999
  endloop
 endfacet
 facet normal 0 0 1
  outer loop
   vertex 0.419951 0.0264401 0.00999999
   vertex 0.411686 0.0274795 0.00999999
   vertex 0.420414 0.0176016 0.00999999
  endloop
 endfacet
 facet normal 0 0 1
  outer loop
   vertex 0.42722 0.0256539 0.00999999
   vertex 0.420414 0.0176016 0.00999999
   vertex 0.427561 0.0191433 0.00999999
  endloop
 endfacet
 facet normal 0 0 1
  outer loop
   vertex 0.42722 0.0256539 0.00999999
   vertex 0.419951 0.0264401 0.00999999
   vertex 0.420414 0.0176016 0.00999999
  endloop
 endfacet
 facet normal 0 0 1
  outer loop
   vertex 0.433479 0.02506 0.00999999
   vertex 0.427561 0.0191433 0.00999999
   vertex 0.433723 0.0203882 0.00999999
  endloop
 endfacet
 facet normal 0 0 1
  outer loop
   vertex 0.433479 0.02506 0.00999999
   vertex 0.42722 0.0256539 0.00999999
   vertex 0.427561 0.0191433 0.00999999
  endloop
 endfacet
 facet normal 0 0 1
  outer loop
   vertex 0.438714 0.0245638 0.00999999
   vertex 0.433723 0.0203882 0.00999999
   vertex 0.438878 0.0214289 0.00999999
  endloop
 endfacet
 facet normal 0 0 1
  outer loop
   vertex 0.438714 0.0245638 0.00999999
   vertex 0.433479 0.02506 0.00999999
   vertex 0.433723 0.0203882 0.00999999
  endloop
 endfacet
 facet normal 0 0 1
  outer loop
   vertex 0.442916 0.024164 0.00999999
   vertex 0.438878 0.0214289 0.00999999
   vertex 0.443016 0.0222658 0.00999999
  endloop
 endfacet
 facet normal 0 0 1
  outer loop
   vertex 0.442916 0.024164 0.00999999
   vertex 0.438714 0.0245638 0.00999999
   vertex 0.438878 0.0214289 0.00999999
  endloop
 endfacet
 facet normal 0 0 1
  outer loop
   vertex 0.446077 0.0238646 0.00999999
   vertex 0.443016 0.0222658 0.00999999
   vertex 0.446128 0.0228939 0.00999999
  endloop
 endfacet
 facet normal 0 0 1
  outer loop
   vertex 0.446077 0.0238646 0.00999999
   vertex 0.442916 0.024164 0.00999999
   vertex 0.443016 0.0222658 0.00999999
  endloop
 endfacet
 facet normal 0 0 1
  outer loop
   vertex 0.448197 0.0236638 0.00999999
   vertex 0.446128 0.0228939 0.00999999
   vertex 0.448215 0.0233151 0.00999999
  endloop
 endfacet
 facet normal 0 0 1
  outer loop
   vertex 0.448197 0.0236638 0.00999999
   vertex 0.446077 0.0238646 0.00999999
   vertex 0.446128 0.0228939 0.00999999
  endloop
 endfacet
 facet normal 0 0 1
  outer loop
   vertex 0.449383 0.0235512 0.00999999
   vertex 0.448197 0.0236638 0.00999999
   vertex 0.448215 0.0233151 0.00999999
  endloop
 endfacet
endsolid patch0
